<svg version="1.1" id="Layer_1" xmlns="http://www.w3.org/2000/svg" xmlns:xlink="http://www.w3.org/1999/xlink" x="0px" y="0px"
	 width="100%" viewBox="0 0 239 236" enable-background="new 0 0 239 236" xml:space="preserve">
<path fill="transparent" opacity="1.000000" stroke="none" 
	d="
M134.000000,237.000000 
	C89.333336,237.000000 45.166672,237.000000 1.000006,237.000000 
	C1.000004,158.333344 1.000004,79.666679 1.000002,1.000016 
	C80.666656,1.000011 160.333313,1.000011 239.999969,1.000005 
	C239.999985,79.666649 239.999985,158.333298 240.000000,236.999969 
	C204.833328,237.000000 169.666672,237.000000 134.000000,237.000000 
M74.806290,12.968177 
	C74.090401,16.926027 73.233681,20.864479 72.685303,24.845406 
	C71.107903,36.296227 69.427536,47.741611 68.285873,59.238609 
	C67.922447,62.898525 66.953613,64.113770 63.278553,64.067787 
	C49.617691,63.896870 35.938103,63.632790 22.298832,64.201691 
	C17.622726,64.396736 12.624782,66.231812 8.572223,68.653572 
	C5.972576,70.207092 3.701692,74.041664 3.262892,77.134560 
	C2.218404,84.496674 9.836504,91.937187 17.599714,91.984459 
	C28.096510,92.048370 38.593987,92.000336 49.091171,92.000343 
	C53.876694,92.000343 58.662220,92.000351 63.928288,92.000351 
	C61.536186,111.662895 59.216064,130.733765 56.872219,149.999664 
	C44.459999,149.999664 32.645111,149.876907 20.836054,150.085129 
	C17.846663,150.137848 14.715770,150.842697 11.928592,151.949631 
	C5.348938,154.562683 1.756481,160.886429 3.078665,166.691849 
	C4.271262,171.928299 11.155990,177.026138 17.219753,177.057892 
	C27.712580,177.112854 38.206024,177.153015 48.698570,177.091324 
	C51.586857,177.074326 53.770794,177.519745 53.346375,181.117203 
	C52.925686,184.683014 52.418148,188.238739 52.013710,191.806259 
	C50.947121,201.214630 49.893635,210.624649 48.905323,220.041397 
	C48.808357,220.965317 48.984745,222.045990 49.395306,222.875107 
	C53.040829,230.237244 60.718979,234.419296 68.606766,233.436508 
	C75.075775,232.630508 82.940475,224.904907 84.021431,217.715668 
	C85.065041,210.774689 85.558411,203.752060 86.347023,196.771332 
	C87.088516,190.207672 87.899910,183.651901 88.664810,177.224915 
	C107.165588,177.224915 124.937508,177.224915 143.075912,177.224915 
	C142.692230,182.010574 142.348282,186.549408 141.960800,191.084503 
	C140.985321,202.501938 139.951508,213.914658 139.060577,225.338608 
	C138.967667,226.529800 139.286255,228.189331 140.073334,228.942139 
	C145.167374,233.814377 151.742477,235.040421 158.134308,233.699081 
	C163.925735,232.483765 168.144592,228.064255 168.936874,221.823792 
	C170.563156,209.014297 172.054749,196.174698 173.049866,183.304825 
	C173.419266,178.527298 174.665070,176.743347 179.717468,176.884033 
	C192.370926,177.236359 205.043762,176.838394 217.702713,177.072235 
	C223.573456,177.180679 227.706100,173.931091 231.436020,170.432526 
	C235.418427,166.697159 235.795410,159.747025 231.759872,156.121185 
	C228.447006,153.144669 223.589798,150.493851 219.284210,150.271423 
	C205.248779,149.546356 191.152451,149.999786 177.128738,149.999786 
	C179.266617,130.411423 181.352020,111.303963 183.458832,92.000351 
	C196.400940,92.000351 208.880707,92.040237 221.360092,91.986359 
	C229.702942,91.950340 237.383545,84.938255 237.222000,77.642784 
	C237.071396,70.840744 228.755188,64.061752 220.337662,64.014397 
	C209.551117,63.953701 198.763992,63.999653 187.798279,63.999653 
	C187.798279,61.815147 187.676895,60.150249 187.817398,58.507755 
	C188.983368,44.878143 190.432938,31.267675 191.303589,17.619959 
	C191.777496,10.191444 185.341827,3.761480 178.006271,2.815581 
	C168.254501,1.558122 159.368134,9.329667 158.544083,14.637399 
	C157.290070,22.714350 156.939423,30.929152 156.124710,39.077370 
	C155.299896,47.326633 154.377350,55.566128 153.477417,63.998993 
	C137.485657,63.998993 121.671677,63.958275 105.858269,64.035309 
	C102.898819,64.049728 102.008598,62.645248 102.262321,60.025730 
	C102.656204,55.959408 103.027550,51.889977 103.496574,47.832050 
	C104.601212,38.274921 105.791771,28.727570 106.852547,19.165722 
	C106.991875,17.909744 106.944595,16.385120 106.357414,15.335219 
	C101.071739,5.884273 93.269081,2.745703 82.942650,5.129393 
	C78.462952,4.684183 75.345116,7.554423 74.806290,12.968177 
z"/>
<path fill="#7f7f7f" opacity="1.000000" stroke="none"
	d="
M82.971397,5.753403 
	C93.269081,2.745703 101.071739,5.884273 106.357414,15.335219 
	C106.944595,16.385120 106.991875,17.909744 106.852547,19.165722 
	C105.791771,28.727570 104.601212,38.274921 103.496574,47.832050 
	C103.027550,51.889977 102.656204,55.959408 102.262321,60.025730 
	C102.008598,62.645248 102.898819,64.049728 105.858269,64.035309 
	C121.671677,63.958275 137.485657,63.998993 153.477417,63.998993 
	C154.377350,55.566128 155.299896,47.326633 156.124710,39.077370 
	C156.939423,30.929152 157.290070,22.714350 158.544083,14.637399 
	C159.368134,9.329667 168.254501,1.558122 178.006271,2.815581 
	C185.341827,3.761480 191.777496,10.191444 191.303589,17.619959 
	C190.432938,31.267675 188.983368,44.878143 187.817398,58.507755 
	C187.676895,60.150249 187.798279,61.815147 187.798279,63.999653 
	C198.763992,63.999653 209.551117,63.953701 220.337662,64.014397 
	C228.755188,64.061752 237.071396,70.840744 237.222000,77.642784 
	C237.383545,84.938255 229.702942,91.950340 221.360092,91.986359 
	C208.880707,92.040237 196.400940,92.000351 183.458832,92.000351 
	C181.352020,111.303963 179.266617,130.411423 177.128738,149.999786 
	C191.152451,149.999786 205.248779,149.546356 219.284210,150.271423 
	C223.589798,150.493851 228.447006,153.144669 231.759872,156.121185 
	C235.795410,159.747025 235.418427,166.697159 231.436020,170.432526 
	C227.706100,173.931091 223.573456,177.180679 217.702713,177.072235 
	C205.043762,176.838394 192.370926,177.236359 179.717468,176.884033 
	C174.665070,176.743347 173.419266,178.527298 173.049866,183.304825 
	C172.054749,196.174698 170.563156,209.014297 168.936874,221.823792 
	C168.144592,228.064255 163.925735,232.483765 158.134308,233.699081 
	C151.742477,235.040421 145.167374,233.814377 140.073334,228.942139 
	C139.286255,228.189331 138.967667,226.529800 139.060577,225.338608 
	C139.951508,213.914658 140.985321,202.501938 141.960800,191.084503 
	C142.348282,186.549408 142.692230,182.010574 143.075912,177.224915 
	C124.937508,177.224915 107.165588,177.224915 88.664810,177.224915 
	C87.899910,183.651901 87.088516,190.207672 86.347023,196.771332 
	C85.558411,203.752060 85.065041,210.774689 84.021431,217.715668 
	C82.940475,224.904907 75.075775,232.630508 68.606766,233.436508 
	C60.718979,234.419296 53.040829,230.237244 49.395306,222.875107 
	C48.984745,222.045990 48.808357,220.965317 48.905323,220.041397 
	C49.893635,210.624649 50.947121,201.214630 52.013710,191.806259 
	C52.418148,188.238739 52.925686,184.683014 53.346375,181.117203 
	C53.770794,177.519745 51.586857,177.074326 48.698570,177.091324 
	C38.206024,177.153015 27.712580,177.112854 17.219753,177.057892 
	C11.155990,177.026138 4.271262,171.928299 3.078665,166.691849 
	C1.756481,160.886429 5.348938,154.562683 11.928592,151.949631 
	C14.715770,150.842697 17.846663,150.137848 20.836054,150.085129 
	C32.645111,149.876907 44.459999,149.999664 56.872219,149.999664 
	C59.216064,130.733765 61.536186,111.662895 63.928288,92.000351 
	C58.662220,92.000351 53.876694,92.000343 49.091171,92.000343 
	C38.593987,92.000336 28.096510,92.048370 17.599714,91.984459 
	C9.836504,91.937187 2.218404,84.496674 3.262892,77.134560 
	C3.701692,74.041664 5.972576,70.207092 8.572223,68.653572 
	C12.624782,66.231812 17.622726,64.396736 22.298832,64.201691 
	C35.938103,63.632790 49.617691,63.896870 63.278553,64.067787 
	C66.953613,64.113770 67.922447,62.898525 68.285873,59.238609 
	C69.427536,47.741611 71.107903,36.296227 72.685303,24.845406 
	C73.233681,20.864479 74.090401,16.926027 75.303253,12.497665 
	C78.190613,9.935905 80.581009,7.844654 82.971397,5.753403 
M113.500122,150.000565 
	C119.819565,150.000565 126.139496,150.047729 132.458267,149.982376 
	C136.085938,149.944839 140.589783,150.953873 143.056152,149.191879 
	C144.974686,147.821274 144.425064,142.904602 144.848007,139.548264 
	C146.353500,127.601021 147.840866,115.651230 149.257904,103.693253 
	C149.707413,99.900131 149.915787,96.078438 150.242279,92.176949 
	C132.990631,92.176949 116.064369,92.176949 98.608772,92.176949 
	C96.330559,111.411873 94.066002,130.531601 91.760071,150.000565 
	C99.236618,150.000565 105.868408,150.000565 113.500122,150.000565 
z"/>
<path fill="transparent" opacity="1.000000" stroke="none" 
	d="
M82.957024,5.441398 
	C80.581009,7.844654 78.190613,9.935905 75.482895,12.158018 
	C75.345116,7.554423 78.462952,4.684183 82.957024,5.441398 
z"/>
<path fill="transparent" opacity="1.000000" stroke="none" 
	d="
M113.000160,150.000565 
	C105.868408,150.000565 99.236618,150.000565 91.760071,150.000565 
	C94.066002,130.531601 96.330559,111.411873 98.608772,92.176949 
	C116.064369,92.176949 132.990631,92.176949 150.242279,92.176949 
	C149.915787,96.078438 149.707413,99.900131 149.257904,103.693253 
	C147.840866,115.651230 146.353500,127.601021 144.848007,139.548264 
	C144.425064,142.904602 144.974686,147.821274 143.056152,149.191879 
	C140.589783,150.953873 136.085938,149.944839 132.458267,149.982376 
	C126.139496,150.047729 119.819565,150.000565 113.000160,150.000565 
z"/>
</svg>