<svg version="1.1" id="Layer_1" xmlns="http://www.w3.org/2000/svg" xmlns:xlink="http://www.w3.org/1999/xlink" x="0px" y="0px"
	 width="100%" viewBox="0 0 810 178" xml:space="preserve">
<path fill="transparent" opacity="1.000000" stroke="none" 
	d="
M590.000000,179.000000 
	C393.333344,179.000000 197.166718,179.000000 1.000053,179.000000 
	C1.000035,119.666695 1.000035,60.333393 1.000018,1.000069 
	C270.999939,1.000046 540.999878,1.000046 810.999878,1.000023 
	C810.999878,60.333263 810.999878,119.666527 810.999939,178.999893 
	C737.500000,179.000000 664.000000,179.000000 590.000000,179.000000 
M74.970238,11.472763 
	C73.955780,10.974555 72.952217,10.452578 71.925087,9.982036 
	C65.700104,7.130290 58.637268,11.150274 58.028545,18.005632 
	C57.563446,23.243547 57.435856,28.511354 56.974613,33.749706 
	C56.444893,39.765739 55.712849,45.763950 55.044048,51.999653 
	C47.771381,51.999653 40.957676,51.912109 34.147430,52.027832 
	C28.862335,52.117634 23.535460,52.110718 18.312740,52.797565 
	C13.738656,53.399113 10.073025,58.826084 10.595278,63.106564 
	C11.309050,68.956764 14.670007,71.991577 20.479919,71.996193 
	C31.262384,72.004761 42.044865,71.998650 53.220867,71.998650 
	C51.777550,84.990906 50.395554,97.431160 48.999100,110.001564 
	C46.762882,110.001564 45.105629,109.946442 43.453045,110.010933 
	C35.553818,110.319214 27.634800,110.413612 19.765751,111.086273 
	C15.406424,111.458916 11.648019,117.327225 12.266288,121.691231 
	C13.158550,127.989197 15.347404,129.987305 21.421314,129.995544 
	C29.876081,130.007019 38.330875,129.998444 47.206360,129.998444 
	C46.927258,132.266403 46.701332,134.019073 46.497360,135.774277 
	C45.661865,142.963806 44.438709,150.136932 44.124187,157.349487 
	C43.863567,163.326004 47.479164,166.379410 53.452419,165.954987 
	C60.767712,165.435226 62.668129,161.687088 63.921001,153.074203 
	C65.022240,145.503677 65.460571,137.836731 66.191193,130.217468 
	C78.817101,130.217468 91.091599,130.217468 103.551125,130.217468 
	C102.348633,140.161026 101.126465,149.859573 100.019318,159.571228 
	C99.325897,165.653717 103.856956,167.345703 108.230301,167.393494 
	C111.167198,167.425598 115.344086,165.808014 116.865173,163.527298 
	C122.396500,155.233673 120.484627,145.176529 121.830406,135.889191 
	C122.444191,131.653381 123.471062,129.814072 127.998039,129.919144 
	C138.656097,130.166534 149.324097,130.045258 159.987442,129.975327 
	C164.254150,129.947357 167.746307,126.606293 167.998093,122.604691 
	C168.395111,116.294975 166.021194,111.700348 161.703644,111.058395 
	C157.836472,110.483406 153.909500,110.117401 150.001938,110.047035 
	C141.721420,109.897926 133.436356,110.001564 125.142021,110.001564 
	C126.596481,97.100204 127.987061,84.765564 129.426392,71.998436 
	C139.948166,71.998436 150.571030,71.853508 161.186386,72.072662 
	C165.204071,72.155602 168.117752,70.147285 169.098145,67.054764 
	C170.025848,64.128403 169.886475,60.159943 168.608765,57.391872 
	C166.293961,52.376900 160.841751,52.249184 156.105164,52.079132 
	C148.158020,51.793808 140.193161,52.001076 131.705490,52.001076 
	C132.948608,42.428925 133.860657,33.321007 135.396622,24.319555 
	C136.403275,18.420158 133.577377,13.188279 127.813179,12.012960 
	C122.684341,10.967195 116.582146,15.501619 116.011391,20.847416 
	C114.914803,31.118063 113.862473,41.393433 112.777222,51.806644 
	C99.835251,51.806644 87.075203,51.806644 73.915184,51.806644 
	C74.813896,44.346642 75.906158,37.137119 76.486107,29.886612 
	C76.962097,23.935835 80.049400,17.753340 74.970238,11.472763 
M538.561951,133.001968 
	C547.661682,133.001968 556.761414,133.001968 565.822754,133.001968 
	C565.822754,126.014381 565.822754,119.592926 565.822754,113.279022 
	C563.422424,112.887245 561.309448,112.542374 559.297668,112.214020 
	C559.297668,100.987839 559.297668,90.069427 559.297668,77.974319 
	C563.300171,88.484169 566.854492,97.817131 570.381348,107.077972 
	C574.233459,107.077972 577.576904,106.868797 580.880981,107.140068 
	C583.856079,107.384315 585.179321,106.330544 586.161255,103.480705 
	C588.989319,95.272789 592.206421,87.198891 595.270691,79.072334 
	C595.471619,79.106567 595.672607,79.140793 595.873596,79.175026 
	C595.873596,90.028282 595.873596,100.881546 595.873596,112.133034 
	C593.740234,112.530373 591.531616,112.941734 589.249023,113.366859 
	C589.249023,119.871002 589.249023,126.279366 589.249023,132.749298 
	C600.898132,132.749298 612.294556,132.749298 623.649780,132.749298 
	C623.649780,126.096336 623.649780,119.702766 623.649780,113.345947 
	C621.223694,113.000740 619.147644,112.705353 617.344727,112.448814 
	C617.344727,98.649620 617.344727,85.429947 617.344727,72.298691 
	C619.706543,72.006767 621.649475,71.766624 623.766602,71.504951 
	C623.766602,64.810547 623.766602,58.399765 623.766602,51.676659 
	C613.078674,51.676659 602.619934,51.823685 592.169678,51.589725 
	C588.908875,51.516720 587.540894,52.691414 586.461304,55.608082 
	C583.764465,62.893478 580.703247,70.043968 577.566040,77.797882 
	C574.264526,69.688698 571.367371,62.294682 568.192383,55.021996 
	C567.598328,53.661186 565.912170,51.858631 564.695129,51.831608 
	C553.597717,51.585159 542.492554,51.686871 531.281128,51.686871 
	C531.281128,58.508038 531.281128,64.908752 531.281128,71.575928 
	C533.610596,71.840149 535.693298,72.076370 538.235168,72.364670 
	C538.235168,83.383247 538.000549,94.173775 538.335632,104.946587 
	C538.499695,110.222908 538.272827,114.335793 531.315369,113.197243 
	C531.315369,120.060555 531.315369,126.441422 531.315369,133.001968 
	C533.613953,133.001968 535.596436,133.001968 538.561951,133.001968 
M189.618515,132.996323 
	C200.683838,132.996323 211.749161,132.996323 222.723572,132.996323 
	C222.723572,125.900818 222.723572,119.598129 222.723572,113.231689 
	C220.184845,112.753510 217.803558,112.304977 215.501633,111.871399 
	C215.501633,108.735527 215.501633,105.971832 215.501633,103.314529 
	C220.345184,102.007759 222.929993,103.322762 224.515915,108.229774 
	C226.906967,115.628059 230.205460,122.738777 233.261047,129.910873 
	C233.765137,131.094070 234.974228,132.821976 235.899017,132.848465 
	C243.993698,133.080231 252.097809,132.982498 260.043762,132.982498 
	C260.043762,126.102242 260.043762,119.831627 260.043762,112.918251 
	C251.166382,114.497337 246.501663,110.463272 245.249802,101.959480 
	C254.366470,98.581703 259.638794,91.713646 260.615265,82.299942 
	C262.291260,66.142357 258.947968,51.635818 234.775558,51.825932 
	C221.788818,51.928074 208.800568,51.838734 195.812988,51.836014 
	C193.208099,51.835468 190.603210,51.835934 187.702148,51.835934 
	C187.702148,55.692223 187.701859,58.995499 187.702194,62.298771 
	C187.703033,70.612961 187.703156,70.612961 194.842010,72.948326 
	C194.842010,85.889236 194.842010,98.852661 194.842010,111.966812 
	C192.389954,112.504044 190.046539,113.017471 187.268448,113.626137 
	C187.738022,120.258446 188.187088,126.601128 189.618515,132.996323 
M792.427002,51.406631 
	C783.806519,51.406631 775.186096,51.406631 765.788147,51.406631 
	C767.323853,58.733395 763.833740,66.080109 767.586426,71.734406 
	C763.612732,76.138000 759.445435,80.756111 754.945251,85.743187 
	C754.945251,80.917107 754.945251,76.564636 754.945251,72.366554 
	C757.500671,71.822830 759.703430,71.354141 761.698730,70.929604 
	C761.698730,64.230072 761.698730,57.986179 761.698730,51.710770 
	C749.985107,51.710770 738.579590,51.710770 727.234070,51.710770 
	C727.234070,58.427338 727.234070,64.833885 727.234070,71.401123 
	C729.604858,71.763100 731.672424,72.078773 733.849060,72.411102 
	C733.849060,85.775642 733.849060,98.878563 733.849060,112.232971 
	C731.531372,112.690285 729.327393,113.125175 727.128235,113.559113 
	C727.128235,120.116013 727.128235,126.371002 727.128235,132.635681 
	C738.882935,132.635681 750.406433,132.635681 761.831665,132.635681 
	C761.831665,125.962967 761.831665,119.660416 761.831665,113.326042 
	C759.458496,112.960022 757.236084,112.617264 754.078064,112.130203 
	C757.589844,108.103828 760.512878,104.752396 763.840942,100.936615 
	C767.592590,110.953835 771.015381,120.262360 774.610840,129.503754 
	C775.128174,130.833481 776.442932,132.807251 777.446106,132.842392 
	C785.334229,133.118790 793.236389,132.995743 800.984192,132.995743 
	C800.984192,125.617775 800.984192,119.001404 800.984192,112.325829 
	C798.327271,111.935135 795.804382,111.845840 793.480530,111.119736 
	C792.021057,110.663712 790.245239,109.524086 789.669189,108.222862 
	C786.783386,101.704742 784.192200,95.052902 781.643677,88.392120 
	C781.240540,87.338402 781.077332,85.341156 781.659607,84.892975 
	C787.963379,80.041374 791.881409,71.907341 800.992920,70.871262 
	C800.992920,64.448006 800.992920,58.175129 800.992920,51.406696 
	C798.321045,51.406696 795.860413,51.406696 792.427002,51.406631 
M452.998291,54.586376 
	C452.998291,59.695919 452.998291,64.805466 452.998291,69.831940 
	C455.501373,70.047821 457.406158,70.212105 459.856506,70.423439 
	C455.439209,82.344810 451.033051,93.582649 447.156586,105.000336 
	C445.463379,109.987419 443.709381,114.014626 437.296143,112.780403 
	C437.296143,119.668564 437.296143,126.098320 437.296143,132.691940 
	C449.047485,132.691940 460.594177,132.691940 472.120300,132.691940 
	C472.120300,126.083031 472.120300,119.785431 472.120300,113.506393 
	C470.591339,112.940300 469.193176,112.422630 467.795044,111.904968 
	C467.861969,111.628853 467.928925,111.352730 467.995880,111.076614 
	C475.901215,111.076614 483.806580,111.076614 491.711945,111.076614 
	C491.771790,111.322800 491.831635,111.568993 491.891479,111.815178 
	C490.305084,112.336395 488.718719,112.857605 487.295227,113.325294 
	C487.295227,119.958290 487.295227,126.373260 487.295227,132.715942 
	C498.999115,132.715942 510.403442,132.715942 521.827026,132.715942 
	C521.827026,125.997383 521.827026,119.566734 521.827026,112.728722 
	C515.991394,113.765694 514.514709,110.039566 513.007996,105.629768 
	C507.268616,88.832520 501.303589,72.110718 495.200958,55.441986 
	C494.634705,53.895428 492.525726,51.884636 491.088593,51.848293 
	C479.271118,51.549458 467.442657,51.625832 455.619049,51.742279 
	C454.740967,51.750923 453.874634,52.954075 452.998291,54.586376 
M322.776550,112.399193 
	C321.548645,112.698944 320.320770,112.998695 319.317444,113.243629 
	C319.317444,120.013969 319.317444,126.425362 319.317444,132.690399 
	C331.041840,132.690399 342.444458,132.690399 353.780334,132.690399 
	C353.780334,125.954300 353.780334,119.532471 353.780334,112.490623 
	C347.831757,114.185287 346.597168,110.184967 345.156342,106.040855 
	C339.272736,89.117676 333.288086,72.229034 327.197632,55.379353 
	C326.682098,53.953083 325.127472,51.868557 324.021790,51.847298 
	C311.115540,51.599163 298.202850,51.688354 285.333466,51.688354 
	C285.333466,58.142521 285.333466,64.033867 285.333466,69.858749 
	C287.473602,70.048759 289.274780,70.208672 291.519165,70.407936 
	C290.983704,72.179222 290.597412,73.742233 290.043518,75.243385 
	C286.430145,85.036011 282.629181,94.762703 279.206573,104.621025 
	C277.500946,109.533852 276.076599,114.245468 269.315674,112.825058 
	C269.315674,119.765526 269.315674,126.188362 269.315674,132.643341 
	C281.087067,132.643341 292.617737,132.643341 304.070068,132.643341 
	C304.070068,125.990021 304.070068,119.696892 304.070068,113.477829 
	C302.511078,112.891533 301.143097,112.377075 299.775116,111.862617 
	C307.687561,110.931320 315.410675,110.924744 323.133331,110.978378 
	C323.288269,110.979454 323.438293,111.683548 322.776550,112.399193 
M707.023315,100.444336 
	C702.335571,87.143990 697.646423,73.844131 692.960571,60.543114 
	C689.839966,51.685162 689.842102,51.684414 680.416809,51.684414 
	C670.003296,51.684414 659.589783,51.684414 649.250000,51.684414 
	C649.250000,58.170509 649.250000,64.051033 649.250000,69.829399 
	C651.378296,70.063873 653.142029,70.258179 655.264343,70.492004 
	C654.856812,71.897026 654.607849,72.990097 654.226196,74.034706 
	C650.416504,84.462662 646.364624,94.809219 642.857056,105.337326 
	C641.220154,110.250633 639.179810,113.786591 633.340332,112.809532 
	C633.340332,119.761559 633.340332,126.319771 633.340332,132.669250 
	C645.090088,132.669250 656.495605,132.669250 667.907532,132.669250 
	C667.907532,126.032936 667.907532,119.730103 667.907532,113.461121 
	C666.244507,112.908043 664.709717,112.397606 663.174866,111.887161 
	C663.247437,111.648979 663.320007,111.410805 663.392517,111.172623 
	C671.435608,111.172623 679.478699,111.172623 687.521790,111.172623 
	C687.553955,111.448265 687.586182,111.723900 687.618408,111.999542 
	C686.120178,112.421410 684.621887,112.843285 683.162109,113.254318 
	C683.162109,119.838005 683.162109,126.257149 683.162109,133.001831 
	C689.041809,133.001831 694.672363,133.001831 700.302856,133.001831 
	C706.081360,133.001831 711.859802,133.001831 717.803589,133.001831 
	C717.803589,126.089417 717.803589,119.653404 717.803589,112.759476 
	C711.701172,113.971184 709.904968,110.133018 708.809082,105.389938 
	C708.476135,103.948746 707.774414,102.592751 707.023315,100.444336 
M382.072357,53.304375 
	C368.884125,59.109505 361.846985,68.984116 361.957886,83.623657 
	C362.008301,90.279709 361.851105,96.939865 362.025665,103.591927 
	C362.422882,118.726707 374.441711,132.467545 389.502899,132.536606 
	C399.209076,132.581116 406.274719,136.072693 413.037933,141.923126 
	C413.844208,142.620605 414.818146,143.124298 416.073700,143.955795 
	C420.393982,139.313110 424.569702,134.825775 428.899170,130.173233 
	C426.760529,127.844894 424.310944,125.178040 422.984802,123.734291 
	C425.278076,116.624153 428.222900,110.562752 429.024231,104.230110 
	C430.018707,96.370903 429.380524,88.283821 429.189789,80.301331 
	C428.954132,70.439850 424.293884,62.793270 416.407104,57.194710 
	C406.029053,49.827717 394.495300,50.674366 382.072357,53.304375 
z"/>
<path fill="#ffffff" opacity="1.000000" stroke="none" 
	d="
M75.255493,11.756090 
	C80.049400,17.753340 76.962097,23.935835 76.486107,29.886612 
	C75.906158,37.137119 74.813896,44.346642 73.915184,51.806644 
	C87.075203,51.806644 99.835251,51.806644 112.777222,51.806644 
	C113.862473,41.393433 114.914803,31.118063 116.011391,20.847416 
	C116.582146,15.501619 122.684341,10.967195 127.813179,12.012960 
	C133.577377,13.188279 136.403275,18.420158 135.396622,24.319555 
	C133.860657,33.321007 132.948608,42.428925 131.705490,52.001076 
	C140.193161,52.001076 148.158020,51.793808 156.105164,52.079132 
	C160.841751,52.249184 166.293961,52.376900 168.608765,57.391872 
	C169.886475,60.159943 170.025848,64.128403 169.098145,67.054764 
	C168.117752,70.147285 165.204071,72.155602 161.186386,72.072662 
	C150.571030,71.853508 139.948166,71.998436 129.426392,71.998436 
	C127.987061,84.765564 126.596481,97.100204 125.142021,110.001564 
	C133.436356,110.001564 141.721420,109.897926 150.001938,110.047035 
	C153.909500,110.117401 157.836472,110.483406 161.703644,111.058395 
	C166.021194,111.700348 168.395111,116.294975 167.998093,122.604691 
	C167.746307,126.606293 164.254150,129.947357 159.987442,129.975327 
	C149.324097,130.045258 138.656097,130.166534 127.998039,129.919144 
	C123.471062,129.814072 122.444191,131.653381 121.830406,135.889191 
	C120.484627,145.176529 122.396500,155.233673 116.865173,163.527298 
	C115.344086,165.808014 111.167198,167.425598 108.230301,167.393494 
	C103.856956,167.345703 99.325897,165.653717 100.019318,159.571228 
	C101.126465,149.859573 102.348633,140.161026 103.551125,130.217468 
	C91.091599,130.217468 78.817101,130.217468 66.191193,130.217468 
	C65.460571,137.836731 65.022240,145.503677 63.921001,153.074203 
	C62.668129,161.687088 60.767712,165.435226 53.452419,165.954987 
	C47.479164,166.379410 43.863567,163.326004 44.124187,157.349487 
	C44.438709,150.136932 45.661865,142.963806 46.497360,135.774277 
	C46.701332,134.019073 46.927258,132.266403 47.206360,129.998444 
	C38.330875,129.998444 29.876081,130.007019 21.421314,129.995544 
	C15.347404,129.987305 13.158550,127.989197 12.266288,121.691231 
	C11.648019,117.327225 15.406424,111.458916 19.765751,111.086273 
	C27.634800,110.413612 35.553818,110.319214 43.453045,110.010933 
	C45.105629,109.946442 46.762882,110.001564 48.999100,110.001564 
	C50.395554,97.431160 51.777550,84.990906 53.220867,71.998650 
	C42.044865,71.998650 31.262384,72.004761 20.479919,71.996193 
	C14.670007,71.991577 11.309050,68.956764 10.595278,63.106564 
	C10.073025,58.826084 13.738656,53.399113 18.312740,52.797565 
	C23.535460,52.110718 28.862335,52.117634 34.147430,52.027832 
	C40.957676,51.912109 47.771381,51.999653 55.044048,51.999653 
	C55.712849,45.763950 56.444893,39.765739 56.974613,33.749706 
	C57.435856,28.511354 57.563446,23.243547 58.028545,18.005632 
	C58.637268,11.150274 65.700104,7.130290 71.925087,9.982036 
	C72.952217,10.452578 73.955780,10.974555 75.255493,11.756090 
M94.496719,71.998001 
	C87.048225,71.998001 79.599731,71.998001 72.180740,71.998001 
	C70.888443,84.865868 69.647621,97.221191 68.383202,109.811401 
	C81.153694,109.811401 93.418198,109.811401 105.994926,109.811401 
	C107.423363,97.225105 108.837357,84.766098 110.286423,71.997986 
	C104.782776,71.997986 100.139023,71.997986 94.496719,71.998001 
z"/>
<path fill="#ffffff" opacity="1.000000" stroke="none" 
	d="
M538.070435,133.001968 
	C535.596436,133.001968 533.613953,133.001968 531.315369,133.001968 
	C531.315369,126.441422 531.315369,120.060555 531.315369,113.197243 
	C538.272827,114.335793 538.499695,110.222908 538.335632,104.946587 
	C538.000549,94.173775 538.235168,83.383247 538.235168,72.364670 
	C535.693298,72.076370 533.610596,71.840149 531.281128,71.575928 
	C531.281128,64.908752 531.281128,58.508038 531.281128,51.686871 
	C542.492554,51.686871 553.597717,51.585159 564.695129,51.831608 
	C565.912170,51.858631 567.598328,53.661186 568.192383,55.021996 
	C571.367371,62.294682 574.264526,69.688698 577.566040,77.797882 
	C580.703247,70.043968 583.764465,62.893478 586.461304,55.608082 
	C587.540894,52.691414 588.908875,51.516720 592.169678,51.589725 
	C602.619934,51.823685 613.078674,51.676659 623.766602,51.676659 
	C623.766602,58.399765 623.766602,64.810547 623.766602,71.504951 
	C621.649475,71.766624 619.706543,72.006767 617.344727,72.298691 
	C617.344727,85.429947 617.344727,98.649620 617.344727,112.448814 
	C619.147644,112.705353 621.223694,113.000740 623.649780,113.345947 
	C623.649780,119.702766 623.649780,126.096336 623.649780,132.749298 
	C612.294556,132.749298 600.898132,132.749298 589.249023,132.749298 
	C589.249023,126.279366 589.249023,119.871002 589.249023,113.366859 
	C591.531616,112.941734 593.740234,112.530373 595.873596,112.133034 
	C595.873596,100.881546 595.873596,90.028282 595.873596,79.175026 
	C595.672607,79.140793 595.471619,79.106567 595.270691,79.072334 
	C592.206421,87.198891 588.989319,95.272789 586.161255,103.480705 
	C585.179321,106.330544 583.856079,107.384315 580.880981,107.140068 
	C577.576904,106.868797 574.233459,107.077972 570.381348,107.077972 
	C566.854492,97.817131 563.300171,88.484169 559.297668,77.974319 
	C559.297668,90.069427 559.297668,100.987839 559.297668,112.214020 
	C561.309448,112.542374 563.422424,112.887245 565.822754,113.279022 
	C565.822754,119.592926 565.822754,126.014381 565.822754,133.001968 
	C556.761414,133.001968 547.661682,133.001968 538.070435,133.001968 
z"/>
<path fill="#ffffff" opacity="1.000000" stroke="none" 
	d="
M189.127335,132.970062 
	C188.187088,126.601128 187.738022,120.258446 187.268448,113.626137 
	C190.046539,113.017471 192.389954,112.504044 194.842010,111.966812 
	C194.842010,98.852661 194.842010,85.889236 194.842010,72.948326 
	C187.703156,70.612961 187.703033,70.612961 187.702194,62.298771 
	C187.701859,58.995499 187.702148,55.692223 187.702148,51.835934 
	C190.603210,51.835934 193.208099,51.835468 195.812988,51.836014 
	C208.800568,51.838734 221.788818,51.928074 234.775558,51.825932 
	C258.947968,51.635818 262.291260,66.142357 260.615265,82.299942 
	C259.638794,91.713646 254.366470,98.581703 245.249802,101.959480 
	C246.501663,110.463272 251.166382,114.497337 260.043762,112.918251 
	C260.043762,119.831627 260.043762,126.102242 260.043762,132.982498 
	C252.097809,132.982498 243.993698,133.080231 235.899017,132.848465 
	C234.974228,132.821976 233.765137,131.094070 233.261047,129.910873 
	C230.205460,122.738777 226.906967,115.628059 224.515915,108.229774 
	C222.929993,103.322762 220.345184,102.007759 215.501633,103.314529 
	C215.501633,105.971832 215.501633,108.735527 215.501633,111.871399 
	C217.803558,112.304977 220.184845,112.753510 222.723572,113.231689 
	C222.723572,119.598129 222.723572,125.900818 222.723572,132.996323 
	C211.749161,132.996323 200.683838,132.996323 189.127335,132.970062 
M224.560379,82.587753 
	C228.543213,82.574219 232.528732,82.645782 236.508026,82.520111 
	C239.670425,82.420242 241.105392,80.239136 240.586472,77.500740 
	C240.220444,75.569107 238.671768,72.401352 237.485367,72.323883 
	C230.133362,71.843819 222.734451,72.082413 215.466034,72.082413 
	C215.466034,75.847908 215.466034,78.935448 215.466034,82.575432 
	C218.342041,82.575432 220.968338,82.575432 224.560379,82.587753 
z"/>
<path fill="#ffffff" opacity="1.000000" stroke="none" 
	d="
M792.913452,51.406662 
	C795.860413,51.406696 798.321045,51.406696 800.992920,51.406696 
	C800.992920,58.175129 800.992920,64.448006 800.992920,70.871262 
	C791.881409,71.907341 787.963379,80.041374 781.659607,84.892975 
	C781.077332,85.341156 781.240540,87.338402 781.643677,88.392120 
	C784.192200,95.052902 786.783386,101.704742 789.669189,108.222862 
	C790.245239,109.524086 792.021057,110.663712 793.480530,111.119736 
	C795.804382,111.845840 798.327271,111.935135 800.984192,112.325829 
	C800.984192,119.001404 800.984192,125.617775 800.984192,132.995743 
	C793.236389,132.995743 785.334229,133.118790 777.446106,132.842392 
	C776.442932,132.807251 775.128174,130.833481 774.610840,129.503754 
	C771.015381,120.262360 767.592590,110.953835 763.840942,100.936615 
	C760.512878,104.752396 757.589844,108.103828 754.078064,112.130203 
	C757.236084,112.617264 759.458496,112.960022 761.831665,113.326042 
	C761.831665,119.660416 761.831665,125.962967 761.831665,132.635681 
	C750.406433,132.635681 738.882935,132.635681 727.128235,132.635681 
	C727.128235,126.371002 727.128235,120.116013 727.128235,113.559113 
	C729.327393,113.125175 731.531372,112.690285 733.849060,112.232971 
	C733.849060,98.878563 733.849060,85.775642 733.849060,72.411102 
	C731.672424,72.078773 729.604858,71.763100 727.234070,71.401123 
	C727.234070,64.833885 727.234070,58.427338 727.234070,51.710770 
	C738.579590,51.710770 749.985107,51.710770 761.698730,51.710770 
	C761.698730,57.986179 761.698730,64.230072 761.698730,70.929604 
	C759.703430,71.354141 757.500671,71.822830 754.945251,72.366554 
	C754.945251,76.564636 754.945251,80.917107 754.945251,85.743187 
	C759.445435,80.756111 763.612732,76.138000 767.586426,71.734406 
	C763.833740,66.080109 767.323853,58.733395 765.788147,51.406631 
	C775.186096,51.406631 783.806519,51.406631 792.913452,51.406662 
z"/>
<path fill="#ffffff" opacity="1.000000" stroke="none" 
	d="
M453.000549,54.094147 
	C453.874634,52.954075 454.740967,51.750923 455.619049,51.742279 
	C467.442657,51.625832 479.271118,51.549458 491.088593,51.848293 
	C492.525726,51.884636 494.634705,53.895428 495.200958,55.441986 
	C501.303589,72.110718 507.268616,88.832520 513.007996,105.629768 
	C514.514709,110.039566 515.991394,113.765694 521.827026,112.728722 
	C521.827026,119.566734 521.827026,125.997383 521.827026,132.715942 
	C510.403442,132.715942 498.999115,132.715942 487.295227,132.715942 
	C487.295227,126.373260 487.295227,119.958290 487.295227,113.325294 
	C488.718719,112.857605 490.305084,112.336395 491.891479,111.815178 
	C491.831635,111.568993 491.771790,111.322800 491.711945,111.076614 
	C483.806580,111.076614 475.901215,111.076614 467.995880,111.076614 
	C467.928925,111.352730 467.861969,111.628853 467.795044,111.904968 
	C469.193176,112.422630 470.591339,112.940300 472.120300,113.506393 
	C472.120300,119.785431 472.120300,126.083031 472.120300,132.691940 
	C460.594177,132.691940 449.047485,132.691940 437.296143,132.691940 
	C437.296143,126.098320 437.296143,119.668564 437.296143,112.780403 
	C443.709381,114.014626 445.463379,109.987419 447.156586,105.000336 
	C451.033051,93.582649 455.439209,82.344810 459.856506,70.423439 
	C457.406158,70.212105 455.501373,70.047821 452.998291,69.831940 
	C452.998291,64.805466 452.998291,59.695919 453.000549,54.094147 
M482.900238,83.655701 
	C481.977051,81.090286 481.053833,78.524872 479.760101,74.929749 
	C477.888031,80.565590 476.379303,85.107613 474.789673,89.893204 
	C478.335999,89.893204 481.409851,89.893204 484.733307,89.893204 
	C484.098541,87.883537 483.554382,86.160736 482.900238,83.655701 
z"/>
<path fill="#ffffff" opacity="1.000000" stroke="none" 
	d="
M323.183563,112.229424 
	C323.438293,111.683548 323.288269,110.979454 323.133331,110.978378 
	C315.410675,110.924744 307.687561,110.931320 299.775116,111.862617 
	C301.143097,112.377075 302.511078,112.891533 304.070068,113.477829 
	C304.070068,119.696892 304.070068,125.990021 304.070068,132.643341 
	C292.617737,132.643341 281.087067,132.643341 269.315674,132.643341 
	C269.315674,126.188362 269.315674,119.765526 269.315674,112.825058 
	C276.076599,114.245468 277.500946,109.533852 279.206573,104.621025 
	C282.629181,94.762703 286.430145,85.036011 290.043518,75.243385 
	C290.597412,73.742233 290.983704,72.179222 291.519165,70.407936 
	C289.274780,70.208672 287.473602,70.048759 285.333466,69.858749 
	C285.333466,64.033867 285.333466,58.142521 285.333466,51.688354 
	C298.202850,51.688354 311.115540,51.599163 324.021790,51.847298 
	C325.127472,51.868557 326.682098,53.953083 327.197632,55.379353 
	C333.288086,72.229034 339.272736,89.117676 345.156342,106.040855 
	C346.597168,110.184967 347.831757,114.185287 353.780334,112.490623 
	C353.780334,119.532471 353.780334,125.954300 353.780334,132.690399 
	C342.444458,132.690399 331.041840,132.690399 319.317444,132.690399 
	C319.317444,126.425362 319.317444,120.013969 319.317444,113.243629 
	C320.320770,112.998695 321.548645,112.698944 323.183563,112.229424 
M314.420471,90.126190 
	C315.056335,89.664368 316.310089,89.025040 316.235992,88.767174 
	C314.993195,84.441124 313.584625,80.162689 311.832001,74.682671 
	C309.886963,80.513206 308.374664,85.046387 306.678894,90.129646 
	C309.279938,90.129646 311.383209,90.129646 314.420471,90.126190 
z"/>
<path fill="#ffffff" opacity="1.000000" stroke="none" 
	d="
M707.132446,100.821037 
	C707.774414,102.592751 708.476135,103.948746 708.809082,105.389938 
	C709.904968,110.133018 711.701172,113.971184 717.803589,112.759476 
	C717.803589,119.653404 717.803589,126.089417 717.803589,133.001831 
	C711.859802,133.001831 706.081360,133.001831 700.302856,133.001831 
	C694.672363,133.001831 689.041809,133.001831 683.162109,133.001831 
	C683.162109,126.257149 683.162109,119.838005 683.162109,113.254318 
	C684.621887,112.843285 686.120178,112.421410 687.618408,111.999542 
	C687.586182,111.723900 687.553955,111.448265 687.521790,111.172623 
	C679.478699,111.172623 671.435608,111.172623 663.392517,111.172623 
	C663.320007,111.410805 663.247437,111.648979 663.174866,111.887161 
	C664.709717,112.397606 666.244507,112.908043 667.907532,113.461121 
	C667.907532,119.730103 667.907532,126.032936 667.907532,132.669250 
	C656.495605,132.669250 645.090088,132.669250 633.340332,132.669250 
	C633.340332,126.319771 633.340332,119.761559 633.340332,112.809532 
	C639.179810,113.786591 641.220154,110.250633 642.857056,105.337326 
	C646.364624,94.809219 650.416504,84.462662 654.226196,74.034706 
	C654.607849,72.990097 654.856812,71.897026 655.264343,70.492004 
	C653.142029,70.258179 651.378296,70.063873 649.250000,69.829399 
	C649.250000,64.051033 649.250000,58.170509 649.250000,51.684414 
	C659.589783,51.684414 670.003296,51.684414 680.416809,51.684414 
	C689.842102,51.684414 689.839966,51.685162 692.960571,60.543114 
	C697.646423,73.844131 702.335571,87.143990 707.132446,100.821037 
M673.963379,79.603058 
	C672.865295,82.957184 671.767212,86.311317 670.594604,89.893112 
	C674.204407,89.893112 677.120178,89.893112 680.481323,89.893112 
	C679.621521,87.214386 678.882751,84.880699 678.122620,82.554001 
	C677.349731,80.188072 676.555542,77.829063 675.596924,74.944183 
	C674.916809,76.706932 674.503113,77.779121 673.963379,79.603058 
z"/>
<path fill="#ffffff" opacity="1.000000" stroke="none" 
	d="
M382.456238,53.185120 
	C394.495300,50.674366 406.029053,49.827717 416.407104,57.194710 
	C424.293884,62.793270 428.954132,70.439850 429.189789,80.301331 
	C429.380524,88.283821 430.018707,96.370903 429.024231,104.230110 
	C428.222900,110.562752 425.278076,116.624153 422.984802,123.734291 
	C424.310944,125.178040 426.760529,127.844894 428.899170,130.173233 
	C424.569702,134.825775 420.393982,139.313110 416.073700,143.955795 
	C414.818146,143.124298 413.844208,142.620605 413.037933,141.923126 
	C406.274719,136.072693 399.209076,132.581116 389.502899,132.536606 
	C374.441711,132.467545 362.422882,118.726707 362.025665,103.591927 
	C361.851105,96.939865 362.008301,90.279709 361.957886,83.623657 
	C361.846985,68.984116 368.884125,59.109505 382.456238,53.185120 
M395.537109,73.255859 
	C386.668060,73.520203 383.854858,76.301239 383.831360,84.894051 
	C383.815491,90.700851 383.867584,96.507828 383.853058,102.314644 
	C383.842560,106.515549 386.180634,109.344513 389.762665,110.641785 
	C392.142090,111.503517 394.999573,111.185699 397.640472,111.157120 
	C404.129852,111.086914 407.418793,107.914139 407.608765,101.387077 
	C407.767975,95.916412 407.667572,90.437462 407.643982,84.962349 
	C407.607727,76.554459 404.864136,73.717133 395.537109,73.255859 
z"/>
<path fill="transparent" opacity="1.000000" stroke="none" 
	d="
M94.995987,71.997993 
	C100.139023,71.997986 104.782776,71.997986 110.286423,71.997986 
	C108.837357,84.766098 107.423363,97.225105 105.994926,109.811401 
	C93.418198,109.811401 81.153694,109.811401 68.383202,109.811401 
	C69.647621,97.221191 70.888443,84.865868 72.180740,71.998001 
	C79.599731,71.998001 87.048225,71.998001 94.995987,71.997993 
z"/>
<path fill="transparent" opacity="1.000000" stroke="none" 
	d="
M224.077515,82.581589 
	C220.968338,82.575432 218.342041,82.575432 215.466034,82.575432 
	C215.466034,78.935448 215.466034,75.847908 215.466034,72.082413 
	C222.734451,72.082413 230.133362,71.843819 237.485367,72.323883 
	C238.671768,72.401352 240.220444,75.569107 240.586472,77.500740 
	C241.105392,80.239136 239.670425,82.420242 236.508026,82.520111 
	C232.528732,82.645782 228.543213,82.574219 224.077515,82.581589 
z"/>
<path fill="transparent" opacity="1.000000" stroke="none" 
	d="
M482.955231,84.046814 
	C483.554382,86.160736 484.098541,87.883537 484.733307,89.893204 
	C481.409851,89.893204 478.335999,89.893204 474.789673,89.893204 
	C476.379303,85.107613 477.888031,80.565590 479.760101,74.929749 
	C481.053833,78.524872 481.977051,81.090286 482.955231,84.046814 
z"/>
<path fill="transparent" opacity="1.000000" stroke="none" 
	d="
M313.953491,90.127914 
	C311.383209,90.129646 309.279938,90.129646 306.678894,90.129646 
	C308.374664,85.046387 309.886963,80.513206 311.832001,74.682671 
	C313.584625,80.162689 314.993195,84.441124 316.235992,88.767174 
	C316.310089,89.025040 315.056335,89.664368 313.953491,90.127914 
z"/>
<path fill="transparent" opacity="1.000000" stroke="none" 
	d="
M674.026367,79.227188 
	C674.503113,77.779121 674.916809,76.706932 675.596924,74.944183 
	C676.555542,77.829063 677.349731,80.188072 678.122620,82.554001 
	C678.882751,84.880699 679.621521,87.214386 680.481323,89.893112 
	C677.120178,89.893112 674.204407,89.893112 670.594604,89.893112 
	C671.767212,86.311317 672.865295,82.957184 674.026367,79.227188 
z"/>
<path fill="transparent" opacity="1.000000" stroke="none" 
	d="
M395.961914,73.255768 
	C404.864136,73.717133 407.607727,76.554459 407.643982,84.962349 
	C407.667572,90.437462 407.767975,95.916412 407.608765,101.387077 
	C407.418793,107.914139 404.129852,111.086914 397.640472,111.157120 
	C394.999573,111.185699 392.142090,111.503517 389.762665,110.641785 
	C386.180634,109.344513 383.842560,106.515549 383.853058,102.314644 
	C383.867584,96.507828 383.815491,90.700851 383.831360,84.894051 
	C383.854858,76.301239 386.668060,73.520203 395.961914,73.255768 
z"/>
</svg>