<?xml version="1.0" encoding="UTF-8"?>
<!DOCTYPE svg PUBLIC "-//W3C//DTD SVG 1.1//EN" "http://www.w3.org/Graphics/SVG/1.1/DTD/svg11.dtd">
<svg xmlns="http://www.w3.org/2000/svg" version="1.1" width="427px" height="411px" style="shape-rendering:geometricPrecision; text-rendering:geometricPrecision; image-rendering:optimizeQuality; fill-rule:evenodd; clip-rule:evenodd" xmlns:xlink="http://www.w3.org/1999/xlink">
<g><path style="opacity:1" fill="#fefefe" d="M -0.5,-0.5 C 141.833,-0.5 284.167,-0.5 426.5,-0.5C 426.5,136.5 426.5,273.5 426.5,410.5C 284.167,410.5 141.833,410.5 -0.5,410.5C -0.5,273.5 -0.5,136.5 -0.5,-0.5 Z"/></g>
<g><path style="opacity:1" fill="#1f3151" d="M 202.5,15.5 C 282.973,15.2493 342.806,49.9159 382,119.5C 410.673,181.626 409.006,242.959 377,303.5C 332.895,372.301 269.729,403.467 187.5,397C 132.369,388.528 88.2026,362.028 55,317.5C 15.8526,256.544 10.186,192.544 38,125.5C 72.8738,58.9801 127.707,22.3134 202.5,15.5 Z"/></g>
<g><path style="opacity:1" fill="#fefefe" d="M 198.5,51.5 C 274.641,50.1252 327.808,84.1252 358,153.5C 371.37,195.453 369.037,236.453 351,276.5C 346.372,285.596 340.872,294.096 334.5,302C 333.5,302.667 332.5,302.667 331.5,302C 259.861,229.361 187.861,157.027 115.5,85C 139.868,65.4924 167.534,54.3258 198.5,51.5 Z"/></g>
<g><path style="opacity:1" fill="#fefefe" d="M 89.5,110.5 C 162.132,182.632 234.632,254.965 307,327.5C 307.617,328.449 307.451,329.282 306.5,330C 266.887,359.258 222.887,368.591 174.5,358C 128.362,345.351 94.1958,317.851 72,275.5C 46.0713,216.865 51.9046,161.865 89.5,110.5 Z"/></g>
</svg>
