<?xml version="1.0" encoding="UTF-8"?>
<svg version="1.1" xmlns="http://www.w3.org/2000/svg" width="432" height="410">
<path d="M0 0 C142.56 0 285.12 0 432 0 C432 135.3 432 270.6 432 410 C289.44 410 146.88 410 0 410 C0 274.7 0 139.4 0 0 Z " fill="transparent" transform="translate(0,0)"/>
<path d="M0 0 C142.56 0 285.12 0 432 0 C432 135.3 432 270.6 432 410 C289.44 410 146.88 410 0 410 C0 274.7 0 139.4 0 0 Z M170 27 C170 27.99 170 28.98 170 30 C169.01 30 168.02 30 167 30 C167 30.66 167 31.32 167 32 C166.4225 32.061875 165.845 32.12375 165.25 32.1875 C162.07551517 33.33384174 160.87151425 35.25956842 159 38 C159 38.66 159 39.32 159 40 C158.34 40 157.68 40 157 40 C157 40.99 157 41.98 157 43 C156.01 43 155.02 43 154 43 C154 43.66 154 44.32 154 45 C153.01 45.33 152.02 45.66 151 46 C151 46.66 151 47.32 151 48 C150.34 48 149.68 48 149 48 C149 48.99 149 49.98 149 51 C148.01 51 147.02 51 146 51 C146 51.66 146 52.32 146 53 C145.34 53 144.68 53 144 53 C144 53.99 144 54.98 144 56 C143.01 56 142.02 56 141 56 C141 56.66 141 57.32 141 58 C140.34 58 139.68 58 139 58 C139 58.99 139 59.98 139 61 C138.01 61 137.02 61 136 61 C136 61.99 136 62.98 136 64 C135.4225 64.0825 134.845 64.165 134.25 64.25 C131.3460664 65.21797787 129.96259396 66.68694284 128 69 C128 69.66 128 70.32 128 71 C127.34 71 126.68 71 126 71 C126 71.99 126 72.98 126 74 C125.01 74 124.02 74 123 74 C121.27056525 75.31267956 121.27056525 75.31267956 120 77 C120 77.66 120 78.32 120 79 C119.34 79 118.68 79 118 79 C118 79.99 118 80.98 118 82 C117.01 82 116.02 82 115 82 C115 82.66 115 83.32 115 84 C114.34 84 113.68 84 113 84 C113 84.99 113 85.98 113 87 C112.01 87 111.02 87 110 87 C110 87.66 110 88.32 110 89 C109.34 89 108.68 89 108 89 C108 89.99 108 90.98 108 92 C106.35 92.33 104.7 92.66 103 93 C102.505 94.98 102.505 94.98 102 97 C101.34 97 100.68 97 100 97 C100 97.99 100 98.98 100 100 C99.01 100 98.02 100 97 100 C97 100.66 97 101.32 97 102 C96.34 102 95.68 102 95 102 C95 102.99 95 103.98 95 105 C93.35 105.33 91.7 105.66 90 106 C89.505 107.98 89.505 107.98 89 110 C88.34 110 87.68 110 87 110 C87 110.99 87 111.98 87 113 C86.01 113 85.02 113 84 113 C84 113.66 84 114.32 84 115 C83.34 115 82.68 115 82 115 C82 115.99 82 116.98 82 118 C81.01 118 80.02 118 79 118 C79 118.66 79 119.32 79 120 C77.515 120.495 77.515 120.495 76 121 C76 121.66 76 122.32 76 123 C75.34 123 74.68 123 74 123 C74 123.99 74 124.98 74 126 C73.01 126 72.02 126 71 126 C71 126.66 71 127.32 71 128 C70.34 128 69.68 128 69 128 C69 128.99 69 129.98 69 131 C68.01 131 67.02 131 66 131 C66 131.66 66 132.32 66 133 C53.46 133.33 40.92 133.66 28 134 C28 134.66 28 135.32 28 136 C25.03 136.495 25.03 136.495 22 137 C22 137.66 22 138.32 22 139 C19.525 139.495 19.525 139.495 17 140 C17 140.66 17 141.32 17 142 C16.34 142 15.68 142 15 142 C12.68407978 145.22114157 12.68407978 145.22114157 12 149 C11.34 149 10.68 149 10 149 C9.67 150.98 9.34 152.96 9 155 C8.34 155 7.68 155 7 155 C6.94583259 157.72943537 6.90624775 160.45778564 6.875 163.1875 C6.85824219 163.95642578 6.84148438 164.72535156 6.82421875 165.51757812 C6.7877487 169.76633884 6.88083108 173.18401401 9 177 C9.66 177.33 10.32 177.66 11 178 C11.33 178.99 11.66 179.98 12 181 C12.66 181 13.32 181 14 181 C14.33 182.32 14.66 183.64 15 185 C15.66 185 16.32 185 17 185 C17 185.99 17 186.98 17 188 C17.99 188 18.98 188 20 188 C20 188.66 20 189.32 20 190 C21.65 190.33 23.3 190.66 25 191 C25 191.66 25 192.32 25 193 C26.65 193 28.3 193 30 193 C30.06058594 193.98742187 30.12117188 194.97484375 30.18359375 195.9921875 C30.26738281 197.27351562 30.35117187 198.55484375 30.4375 199.875 C30.51871094 201.15117187 30.59992187 202.42734375 30.68359375 203.7421875 C30.79206027 206.88300152 30.79206027 206.88300152 32 209 C32.22950319 211.204364 32.41075933 213.41392173 32.5625 215.625 C32.64628906 216.81351563 32.73007812 218.00203125 32.81640625 219.2265625 C32.90728516 220.59941406 32.90728516 220.59941406 33 222 C33.66 222 34.32 222 35 222 C34.98839844 223.18335938 34.97679688 224.36671875 34.96484375 225.5859375 C34.90927062 233.79860372 34.94693599 241.83875394 36 250 C36.66 250 37.32 250 38 250 C37.97679688 251.00417969 37.95359375 252.00835937 37.9296875 253.04296875 C37.80696074 260.77665737 38.13255523 268.03893713 39.4921875 275.6796875 C40.26944224 280.76173775 40.49496965 285.84929648 40.75390625 290.98046875 C40.80446431 293.91982878 40.80446431 293.91982878 42 296 C42.2275015 297.87056791 42.40962811 299.74685958 42.5625 301.625 C42.64628906 302.62789063 42.73007812 303.63078125 42.81640625 304.6640625 C42.87699219 305.43492187 42.93757813 306.20578125 43 307 C43.66 307 44.32 307 45 307 C44.98839844 307.69480469 44.97679687 308.38960938 44.96484375 309.10546875 C44.87033661 319.75777322 45.43292035 330.36574842 46 341 C46.66 341 47.32 341 48 341 C48 343.64 48 346.28 48 349 C48.66 349 49.32 349 50 349 C49.98839844 349.680625 49.97679687 350.36125 49.96484375 351.0625 C49.8840013 359.74728887 50.38478793 368.34308733 51 377 C51.66 377 52.32 377 53 377 C53.33 379.64 53.66 382.28 54 385 C54.66 385 55.32 385 56 385 C56.33 386.65 56.66 388.3 57 390 C57.66 390 58.32 390 59 390 C59 390.66 59 391.32 59 392 C62.05558423 395.02517909 62.05558423 395.02517909 66 396 C66 396.66 66 397.32 66 398 C66.99 398 67.98 398 69 398 C69 398.66 69 399.32 69 400 C69.99 400 70.98 400 72 400 C72 400.66 72 401.32 72 402 C75.36859623 402.75628195 78.47739079 403.12517185 81.92728424 403.12584114 C83.38494272 403.12975276 83.38494272 403.12975276 84.87204885 403.13374341 C85.93186673 403.13151268 86.9916846 403.12928196 88.08361816 403.12698364 C89.78145061 403.12932363 89.78145061 403.12932363 91.51358271 403.13171089 C95.31440684 403.13570629 99.11519118 403.13253685 102.91601562 403.12939453 C105.63767072 403.13019901 108.35932412 403.1324933 111.08097839 403.13470459 C117.71079152 403.13915264 124.34059332 403.1381901 130.97040689 403.13529195 C136.3583087 403.13303414 141.74620735 403.13272704 147.1341095 403.13381577 C147.9007635 403.133969 148.6674175 403.13412223 149.45730343 403.13428011 C151.01471611 403.13459983 152.57212878 403.13492404 154.12954146 403.1352527 C168.73551952 403.13810466 183.34149131 403.1348249 197.94746834 403.12945233 C210.48174636 403.12498455 223.01601512 403.12576056 235.55029297 403.13037109 C250.1037904 403.13572185 264.65728234 403.13783 279.21078062 403.13475883 C280.76248391 403.13444028 282.31418721 403.13412591 283.8658905 403.13381577 C284.62937055 403.13366149 285.39285059 403.13350721 286.1794664 403.13334826 C291.56128074 403.13248462 296.94309159 403.13394272 302.3249054 403.13629532 C308.8829718 403.13909907 315.44102624 403.13834287 321.99909127 403.13301457 C325.34549713 403.13038535 328.69186648 403.1298971 332.03827477 403.13266373 C335.66433053 403.13538569 339.2903297 403.13198114 342.91638184 403.12698364 C344.50610864 403.13032973 344.50610864 403.13032973 346.12795115 403.13374341 C347.09972347 403.13113566 348.07149579 403.12852791 349.07271576 403.12584114 C349.90956705 403.12567879 350.74641833 403.12551644 351.60862875 403.12534916 C354.1524059 402.9920113 356.51740008 402.55736734 359 402 C359 401.01 359 400.02 359 399 C360.65 398.67 362.3 398.34 364 398 C364 397.34 364 396.68 364 396 C364.99 396 365.98 396 367 396 C368.72943475 394.68732044 368.72943475 394.68732044 370 393 C370 392.34 370 391.68 370 391 C370.99 390.67 371.98 390.34 373 390 C374.21869929 387.49552484 374.21869929 387.49552484 375 385 C375.66 385 376.32 385 377 385 C377 384.01 377 383.02 377 382 C377.66 382 378.32 382 379 382 C379.13277344 381.08476562 379.26554687 380.16953125 379.40234375 379.2265625 C379.57894531 378.03804688 379.75554687 376.84953125 379.9375 375.625 C380.19853516 373.84996094 380.19853516 373.84996094 380.46484375 372.0390625 C381 369 381 369 382 367 C382.07033769 365.12620395 382.0843022 363.24998898 382.0625 361.375 C382.05347656 360.37210937 382.04445313 359.36921875 382.03515625 358.3359375 C382.02355469 357.56507813 382.01195312 356.79421875 382 356 C382.66 356 383.32 356 384 356 C384.07516846 354.60261597 384.07516846 354.60261597 384.15185547 353.17700195 C384.34434988 349.65601291 384.54264495 346.13544296 384.74462891 342.61499023 C384.83021798 341.10339752 384.91362244 339.59167921 384.99462891 338.07983398 C385.45253397 329.56336517 386.17619332 321.26631507 387.58544922 312.84301758 C388.15547187 308.93376328 388.22596664 305.12908232 388.125 301.1875 C388.11146484 300.13079102 388.11146484 300.13079102 388.09765625 299.05273438 C388.0747392 297.36833093 388.03891396 295.68410981 388 294 C388.66 294 389.32 294 390 294 C392.09661685 279.28297103 393.17174984 264.86590324 393 250 C393.66 250 394.32 250 395 250 C397.37041499 236.35285353 398.21008354 222.84217094 398 209 C398.66 209 399.32 209 400 209 C400.33 203.72 400.66 198.44 401 193 C402.65 193 404.3 193 406 193 C406 192.34 406 191.68 406 191 C407.65 190.67 409.3 190.34 411 190 C411 189.34 411 188.68 411 188 C411.99 187.67 412.98 187.34 414 187 C414 186.34 414 185.68 414 185 C414.66 185 415.32 185 416 185 C416.33 183.68 416.66 182.36 417 181 C417.66 181 418.32 181 419 181 C419 180.01 419 179.02 419 178 C419.66 178 420.32 178 421 178 C421.33 176.02 421.66 174.04 422 172 C422.66 172 423.32 172 424 172 C424.34937193 163.74447081 423.94397288 156.7629761 421 149 C420.34 149 419.68 149 419 149 C418.5978125 147.8553125 418.5978125 147.8553125 418.1875 146.6875 C417.04204753 144.09516021 416.23584819 142.69924463 414 141 C413.01 141 412.02 141 411 141 C411 140.34 411 139.68 411 139 C409.35 138.67 407.7 138.34 406 138 C406 137.34 406 136.68 406 136 C401.71965863 133.92003872 397.74957206 133.661165 393.07421875 133.5859375 C392.32662796 133.56657135 391.57903717 133.5472052 390.80879211 133.5272522 C388.43514194 133.46776082 386.06144246 133.42119408 383.6875 133.375 C382.07224518 133.33679211 380.45701013 133.29773875 378.84179688 133.2578125 C374.8946929 133.1620847 370.94749361 133.07794233 367 133 C366.67 132.34 366.34 131.68 366 131 C365.34 131 364.68 131 364 131 C364 130.34 364 129.68 364 129 C362.66666667 127.33333333 362.66666667 127.33333333 361 126 C360.34 126 359.68 126 359 126 C359 125.34 359 124.68 359 124 C357.35 123.67 355.7 123.34 354 123 C354 122.01 354 121.02 354 120 C353.34 120 352.68 120 352 120 C352 119.34 352 118.68 352 118 C351.01 118 350.02 118 349 118 C349 117.01 349 116.02 349 115 C348.01 115 347.02 115 346 115 C346 114.34 346 113.68 346 113 C345.34 113 344.68 113 344 113 C344 112.01 344 111.02 344 110 C343.01 110 342.02 110 341 110 C341 109.01 341 108.02 341 107 C340.34 107 339.68 107 339 107 C339 106.34 339 105.68 339 105 C338.01 105 337.02 105 336 105 C335.67 103.35 335.34 101.7 335 100 C334.34 100 333.68 100 333 100 C333 99.34 333 98.68 333 98 C331.66666667 96.33333333 331.66666667 96.33333333 330 95 C329.34 95 328.68 95 328 95 C328 94.34 328 93.68 328 93 C326.66666667 91.33333333 326.66666667 91.33333333 325 90 C324.34 90 323.68 90 323 90 C322.67 89.01 322.34 88.02 322 87 C321.34 87 320.68 87 320 87 C320 86.34 320 85.68 320 85 C318.66666667 83.33333333 318.66666667 83.33333333 317 82 C316.34 82 315.68 82 315 82 C315 81.34 315 80.68 315 80 C311.94441577 76.97482091 311.94441577 76.97482091 308 76 C307.9071875 75.13375 307.9071875 75.13375 307.8125 74.25 C306.66615826 71.07551517 304.74043158 69.87151425 302 68 C301.34 68 300.68 68 300 68 C300 67.34 300 66.68 300 66 C299.01 66 298.02 66 297 66 C297 65.01 297 64.02 297 63 C296.34 63 295.68 63 295 63 C295 62.34 295 61.68 295 61 C294.01 61 293.02 61 292 61 C292 60.01 292 59.02 292 58 C291.01 58 290.02 58 289 58 C289 57.34 289 56.68 289 56 C288.34 56 287.68 56 287 56 C287 55.01 287 54.02 287 53 C286.01 53 285.02 53 284 53 C284 52.01 284 51.02 284 50 C283.34 50 282.68 50 282 50 C281.67 48.68 281.34 47.36 281 46 C279.68 45.67 278.36 45.34 277 45 C276.896875 44.401875 276.79375 43.80375 276.6875 43.1875 C275.90175967 40.68741714 275.03081147 39.62464918 273 38 C272.34 38 271.68 38 271 38 C271 37.34 271 36.68 271 36 C267.94441577 32.97482091 267.94441577 32.97482091 264 32 C263.67 30.68 263.34 29.36 263 28 C261.35 27.67 259.7 27.34 258 27 C258 26.34 258 25.68 258 25 C255.00490772 24.7432778 253.07369375 24.97152742 250.25 26.0625 C247.6643886 27.91225498 247.6643886 27.91225498 247.125 31.5 C246.79660511 34.97295906 246.79660511 34.97295906 248 38 C248.66 38 249.32 38 250 38 C250.33 38.99 250.66 39.98 251 41 C251.66 41 252.32 41 253 41 C253 41.66 253 42.32 253 43 C253.66 43 254.32 43 255 43 C255.33 43.99 255.66 44.98 256 46 C256.66 46 257.32 46 258 46 C258 46.66 258 47.32 258 48 C259.33333333 49.66666667 259.33333333 49.66666667 261 51 C261.66 51 262.32 51 263 51 C263 51.66 263 52.32 263 53 C264.33333333 54.66666667 264.33333333 54.66666667 266 56 C266.66 56 267.32 56 268 56 C268.33 56.99 268.66 57.98 269 59 C269.66 59 270.32 59 271 59 C271 59.66 271 60.32 271 61 C272.33333333 62.66666667 272.33333333 62.66666667 274 64 C274.66 64 275.32 64 276 64 C276 64.66 276 65.32 276 66 C277.33333333 67.66666667 277.33333333 67.66666667 279 69 C279.66 69 280.32 69 281 69 C281.33 69.99 281.66 70.98 282 72 C282.66 72 283.32 72 284 72 C284 72.66 284 73.32 284 74 C285.33333333 75.66666667 285.33333333 75.66666667 287 77 C287.66 77 288.32 77 289 77 C289 77.66 289 78.32 289 79 C290.33333333 80.66666667 290.33333333 80.66666667 292 82 C292.66 82 293.32 82 294 82 C294.33 82.99 294.66 83.98 295 85 C295.66 85 296.32 85 297 85 C297 85.66 297 86.32 297 87 C297.66 87 298.32 87 299 87 C299.33 87.99 299.66 88.98 300 90 C300.66 90 301.32 90 302 90 C302 90.66 302 91.32 302 92 C303.33333333 93.66666667 303.33333333 93.66666667 305 95 C305.66 95 306.32 95 307 95 C307.33 95.99 307.66 96.98 308 98 C308.66 98 309.32 98 310 98 C310 98.66 310 99.32 310 100 C310.66 100 311.32 100 312 100 C312.33 100.99 312.66 101.98 313 103 C313.66 103 314.32 103 315 103 C315 103.66 315 104.32 315 105 C316.33333333 106.66666667 316.33333333 106.66666667 318 108 C318.66 108 319.32 108 320 108 C320 108.66 320 109.32 320 110 C321.33333333 111.66666667 321.33333333 111.66666667 323 113 C323.66 113 324.32 113 325 113 C325.33 113.99 325.66 114.98 326 116 C326.66 116 327.32 116 328 116 C328 116.66 328 117.32 328 118 C329.33333333 119.66666667 329.33333333 119.66666667 331 121 C331.66 121 332.32 121 333 121 C333 121.66 333 122.32 333 123 C334.33333333 124.66666667 334.33333333 124.66666667 336 126 C336.66 126 337.32 126 338 126 C338.33 126.99 338.66 127.98 339 129 C339.66 129 340.32 129 341 129 C341 129.66 341 130.32 341 131 C341.66 131 342.32 131 343 131 C343 131.66 343 132.32 343 133 C258.52 133.33 174.04 133.66 87 134 C87.99 133.01 88.98 132.02 90 131 C90 130.34 90 129.68 90 129 C90.66 129 91.32 129 92 129 C93.35386936 127.34997172 94.68678142 125.6825613 96 124 C96.66 123.67 97.32 123.34 98 123 C98 122.34 98 121.68 98 121 C98.66 121 99.32 121 100 121 C101.66666667 119.66666667 101.66666667 119.66666667 103 118 C103 117.34 103 116.68 103 116 C104.32 115.67 105.64 115.34 107 115 C107.103125 114.360625 107.20625 113.72125 107.3125 113.0625 C107.539375 112.381875 107.76625 111.70125 108 111 C108.99 110.67 109.98 110.34 111 110 C111 109.34 111 108.68 111 108 C111.66 108 112.32 108 113 108 C114.66666667 106.66666667 114.66666667 106.66666667 116 105 C116 104.34 116 103.68 116 103 C117.32 102.67 118.64 102.34 120 102 C120.495 100.02 120.495 100.02 121 98 C122.32 97.67 123.64 97.34 125 97 C125.103125 96.360625 125.20625 95.72125 125.3125 95.0625 C125.539375 94.381875 125.76625 93.70125 126 93 C126.99 92.67 127.98 92.34 129 92 C129 91.34 129 90.68 129 90 C130.32 89.67 131.64 89.34 133 89 C133.33 87.68 133.66 86.36 134 85 C135.32 84.67 136.64 84.34 138 84 C138.1546875 83.0409375 138.1546875 83.0409375 138.3125 82.0625 C138.6528125 81.0415625 138.6528125 81.0415625 139 80 C139.99 79.67 140.98 79.34 142 79 C142 78.34 142 77.68 142 77 C143.32 76.67 144.64 76.34 146 76 C146.33 74.68 146.66 73.36 147 72 C148.32 71.67 149.64 71.34 151 71 C151.1546875 70.0409375 151.1546875 70.0409375 151.3125 69.0625 C151.6528125 68.0415625 151.6528125 68.0415625 152 67 C152.99 66.67 153.98 66.34 155 66 C155 65.34 155 64.68 155 64 C156.32 63.67 157.64 63.34 159 63 C159.33 61.68 159.66 60.36 160 59 C161.32 58.67 162.64 58.34 164 58 C164.1546875 57.0409375 164.1546875 57.0409375 164.3125 56.0625 C164.6528125 55.0415625 164.6528125 55.0415625 165 54 C165.99 53.67 166.98 53.34 168 53 C168 52.34 168 51.68 168 51 C168.66 51 169.32 51 170 51 C171.66666667 49.66666667 171.66666667 49.66666667 173 48 C173 47.34 173 46.68 173 46 C174.98 45.505 174.98 45.505 177 45 C177.33 43.68 177.66 42.36 178 41 C178.639375 40.87625 179.27875 40.7525 179.9375 40.625 C180.618125 40.41875 181.29875 40.2125 182 40 C183.26237731 37.47524538 183.09856404 35.68799534 183.0625 32.875 C183.05347656 31.96492188 183.04445312 31.05484375 183.03515625 30.1171875 C183.02355469 29.41851562 183.01195312 28.71984375 183 28 C182.01 27.67 181.02 27.34 180 27 C180 26.34 180 25.68 180 25 C174.67829506 24.70437633 174.67829506 24.70437633 170 27 Z " fill="transparent" transform="translate(0,0)"/>
<path d="M0 0 C0 0.66 0 1.32 0 2 C0.99 2.33 1.98 2.66 3 3 C3.08121924 4.60332791 3.13929134 6.20784026 3.1875 7.8125 C3.22230469 8.70582031 3.25710937 9.59914063 3.29296875 10.51953125 C3 13 3 13 1.61328125 14.82421875 C0 16 0 16 -2 16 C-2.33 17.32 -2.66 18.64 -3 20 C-4.98 20.495 -4.98 20.495 -7 21 C-7 21.66 -7 22.32 -7 23 C-8.375 24.625 -8.375 24.625 -10 26 C-10.66 26 -11.32 26 -12 26 C-12.33 26.99 -12.66 27.98 -13 29 C-13.66 29 -14.32 29 -15 29 C-15.33 30.32 -15.66 31.64 -16 33 C-17.32 33.33 -18.64 33.66 -20 34 C-20.33 35.32 -20.66 36.64 -21 38 C-21.9590625 38.1546875 -21.9590625 38.1546875 -22.9375 38.3125 C-23.618125 38.539375 -24.29875 38.76625 -25 39 C-25.33 39.99 -25.66 40.98 -26 42 C-26.66 42 -27.32 42 -28 42 C-28.33 43.32 -28.66 44.64 -29 46 C-30.32 46.33 -31.64 46.66 -33 47 C-33.33 48.32 -33.66 49.64 -34 51 C-34.9590625 51.1546875 -34.9590625 51.1546875 -35.9375 51.3125 C-36.618125 51.539375 -37.29875 51.76625 -38 52 C-38.33 52.99 -38.66 53.98 -39 55 C-39.66 55 -40.32 55 -41 55 C-41.33 56.32 -41.66 57.64 -42 59 C-43.32 59.33 -44.64 59.66 -46 60 C-46.33 61.32 -46.66 62.64 -47 64 C-47.639375 64.103125 -48.27875 64.20625 -48.9375 64.3125 C-49.618125 64.539375 -50.29875 64.76625 -51 65 C-51.495 66.485 -51.495 66.485 -52 68 C-52.66 68 -53.32 68 -54 68 C-54.495 69.98 -54.495 69.98 -55 72 C-56.32 72.33 -57.64 72.66 -59 73 C-59.495 74.98 -59.495 74.98 -60 77 C-61.32 77.33 -62.64 77.66 -64 78 C-64 78.66 -64 79.32 -64 80 C-65.375 81.625 -65.375 81.625 -67 83 C-67.66 83 -68.32 83 -69 83 C-69.495 84.485 -69.495 84.485 -70 86 C-70.66 86 -71.32 86 -72 86 C-72.495 87.98 -72.495 87.98 -73 90 C-74.32 90.33 -75.64 90.66 -77 91 C-77 91.66 -77 92.32 -77 93 C-78.375 94.625 -78.375 94.625 -80 96 C-80.66 96 -81.32 96 -82 96 C-82 96.66 -82 97.32 -82 98 C-83.65002828 99.35386936 -85.3174387 100.68678142 -87 102 C-87.33 102.66 -87.66 103.32 -88 104 C-88.66 104 -89.32 104 -90 104 C-90 104.66 -90 105.32 -90 106 C-90.99 106.99 -91.98 107.98 -93 109 C33.72 108.505 33.72 108.505 163 108 C163 107.34 163 106.68 163 106 C162.34 106 161.68 106 161 106 C161 105.34 161 104.68 161 104 C160.01 103.67 159.02 103.34 158 103 C158 102.34 158 101.68 158 101 C157.34 101 156.68 101 156 101 C154.375 99.625 154.375 99.625 153 98 C153 97.34 153 96.68 153 96 C152.34 96 151.68 96 151 96 C149.375 94.625 149.375 94.625 148 93 C148 92.34 148 91.68 148 91 C147.01 90.67 146.02 90.34 145 90 C145 89.34 145 88.68 145 88 C144.34 88 143.68 88 143 88 C141.375 86.625 141.375 86.625 140 85 C140 84.34 140 83.68 140 83 C139.34 83 138.68 83 138 83 C136.375 81.625 136.375 81.625 135 80 C135 79.34 135 78.68 135 78 C134.01 77.67 133.02 77.34 132 77 C132 76.34 132 75.68 132 75 C131.34 75 130.68 75 130 75 C130 74.34 130 73.68 130 73 C129.01 72.67 128.02 72.34 127 72 C127 71.34 127 70.68 127 70 C126.34 70 125.68 70 125 70 C123.375 68.625 123.375 68.625 122 67 C122 66.34 122 65.68 122 65 C121.01 64.67 120.02 64.34 119 64 C119 63.34 119 62.68 119 62 C118.34 62 117.68 62 117 62 C117 61.34 117 60.68 117 60 C116.01 59.67 115.02 59.34 114 59 C114 58.34 114 57.68 114 57 C113.34 57 112.68 57 112 57 C110.375 55.625 110.375 55.625 109 54 C109 53.34 109 52.68 109 52 C108.34 52 107.68 52 107 52 C105.375 50.625 105.375 50.625 104 49 C104 48.34 104 47.68 104 47 C103.01 46.67 102.02 46.34 101 46 C101 45.34 101 44.68 101 44 C100.34 44 99.68 44 99 44 C97.375 42.625 97.375 42.625 96 41 C96 40.34 96 39.68 96 39 C95.34 39 94.68 39 94 39 C92.375 37.625 92.375 37.625 91 36 C91 35.34 91 34.68 91 34 C90.01 33.67 89.02 33.34 88 33 C88 32.34 88 31.68 88 31 C87.34 31 86.68 31 86 31 C84.375 29.625 84.375 29.625 83 28 C83 27.34 83 26.68 83 26 C82.34 26 81.68 26 81 26 C79.375 24.625 79.375 24.625 78 23 C78 22.34 78 21.68 78 21 C77.01 20.67 76.02 20.34 75 20 C75 19.34 75 18.68 75 18 C74.34 18 73.68 18 73 18 C73 17.34 73 16.68 73 16 C72.01 15.67 71.02 15.34 70 15 C70 14.34 70 13.68 70 13 C69.34 13 68.68 13 68 13 C66.6516129 5.52258065 66.6516129 5.52258065 68.25 3.125 C68.8275 2.75375 69.405 2.3825 70 2 C70.99 1.34 71.98 0.68 73 0 C75.6875 -0.125 75.6875 -0.125 78 0 C78 0.66 78 1.32 78 2 C79.65 2.33 81.3 2.66 83 3 C83.33 4.32 83.66 5.64 84 7 C84.598125 7.103125 85.19625 7.20625 85.8125 7.3125 C88.31258286 8.09824033 89.37535082 8.96918853 91 11 C91 11.66 91 12.32 91 13 C91.66 13 92.32 13 93 13 C97 17.47058824 97 17.47058824 97 20 C98.32 20.33 99.64 20.66 101 21 C101.33 22.32 101.66 23.64 102 25 C102.66 25 103.32 25 104 25 C104 25.99 104 26.98 104 28 C104.99 28 105.98 28 107 28 C107 28.99 107 29.98 107 31 C107.66 31 108.32 31 109 31 C109 31.66 109 32.32 109 33 C109.99 33 110.98 33 112 33 C112 33.99 112 34.98 112 36 C112.99 36 113.98 36 115 36 C115 36.66 115 37.32 115 38 C115.66 38 116.32 38 117 38 C117 38.99 117 39.98 117 41 C117.99 41 118.98 41 120 41 C120 41.66 120 42.32 120 43 C120.86625 43.0928125 120.86625 43.0928125 121.75 43.1875 C124.92448483 44.33384174 126.12848575 46.25956842 128 49 C128 49.66 128 50.32 128 51 C128.598125 51.103125 129.19625 51.20625 129.8125 51.3125 C132.31258286 52.09824033 133.37535082 52.96918853 135 55 C135 55.66 135 56.32 135 57 C135.66 57 136.32 57 137 57 C138.625 58.375 138.625 58.375 140 60 C140 60.66 140 61.32 140 62 C140.99 62.33 141.98 62.66 143 63 C143 63.66 143 64.32 143 65 C143.66 65 144.32 65 145 65 C146.625 66.375 146.625 66.375 148 68 C148 68.66 148 69.32 148 70 C148.66 70 149.32 70 150 70 C151.625 71.375 151.625 71.375 153 73 C153 73.66 153 74.32 153 75 C153.99 75.33 154.98 75.66 156 76 C156 77.32 156 78.64 156 80 C156.99 80 157.98 80 159 80 C159 80.66 159 81.32 159 82 C159.66 82 160.32 82 161 82 C161 82.99 161 83.98 161 85 C161.99 85 162.98 85 164 85 C164 85.99 164 86.98 164 88 C164.66 88 165.32 88 166 88 C166 88.66 166 89.32 166 90 C166.99 90 167.98 90 169 90 C169 90.99 169 91.98 169 93 C169.99 93 170.98 93 172 93 C172 93.66 172 94.32 172 95 C172.66 95 173.32 95 174 95 C174 95.99 174 96.98 174 98 C175.65 98.33 177.3 98.66 179 99 C179 99.66 179 100.32 179 101 C179.66 101 180.32 101 181 101 C182.625 102.375 182.625 102.375 184 104 C184 104.66 184 105.32 184 106 C184.66 106 185.32 106 186 106 C186.33 106.66 186.66 107.32 187 108 C188.00377686 108.01981934 189.00755371 108.03963867 190.04174805 108.06005859 C193.77864966 108.13633749 197.51517317 108.22501986 201.25170898 108.31738281 C202.8665417 108.35558072 204.48145684 108.39044945 206.09643555 108.421875 C208.42266217 108.46772609 210.74832592 108.52568584 213.07421875 108.5859375 C213.79212082 108.59748871 214.51002289 108.60903992 215.24967957 108.62094116 C219.24658602 108.73767501 222.39334769 109.24740681 226 111 C226 111.66 226 112.32 226 113 C227.65 113.33 229.3 113.66 231 114 C231 114.66 231 115.32 231 116 C232.1446875 116.0928125 232.1446875 116.0928125 233.3125 116.1875 C236 117 236 117 237.8125 119.4375 C239 122 239 122 239 124 C239.66 124 240.32 124 241 124 C243.94397288 131.7629761 244.34937193 138.74447081 244 147 C243.34 147 242.68 147 242 147 C241.67 148.98 241.34 150.96 241 153 C240.34 153 239.68 153 239 153 C239 153.99 239 154.98 239 156 C238.34 156 237.68 156 237 156 C236.67 157.32 236.34 158.64 236 160 C235.34 160 234.68 160 234 160 C233.67 160.99 233.34 161.98 233 163 C232.34 163 231.68 163 231 163 C231 163.66 231 164.32 231 165 C229.35 165.33 227.7 165.66 226 166 C226 166.66 226 167.32 226 168 C224.35 168 222.7 168 221 168 C220.67 173.28 220.34 178.56 220 184 C219.34 184 218.68 184 218 184 C218.01160156 184.76441406 218.02320313 185.52882812 218.03515625 186.31640625 C218.14519342 199.37939036 217.23619432 212.12559969 215 225 C214.34 225 213.68 225 213 225 C213.02320313 225.94617188 213.04640625 226.89234375 213.0703125 227.8671875 C213.23291153 237.71640314 212.47450684 247.2514539 211.24365234 257.01757812 C210.7536995 261.00396802 210.38684655 265.00258563 210 269 C209.34 269 208.68 269 208 269 C208.03480469 270.50626953 208.03480469 270.50626953 208.0703125 272.04296875 C208.08910846 273.42447157 208.10730444 274.80598265 208.125 276.1875 C208.14175781 276.84169922 208.15851563 277.49589844 208.17578125 278.16992188 C208.21722342 282.54207131 207.78420137 286.65505132 207.0625 290.96875 C205.73743298 299.05495092 205.31283829 307.14100777 204.875 315.3125 C204.78833292 316.84313148 204.7010966 318.37373084 204.61328125 319.90429688 C204.40231358 323.60251877 204.19897163 327.30111095 204 331 C203.34 331 202.68 331 202 331 C202.02320313 331.67804688 202.04640625 332.35609375 202.0703125 333.0546875 C202.19844481 339.66265365 201.50090394 345.58007514 200 352 C199.6617332 353.66567238 199.32709734 355.33209826 199 357 C198.34 357 197.68 357 197 357 C197 357.99 197 358.98 197 360 C196.34 360 195.68 360 195 360 C194.731875 360.804375 194.46375 361.60875 194.1875 362.4375 C193.795625 363.283125 193.40375 364.12875 193 365 C192.01 365.33 191.02 365.66 190 366 C190 366.66 190 367.32 190 368 C188.6875 369.625 188.6875 369.625 187 371 C186.01 371 185.02 371 184 371 C184 371.66 184 372.32 184 373 C182.35 373.33 180.7 373.66 179 374 C179 374.99 179 375.98 179 377 C175.63140377 377.75628195 172.52260921 378.12517185 169.07271576 378.12584114 C168.10094344 378.12844889 167.12917111 378.13105664 166.12795115 378.13374341 C164.53822434 378.13039732 164.53822434 378.13039732 162.91638184 378.12698364 C161.78449354 378.12854363 160.65260524 378.13010362 159.48641729 378.13171089 C155.68559316 378.13570629 151.88480882 378.13253685 148.08398438 378.12939453 C145.36232928 378.13019901 142.64067588 378.1324933 139.91902161 378.13470459 C133.28920848 378.13915264 126.65940668 378.1381901 120.02959311 378.13529195 C114.6416913 378.13303414 109.25379265 378.13272704 103.8658905 378.13381577 C102.7159095 378.13404561 102.7159095 378.13404561 101.54269657 378.13428011 C99.98528389 378.13459983 98.42787122 378.13492404 96.87045854 378.1352527 C82.26448048 378.13810466 67.65850869 378.1348249 53.05253166 378.12945233 C40.51825364 378.12498455 27.98398488 378.12576056 15.44970703 378.13037109 C0.8962096 378.13572185 -13.65728234 378.13783 -28.21078062 378.13475883 C-29.76248391 378.13444028 -31.31418721 378.13412591 -32.8658905 378.13381577 C-33.62937055 378.13366149 -34.39285059 378.13350721 -35.1794664 378.13334826 C-40.56128074 378.13248462 -45.94309159 378.13394272 -51.3249054 378.13629532 C-57.8829718 378.13909907 -64.44102624 378.13834287 -70.99909127 378.13301457 C-74.34549713 378.13038535 -77.69186648 378.1298971 -81.03827477 378.13266373 C-84.66433053 378.13538569 -88.2903297 378.13198114 -91.91638184 378.12698364 C-92.97619971 378.12921436 -94.03601758 378.13144509 -95.12795115 378.13374341 C-96.58560963 378.12983178 -96.58560963 378.12983178 -98.07271576 378.12584114 C-98.90956705 378.12567879 -99.74641833 378.12551644 -100.60862875 378.12534916 C-103.1524059 377.9920113 -105.51740008 377.55736734 -108 377 C-108 376.34 -108 375.68 -108 375 C-108.99 375 -109.98 375 -111 375 C-111 374.34 -111 373.68 -111 373 C-111.99 373 -112.98 373 -114 373 C-114 372.34 -114 371.68 -114 371 C-114.598125 370.896875 -115.19625 370.79375 -115.8125 370.6875 C-118.31258286 369.90175967 -119.37535082 369.03081147 -121 367 C-121 366.34 -121 365.68 -121 365 C-121.66 365 -122.32 365 -123 365 C-123.33 363.35 -123.66 361.7 -124 360 C-124.66 360 -125.32 360 -126 360 C-126.33 357.36 -126.66 354.72 -127 352 C-127.66 352 -128.32 352 -129 352 C-129.66433182 342.65190221 -130.1598655 333.37877608 -130 324 C-130.66 324 -131.32 324 -132 324 C-132 321.36 -132 318.72 -132 316 C-132.66 316 -133.32 316 -134 316 C-134.60465428 304.66112404 -135.18966094 293.35858317 -135 282 C-135.66 282 -136.32 282 -137 282 C-137.06058594 281.22914063 -137.12117188 280.45828125 -137.18359375 279.6640625 C-137.26738281 278.66117187 -137.35117188 277.65828125 -137.4375 276.625 C-137.51871094 275.62726563 -137.59992188 274.62953125 -137.68359375 273.6015625 C-137.84965626 271.02072387 -137.84965626 271.02072387 -139 269 C-139.20901857 267.3211382 -139.36784071 265.63587213 -139.5 263.94921875 C-139.5825 262.94052734 -139.665 261.93183594 -139.75 260.89257812 C-139.8325 259.83490234 -139.915 258.77722656 -140 257.6875 C-140.16401335 255.60786196 -140.33059305 253.52842438 -140.5 251.44921875 C-140.5721875 250.52455811 -140.644375 249.59989746 -140.71875 248.6472168 C-140.95843119 245.99664817 -140.95843119 245.99664817 -141.52514648 243.40869141 C-142.2270129 239.84847853 -142.10446421 236.29965034 -142.0625 232.6875 C-142.05798828 231.94693359 -142.05347656 231.20636719 -142.04882812 230.44335938 C-142.03712175 228.62887101 -142.01918898 226.81442466 -142 225 C-142.66 225 -143.32 225 -144 225 C-145.20514375 215.66013591 -145.09213655 206.39792784 -145 197 C-145.66 197 -146.32 197 -147 197 C-147.09087891 195.62714844 -147.09087891 195.62714844 -147.18359375 194.2265625 C-147.26738281 193.03804687 -147.35117188 191.84953125 -147.4375 190.625 C-147.55931641 188.84996094 -147.55931641 188.84996094 -147.68359375 187.0390625 C-147.81084936 184.08481099 -147.81084936 184.08481099 -149 182 C-149.23029956 179.62876754 -149.41119942 177.25258057 -149.5625 174.875 C-149.64628906 173.59367188 -149.73007813 172.31234375 -149.81640625 170.9921875 C-149.87699219 170.00476563 -149.93757813 169.01734375 -150 168 C-151.65 168 -153.3 168 -155 168 C-155 167.34 -155 166.68 -155 166 C-156.65 165.67 -158.3 165.34 -160 165 C-160 164.34 -160 163.68 -160 163 C-160.99 163 -161.98 163 -163 163 C-163 162.01 -163 161.02 -163 160 C-163.66 160 -164.32 160 -165 160 C-165.33 158.68 -165.66 157.36 -166 156 C-166.66 156 -167.32 156 -168 156 C-168.33 155.01 -168.66 154.02 -169 153 C-169.99 152.34 -170.98 151.68 -172 151 C-172.99013879 148.28536652 -173.11940483 145.76143721 -173.09765625 142.890625 C-173.09443359 142.13652344 -173.09121094 141.38242188 -173.08789062 140.60546875 C-173.07951172 139.82816406 -173.07113281 139.05085937 -173.0625 138.25 C-173.05798828 137.45722656 -173.05347656 136.66445312 -173.04882812 135.84765625 C-173.03708565 133.89840492 -173.01915146 131.94919262 -173 130 C-172.34 130 -171.68 130 -171 130 C-170.67 128.02 -170.34 126.04 -170 124 C-169.34 124 -168.68 124 -168 124 C-167.5359375 122.824375 -167.5359375 122.824375 -167.0625 121.625 C-166 119 -166 119 -165 117 C-164.34 117 -163.68 117 -163 117 C-163 116.34 -163 115.68 -163 115 C-160.525 114.505 -160.525 114.505 -158 114 C-158 113.34 -158 112.68 -158 112 C-155.03 111.505 -155.03 111.505 -152 111 C-152 110.34 -152 109.68 -152 109 C-139.46 108.67 -126.92 108.34 -114 108 C-114 107.34 -114 106.68 -114 106 C-113.01 106 -112.02 106 -111 106 C-111 105.01 -111 104.02 -111 103 C-110.34 103 -109.68 103 -109 103 C-109 102.34 -109 101.68 -109 101 C-108.01 101 -107.02 101 -106 101 C-106 100.01 -106 99.02 -106 98 C-105.34 98 -104.68 98 -104 98 C-103.505 96.515 -103.505 96.515 -103 95 C-102.34 95 -101.68 95 -101 95 C-101 94.34 -101 93.68 -101 93 C-100.01 93 -99.02 93 -98 93 C-98 92.01 -98 91.02 -98 90 C-97.34 90 -96.68 90 -96 90 C-96 89.34 -96 88.68 -96 88 C-95.01 88 -94.02 88 -93 88 C-93 87.01 -93 86.02 -93 85 C-92.34 85 -91.68 85 -91 85 C-90.505 83.02 -90.505 83.02 -90 81 C-88.35 80.67 -86.7 80.34 -85 80 C-85 79.01 -85 78.02 -85 77 C-84.34 77 -83.68 77 -83 77 C-83 76.34 -83 75.68 -83 75 C-82.01 75 -81.02 75 -80 75 C-80 74.01 -80 73.02 -80 72 C-79.34 72 -78.68 72 -78 72 C-77.505 70.02 -77.505 70.02 -77 68 C-75.35 67.67 -73.7 67.34 -72 67 C-72 66.01 -72 65.02 -72 64 C-71.34 64 -70.68 64 -70 64 C-70 63.34 -70 62.68 -70 62 C-69.01 62 -68.02 62 -67 62 C-67 61.01 -67 60.02 -67 59 C-66.34 59 -65.68 59 -65 59 C-65 58.34 -65 57.68 -65 57 C-64.01 57 -63.02 57 -62 57 C-62 56.01 -62 55.02 -62 54 C-61.34 54 -60.68 54 -60 54 C-60 53.34 -60 52.68 -60 52 C-58.6875 50.375 -58.6875 50.375 -57 49 C-56.01 49 -55.02 49 -54 49 C-54 48.01 -54 47.02 -54 46 C-53.34 46 -52.68 46 -52 46 C-51.9175 45.401875 -51.835 44.80375 -51.75 44.1875 C-50.77705573 41.34974589 -49.55550687 40.50323933 -47 39 C-46.01 39 -45.02 39 -44 39 C-44 38.01 -44 37.02 -44 36 C-43.01 36 -42.02 36 -41 36 C-41 35.01 -41 34.02 -41 33 C-40.34 33 -39.68 33 -39 33 C-39 32.34 -39 31.68 -39 31 C-38.01 31 -37.02 31 -36 31 C-36 30.01 -36 29.02 -36 28 C-35.34 28 -34.68 28 -34 28 C-34 27.34 -34 26.68 -34 26 C-33.01 26 -32.02 26 -31 26 C-31 25.01 -31 24.02 -31 23 C-30.34 23 -29.68 23 -29 23 C-28.67 22.01 -28.34 21.02 -28 20 C-27.34 20 -26.68 20 -26 20 C-26 19.34 -26 18.68 -26 18 C-25.01 18 -24.02 18 -23 18 C-23 17.01 -23 16.02 -23 15 C-22.34 15 -21.68 15 -21 15 C-20.938125 14.4225 -20.87625 13.845 -20.8125 13.25 C-19.66615826 10.07551517 -17.74043158 8.87151425 -15 7 C-14.34 7 -13.68 7 -13 7 C-13 6.34 -13 5.68 -13 5 C-12.01 5 -11.02 5 -10 5 C-10 4.01 -10 3.02 -10 2 C-6.3558226 -0.4294516 -4.28758728 -0.16179575 0 0 Z M-134 169 C-133.67 171.97 -133.34 174.94 -133 178 C-132.8118535 180.04209294 -132.63237551 182.08501883 -132.46484375 184.12890625 C-132.37783203 185.18271484 -132.29082031 186.23652344 -132.20117188 187.32226562 C-132.11416016 188.39154297 -132.02714844 189.46082031 -131.9375 190.5625 C-131.84662109 191.66658203 -131.75574219 192.77066406 -131.66210938 193.90820312 C-131.44026389 196.60537717 -131.21958591 199.30264122 -131 202 C-130.34 202 -129.68 202 -129 202 C-129.03480469 203.09441406 -129.03480469 203.09441406 -129.0703125 204.2109375 C-129.29587626 217.26141198 -127.52463561 230.01474944 -125.44140625 242.875 C-124.68546408 248.22680298 -124.33536085 253.60775059 -124 259 C-123.34 259 -122.68 259 -122 259 C-122.01595215 259.75861328 -122.0319043 260.51722656 -122.04833984 261.29882812 C-122.15085915 270.11282556 -121.52118961 278.7362997 -120.625 287.5 C-120.49867187 288.81097656 -120.37234375 290.12195313 -120.2421875 291.47265625 C-119.51907245 298.75442484 -118.58696481 305.96237107 -117.42822266 313.18701172 C-116.91359179 316.56761424 -116.59993307 319.90101504 -116.375 323.3125 C-116.30023438 324.40175781 -116.22546875 325.49101562 -116.1484375 326.61328125 C-116.09945312 327.40089844 -116.05046875 328.18851563 -116 329 C-115.34 329 -114.68 329 -114 329 C-114.03480469 329.55945313 -114.06960937 330.11890625 -114.10546875 330.6953125 C-114.366586 338.42935689 -112.81328087 345.50942307 -111 353 C-110.34 353 -109.68 353 -109 353 C-108.505 354.98 -108.505 354.98 -108 357 C-106.68 357.33 -105.36 357.66 -104 358 C-104 358.66 -104 359.32 -104 360 C-103.01 360 -102.02 360 -101 360 C-101 360.66 -101 361.32 -101 362 C-66.34058824 362.0915537 -31.68120408 362.16203778 2.97830248 362.20426132 C7.07008922 362.20926415 11.16187572 362.21444144 15.25366211 362.21972656 C16.4755646 362.22130043 16.4755646 362.22130043 17.72215199 362.22290608 C30.91240729 362.24031174 44.10259287 362.27185031 57.29280681 362.30861118 C70.82699478 362.34601615 84.36114623 362.36823491 97.89538378 362.37635398 C106.24688846 362.38184268 114.59819607 362.39917876 122.94964009 362.43166587 C128.67639642 362.45280828 134.40305084 362.45920068 140.12984336 362.45400551 C143.43407441 362.45144325 146.73788837 362.45755927 150.0420742 362.4768219 C153.62635271 362.49669501 157.20978494 362.4919479 160.79408264 362.48101807 C161.83592164 362.49266943 162.87776063 362.5043208 163.9511705 362.51632524 C170.178874 362.46492259 173.87921113 361.6032003 179 358 C179 357.01 179 356.02 179 355 C179.99 354.67 180.98 354.34 182 354 C182 352.68 182 351.36 182 350 C182.66 350 183.32 350 184 350 C184.13277344 348.90300781 184.26554687 347.80601562 184.40234375 346.67578125 C184.58062985 345.22134199 184.7590208 343.76691558 184.9375 342.3125 C185.02451172 341.59126953 185.11152344 340.87003906 185.20117188 340.12695312 C185.56372685 337.18622941 185.93412465 334.30375855 186.5625 331.40625 C187.12646968 328.30441678 187.09431706 325.33738902 187.0625 322.1875 C187.04896484 320.44533203 187.04896484 320.44533203 187.03515625 318.66796875 C187.02355469 317.78753906 187.01195312 316.90710938 187 316 C187.66 316 188.32 316 189 316 C189.79645684 307.31008699 190.12852505 298.72542301 190 290 C190.66 290 191.32 290 192 290 C192.89294397 272.00871765 192.89294397 272.00871765 193 254 C193.66 254 194.32 254 195 254 C195 249.71 195 245.42 195 241 C195.66 241 196.32 241 197 241 C197.12117188 239.69289063 197.24234375 238.38578125 197.3671875 237.0390625 C198.21385163 227.97898899 199.08229828 218.92171838 200.0625 209.875 C200.18117432 208.74892334 200.18117432 208.74892334 200.30224609 207.60009766 C200.63592369 204.58021052 201.03576791 201.89269628 202 199 C202.06802967 197.27204648 202.08495645 195.54164635 202.0625 193.8125 C202.04896484 192.46091797 202.04896484 192.46091797 202.03515625 191.08203125 C202.02355469 190.39496094 202.01195312 189.70789063 202 189 C202.66 189 203.32 189 204 189 C204.33 182.4 204.66 175.8 205 169 C93.13 169 -18.74 169 -134 169 Z "  fill="#ffffff" stroke="#ffffff" stroke-width="2"  transform="translate(180,25)"/>
<path d="M0 0 C1.27741253 -0.00199105 2.55482506 -0.0039821 3.87094706 -0.00603348 C5.29666199 -0.00318024 6.72237674 -0.00023464 8.14809132 0.00279331 C9.6562328 0.0023575 11.16437421 0.0014824 12.67251521 0.00020415 C16.82732123 -0.00203876 20.98210161 0.0019777 25.13690436 0.00698221 C29.61337607 0.01128943 34.08984627 0.00984009 38.56631947 0.00907993 C46.32562256 0.00855487 54.08491727 0.01169982 61.84421825 0.01731777 C73.06294854 0.02543517 84.28167476 0.02804824 95.50040767 0.02930576 C113.70082702 0.0314959 131.9012419 0.03815497 150.10165882 0.04760838 C167.7846013 0.05678347 185.46754257 0.06386383 203.15048695 0.06811619 C204.78468477 0.06851027 204.78468477 0.06851027 206.45189669 0.06891232 C211.91727079 0.07021733 217.38264489 0.07148105 222.848019 0.07272422 C268.20885452 0.08309566 313.56968515 0.10071295 358.93051624 0.12304783 C358.93051624 0.78304783 358.93051624 1.44304783 358.93051624 2.12304783 C360.58051624 2.45304783 362.23051624 2.78304783 363.93051624 3.12304783 C363.93051624 3.78304783 363.93051624 4.44304783 363.93051624 5.12304783 C364.92051624 5.45304783 365.91051624 5.78304783 366.93051624 6.12304783 C366.93051624 6.78304783 366.93051624 7.44304783 366.93051624 8.12304783 C367.59051624 8.12304783 368.25051624 8.12304783 368.93051624 8.12304783 C368.93051624 12.41304783 368.93051624 16.70304783 368.93051624 21.12304783 C368.27051624 21.12304783 367.61051624 21.12304783 366.93051624 21.12304783 C366.62114124 21.90679783 366.31176624 22.69054783 365.99301624 23.49804783 C364.93051624 26.12304783 364.93051624 26.12304783 363.93051624 28.12304783 C360.66163258 29.21267571 358.28639204 29.24727206 354.84541512 29.24609566 C353.56451919 29.24808671 352.28362326 29.25007775 350.96391231 29.25212914 C349.53426713 29.24927589 348.10462213 29.24633029 346.6749773 29.24330235 C345.16271102 29.24373816 343.65044481 29.24461326 342.138179 29.24589151 C337.97197144 29.24813444 333.80578944 29.24411793 329.63958514 29.23911345 C325.15084337 29.23480626 320.66210312 29.23625557 316.17335987 29.23701572 C308.39277586 29.23754079 300.61220022 29.23439582 292.83161831 29.22877789 C281.58211893 29.22066051 270.33262361 29.21804742 259.08312162 29.21678989 C240.83278798 29.21459975 222.58245879 29.20794067 204.33212757 29.19848728 C186.60068249 29.1893122 168.86923861 29.18223183 151.13779163 29.17797947 C150.04533942 29.17771675 148.95288721 29.17745402 147.82733039 29.17718334 C142.34697222 29.17587833 136.86661404 29.17461461 131.38625586 29.17337143 C85.90100623 29.16299999 40.41576147 29.14538268 -5.06948376 29.12304783 C-5.06948376 28.46304783 -5.06948376 27.80304783 -5.06948376 27.12304783 C-7.37948376 26.79304783 -9.68948376 26.46304783 -12.06948376 26.12304783 C-12.06948376 25.46304783 -12.06948376 24.80304783 -12.06948376 24.12304783 C-12.72948376 24.12304783 -13.38948376 24.12304783 -14.06948376 24.12304783 C-15.08122174 21.08783389 -15.2352189 18.92571704 -15.25698376 15.74804783 C-15.27116344 14.81218845 -15.28534313 13.87632908 -15.29995251 12.91211033 C-15.05286126 9.9218875 -14.41385215 7.79773199 -13.06948376 5.12304783 C-10.94448376 3.81054783 -10.94448376 3.81054783 -9.06948376 3.12304783 C-9.06948376 2.46304783 -9.06948376 1.80304783 -9.06948376 1.12304783 C-5.80488807 0.03484927 -3.43618128 -0.00117798 0 0 Z " fill="transparent" transform="translate(39.06948375701904,148.87695217132568)"/>
<path d="M0 0 C0.33 0.99 0.66 1.98 1 3 C1.66 3 2.32 3 3 3 C3.07008023 20.77620412 3.12298332 38.5523724 3.15543652 56.32868481 C3.1709056 64.58253281 3.19199587 72.83629498 3.22631836 81.09008789 C3.2562195 88.2840734 3.27557471 95.47799674 3.28226548 102.67204267 C3.28617655 106.48127615 3.29536882 110.2903318 3.31719017 114.09950829 C3.3375667 117.68555965 3.34383151 121.27136007 3.33932304 124.85746384 C3.34054067 126.79957531 3.35667675 128.74165951 3.3732605 130.68370056 C3.36707451 132.4231192 3.36707451 132.4231192 3.36076355 134.19767761 C3.36352893 135.20335376 3.36629431 136.2090299 3.36914349 137.24518108 C2.93486222 140.48610577 1.93623241 142.38495674 0 145 C-2.79965679 145.66913403 -5.08800141 145.23868841 -8 145 C-8 144.34 -8 143.68 -8 143 C-9.32 143 -10.64 143 -12 143 C-13.02890522 139.91328435 -13.12574126 137.8065336 -13.12698364 134.57226562 C-13.12980347 133.44498047 -13.13262329 132.31769531 -13.13552856 131.15625 C-13.13350433 129.91875 -13.1314801 128.68125 -13.12939453 127.40625 C-13.13114685 126.10365234 -13.13289917 124.80105469 -13.13470459 123.45898438 C-13.13926774 119.88468498 -13.13749394 116.31041441 -13.1343255 112.7361145 C-13.13179615 108.99790366 -13.13414105 105.25969531 -13.13571167 101.52148438 C-13.13753168 95.24348507 -13.13513147 88.96549752 -13.13037109 82.6875 C-13.1249288 75.42626757 -13.12669157 68.16506323 -13.1321975 60.90383148 C-13.13673342 54.67277536 -13.13737682 48.44172771 -13.13475883 42.21067047 C-13.1331987 38.48769165 -13.13299508 34.76472603 -13.13629532 31.04174805 C-13.13971649 26.89239841 -13.13497644 22.74309728 -13.12939453 18.59375 C-13.13141876 17.35625 -13.13344299 16.11875 -13.13552856 14.84375 C-13.13270874 13.71646484 -13.12988892 12.58917969 -13.12698364 11.42773438 C-13.12660662 10.44623413 -13.12622959 9.46473389 -13.12584114 8.45349121 C-13 6 -13 6 -12 3 C-11.34 3 -10.68 3 -10 3 C-10 2.34 -10 1.68 -10 1 C-6.78548731 -0.60725635 -3.56387464 -0.05748185 0 0 Z "  fill="#ffffff" stroke="#ffffff" stroke-width="2"  transform="translate(219,216)"/>
<path d="M0 0 C6.625 -0.125 6.625 -0.125 10 1 C11.36018886 9.89354255 11.87598598 20.37204205 9 29 C8.780435 31.3545956 8.60935748 33.71382789 8.46484375 36.07421875 C8.40037804 37.09996758 8.40037804 37.09996758 8.33460999 38.1464386 C8.19846319 40.32657778 8.06791145 42.50701096 7.9375 44.6875 C7.84607191 46.16734054 7.75427934 47.64715861 7.66210938 49.12695312 C7.43717931 52.75105107 7.21726526 56.37543355 7 60 C6.34 60 5.68 60 5 60 C5.04125 61.051875 5.0825 62.10375 5.125 63.1875 C5.13358211 68.06213589 4.30401886 72.72468364 3.51171875 77.5234375 C2.70668579 82.99274542 2.34298732 88.48512498 2 94 C1.34 94 0.68 94 0 94 C0.01160156 95.14855469 0.02320313 96.29710937 0.03515625 97.48046875 C0.09895464 106.71728006 -0.08973508 115.79982246 -1 125 C-1.66 125 -2.32 125 -3 125 C-3 128.3 -3 131.6 -3 135 C-3.66 135 -4.32 135 -5 135 C-4.979375 135.94875 -4.95875 136.8975 -4.9375 137.875 C-5 141 -5 141 -6 143 C-6.66 143 -7.32 143 -8 143 C-8 143.66 -8 144.32 -8 145 C-10.64 145 -13.28 145 -16 145 C-16 144.34 -16 143.68 -16 143 C-16.66 143 -17.32 143 -18 143 C-19.49433942 140.01132117 -19.18443042 136.96273966 -19.1875 133.6875 C-19.20167969 132.37136719 -19.21585937 131.05523437 -19.23046875 129.69921875 C-19.14176154 126.03520774 -18.65232376 122.52943432 -18.05859375 118.9140625 C-16.8532305 111.52792692 -16.33563487 104.15205025 -15.875 96.6875 C-15.78828416 95.34957533 -15.70104697 94.01168434 -15.61328125 92.67382812 C-15.40375877 89.44950999 -15.19941573 86.22495624 -15 83 C-14.34 83 -13.68 83 -13 83 C-13 79.7 -13 76.4 -13 73 C-12.34 73 -11.68 73 -11 73 C-11.03480469 72.11183594 -11.06960938 71.22367187 -11.10546875 70.30859375 C-11.41558457 55.67408032 -9.22136778 41.41594146 -6.875 27 C-5.90705446 21.04951511 -5.59390715 15.13346688 -5.34375 9.1171875 C-5 6 -5 6 -3 3 C-2.34 3 -1.68 3 -1 3 C-0.67 2.01 -0.34 1.02 0 0 Z "  fill="#ffffff" stroke="#ffffff" stroke-width="2"  transform="translate(305,216)"/>
<path d="M0 0 C0 0.66 0 1.32 0 2 C0.66 2 1.32 2 2 2 C2.85695967 7.88400655 3.12539234 13.55909292 3.0625 19.5 C3.05798828 20.32242188 3.05347656 21.14484375 3.04882812 21.9921875 C3.03718489 23.99482396 3.01925556 25.99742227 3 28 C3.66 28 4.32 28 5 28 C5 30.64 5 33.28 5 36 C5.66 36 6.32 36 7 36 C7.79645684 44.68991301 8.12852505 53.27457699 8 62 C8.66 62 9.32 62 10 62 C10.04898438 62.96679688 10.09796875 63.93359375 10.1484375 64.9296875 C10.5917026 73.49894024 10.5917026 73.49894024 12.0625 81.9375 C13.64323203 88.83417531 13.1569931 95.97019796 13 103 C13.66 103 14.32 103 15 103 C15.05534912 103.77190674 15.11069824 104.54381348 15.16772461 105.33911133 C15.42032312 108.8305432 15.67884036 112.32151215 15.9375 115.8125 C16.02451172 117.02744141 16.11152344 118.24238281 16.20117188 119.49414062 C16.28818359 120.65751953 16.37519531 121.82089844 16.46484375 123.01953125 C16.543396 124.09307861 16.62194824 125.16662598 16.70288086 126.27270508 C16.91248862 129.09017158 16.91248862 129.09017158 18 132 C18.47469459 139.05061082 18.47469459 139.05061082 17 142 C16.34 142 15.68 142 15 142 C15 142.66 15 143.32 15 144 C11.7 144 8.4 144 5 144 C5 143.34 5 142.68 5 142 C4.34 142 3.68 142 3 142 C1.7937748 138.38132441 1.89183082 135.07493749 1.9375 131.3125 C1.94201172 130.61060547 1.94652344 129.90871094 1.95117188 129.18554688 C1.96293073 127.45699462 1.98086546 125.72848635 2 124 C1.34 124 0.68 124 0 124 C-0.79645684 115.31008699 -1.12852505 106.72542301 -1 98 C-1.66 98 -2.32 98 -3 98 C-3 95.36 -3 92.72 -3 90 C-3.66 90 -4.32 90 -5 90 C-5.65043638 79.6510926 -6.16494885 69.3734499 -6 59 C-6.66 59 -7.32 59 -8 59 C-11.58165209 27.473206 -11.58165209 27.473206 -11 15 C-11.66 15 -12.32 15 -13 15 C-13 10.71 -13 6.42 -13 2 C-12.34 2 -11.68 2 -11 2 C-11 1.34 -11 0.68 -11 0 C-6.94952424 -1.35015859 -4.2079832 -0.62084998 0 0 Z "  fill="#ffffff" stroke="#ffffff" stroke-width="2"  transform="translate(126,217)"/>
<path d="M0 0 C1.32 0.33 2.64 0.66 4 1 C-10.85 15.85 -25.7 30.7 -41 46 C41.5 46 124 46 209 46 C209.33 46.99 209.66 47.98 210 49 C125.19 49 40.38 49 -47 49 C-46.67 48.01 -46.34 47.02 -46 46 C-45.34 46 -44.68 46 -44 46 C-44 45.34 -44 44.68 -44 44 C-43.34 44 -42.68 44 -42 44 C-41.67 43.01 -41.34 42.02 -41 41 C-40.34 41 -39.68 41 -39 41 C-38.67 40.01 -38.34 39.02 -38 38 C-37.34 38 -36.68 38 -36 38 C-36 37.34 -36 36.68 -36 36 C-35.34 36 -34.68 36 -34 36 C-33.67 35.01 -33.34 34.02 -33 33 C-32.34 33 -31.68 33 -31 33 C-31 32.34 -31 31.68 -31 31 C-29.68 30.67 -28.36 30.34 -27 30 C-26.896875 29.401875 -26.79375 28.80375 -26.6875 28.1875 C-25.90175967 25.68741714 -25.03081147 24.62464918 -23 23 C-22.34 23 -21.68 23 -21 23 C-20.67 22.01 -20.34 21.02 -20 20 C-19.34 20 -18.68 20 -18 20 C-18 19.34 -18 18.68 -18 18 C-16.68 17.67 -15.36 17.34 -14 17 C-13.67 15.68 -13.34 14.36 -13 13 C-11.68 12.67 -10.36 12.34 -9 12 C-8.9071875 11.13375 -8.9071875 11.13375 -8.8125 10.25 C-7.66615826 7.07551517 -5.74043158 5.87151425 -3 4 C-2.34 4 -1.68 4 -1 4 C-0.67 2.68 -0.34 1.36 0 0 Z "  fill="#ffffff" stroke="#ffffff" stroke-width="2"  transform="translate(134,85)"/>
<path d="M0 0 C111.87 0 223.74 0 339 0 C338.67 6.6 338.34 13.2 338 20 C337.34 20 336.68 20 336 20 C336.02320313 20.68707031 336.04640625 21.37414062 336.0703125 22.08203125 C336.08835937 22.98308594 336.10640625 23.88414062 336.125 24.8125 C336.14820313 25.70582031 336.17140625 26.59914062 336.1953125 27.51953125 C336 30 336 30 334 33 C334.33 26.07 334.66 19.14 335 12 C335.66 12 336.32 12 337 12 C337 8.37 337 4.74 337 1 C226.45 1 115.9 1 2 1 C2 3.64 2 6.28 2 9 C-0.05164237 5.53785351 0 4.40610765 0 0 Z "  fill="#ffffff" stroke="#ffffff" stroke-width="2"  transform="translate(46,194)"/>
<path d="M0 0 C2.97 0.495 2.97 0.495 6 1 C6 1.66 6 2.32 6 3 C126.12 3 246.24 3 370 3 C370 3.33 370 3.66 370 4 C323.29743947 4.04574004 276.59488129 4.08100017 229.89230279 4.10213066 C224.38336133 4.10463219 218.87441991 4.10722082 213.36547852 4.10986328 C212.26870983 4.1103879 211.17194114 4.11091252 210.04193703 4.11145304 C192.26424239 4.12016461 174.48656064 4.13593871 156.70887365 4.15430559 C138.47836992 4.17298374 120.24787294 4.1841123 102.01736003 4.18817699 C90.76079835 4.19092639 79.50427308 4.19962185 68.2477226 4.21583293 C60.53720791 4.2263741 52.82671214 4.22960716 45.11619075 4.22700275 C40.66223303 4.22571698 36.20833911 4.22773998 31.75439262 4.23841095 C27.68142075 4.24809833 23.60855596 4.2486645 19.5355793 4.24179779 C18.05774082 4.24094832 16.57989583 4.24352354 15.10207029 4.24976636 C13.10163517 4.2577293 11.10115986 4.25229784 9.1007185 4.24609566 C7.98699877 4.2468551 6.87327904 4.24761454 5.72581023 4.24839699 C3 4 3 4 0 2 C0 1.34 0 0.68 0 0 Z " fill="#d4d4d4" transform="translate(28,175)"/>
<path d="M0 0 C1.32 0.33 2.64 0.66 4 1 C-1.95724629 7.0035127 -7.91982034 13.00166047 -13.88934135 18.9929657 C-16.66082626 21.774904 -19.43041359 24.55867882 -22.19580078 27.34667969 C-24.86280408 30.035356 -27.53461196 32.71916886 -30.2098732 35.39962769 C-31.23152739 36.42498762 -32.25141478 37.45211102 -33.26952744 38.48098755 C-34.69181146 39.91771235 -36.12088757 41.34770385 -37.55029297 42.77734375 C-38.3630368 43.59452881 -39.17578064 44.41171387 -40.01315308 45.25366211 C-42 47 -42 47 -44 47 C-44 46.01 -44 45.02 -44 44 C-43.34 44 -42.68 44 -42 44 C-41.67 43.01 -41.34 42.02 -41 41 C-40.34 41 -39.68 41 -39 41 C-38.67 40.01 -38.34 39.02 -38 38 C-37.34 38 -36.68 38 -36 38 C-36 37.34 -36 36.68 -36 36 C-35.34 36 -34.68 36 -34 36 C-33.67 35.01 -33.34 34.02 -33 33 C-32.34 33 -31.68 33 -31 33 C-31 32.34 -31 31.68 -31 31 C-29.68 30.67 -28.36 30.34 -27 30 C-26.896875 29.401875 -26.79375 28.80375 -26.6875 28.1875 C-25.90175967 25.68741714 -25.03081147 24.62464918 -23 23 C-22.34 23 -21.68 23 -21 23 C-20.67 22.01 -20.34 21.02 -20 20 C-19.34 20 -18.68 20 -18 20 C-18 19.34 -18 18.68 -18 18 C-16.68 17.67 -15.36 17.34 -14 17 C-13.67 15.68 -13.34 14.36 -13 13 C-11.68 12.67 -10.36 12.34 -9 12 C-8.9071875 11.13375 -8.9071875 11.13375 -8.8125 10.25 C-7.66615826 7.07551517 -5.74043158 5.87151425 -3 4 C-2.34 4 -1.68 4 -1 4 C-0.67 2.68 -0.34 1.36 0 0 Z "  fill="#ffffff" stroke="#ffffff" stroke-width="2"  transform="translate(134,85)"/>
<path d="M0 0 C0.66 0 1.32 0 2 0 C2.06058594 0.91523438 2.12117188 1.83046875 2.18359375 2.7734375 C2.26738281 3.96195313 2.35117187 5.15046875 2.4375 6.375 C2.51871094 7.55835938 2.59992187 8.74171875 2.68359375 9.9609375 C2.81084936 12.91518901 2.81084936 12.91518901 4 15 C5.17408316 22.95767477 5.11480209 30.97660946 5 39 C4.67 39 4.34 39 4 39 C3.04380267 35.00204108 2.8960408 31.29196078 2.9375 27.1875 C2.94652344 26.02605469 2.95554688 24.86460937 2.96484375 23.66796875 C2.97644531 22.78753906 2.98804688 21.90710938 3 21 C2.34 21 1.68 21 1 21 C0.67 14.07 0.34 7.14 0 0 Z "  fill="#ffffff" stroke="#ffffff" stroke-width="2"  transform="translate(48,206)"/>
<path d="M0 0 C0.33 0 0.66 0 1 0 C0.67 7.59 0.34 15.18 0 23 C-0.66 23 -1.32 23 -2 23 C-1.97679687 23.77085937 -1.95359375 24.54171875 -1.9296875 25.3359375 C-1.91164063 26.33882813 -1.89359375 27.34171875 -1.875 28.375 C-1.85179687 29.37273437 -1.82859375 30.37046875 -1.8046875 31.3984375 C-2 34 -2 34 -4 36 C-3.86185777 32.0205267 -3.71320326 28.04151585 -3.5625 24.0625 C-3.52318359 22.92619141 -3.48386719 21.78988281 -3.44335938 20.61914062 C-3.40146484 19.53955078 -3.35957031 18.45996094 -3.31640625 17.34765625 C-3.27974854 16.34742432 -3.24309082 15.34719238 -3.20532227 14.31665039 C-3 12 -3 12 -2 11 C-1.60545777 9.15400312 -1.25823134 7.29774178 -0.9375 5.4375 C-0.76089844 4.42558594 -0.58429688 3.41367187 -0.40234375 2.37109375 C-0.20318359 1.19740234 -0.20318359 1.19740234 0 0 Z "  fill="#ffffff" stroke="#ffffff" stroke-width="2"  transform="translate(384,333)"/>
<path d="M0 0 C2.31 0.66 4.62 1.32 7 2 C7 4.64 7 7.28 7 10 C7.66 10 8.32 10 9 10 C9.33 16.93 9.66 23.86 10 31 C9.34 31 8.68 31 8 31 C7.90912109 29.62714844 7.90912109 29.62714844 7.81640625 28.2265625 C7.73261719 27.03804687 7.64882813 25.84953125 7.5625 24.625 C7.48128906 23.44164062 7.40007813 22.25828125 7.31640625 21.0390625 C7.18915064 18.08481099 7.18915064 18.08481099 6 16 C5.76970044 13.62876754 5.58880058 11.25258057 5.4375 8.875 C5.35371094 7.59367188 5.26992188 6.31234375 5.18359375 4.9921875 C5.12300781 4.00476563 5.06242187 3.01734375 5 2 C3.35 2 1.7 2 0 2 C0 1.34 0 0.68 0 0 Z " fill="#d4d4d4" transform="translate(25,191)"/>
<path d="M0 0 C0.66 0 1.32 0 2 0 C1.88822884 3.29225138 1.75807764 6.58354647 1.625 9.875 C1.5940625 10.7928125 1.563125 11.710625 1.53125 12.65625 C1.26580092 18.93854489 0.41690436 24.874511 -1 31 C-1.66 31 -2.32 31 -3 31 C-2.505 22.09 -2.505 22.09 -2 13 C-1.34 13 -0.68 13 0 13 C0 8.71 0 4.42 0 0 Z "  fill="#ffffff" stroke="#ffffff" stroke-width="2"  transform="translate(375,266)"/>
<path d="M0 0 C0.33 0 0.66 0 1 0 C0.60040282 11.45349476 0.15578562 22.7187529 -2 34 C-2.66 34 -3.32 34 -4 34 C-3.85953745 31.04132082 -3.71287776 28.08317736 -3.5625 25.125 C-3.52318359 24.28324219 -3.48386719 23.44148438 -3.44335938 22.57421875 C-3.40146484 21.76855469 -3.35957031 20.96289062 -3.31640625 20.1328125 C-3.26141968 19.01737061 -3.26141968 19.01737061 -3.20532227 17.87939453 C-3 16 -3 16 -2 14 C-1.68416554 10.62671248 -1.48866238 7.25265635 -1.28125 3.87109375 C-1 1 -1 1 0 0 Z "  fill="#ffffff" stroke="#ffffff" stroke-width="2"  transform="translate(397,216)"/>
<path d="M0 0 C0.66 0 1.32 0 2 0 C1.58337981 8.83673352 1.04349476 17.36304166 -1 26 C-1.33830156 27.66566532 -1.672848 29.33210898 -2 31 C-2.33 31 -2.66 31 -3 31 C-2.67 24.07 -2.34 17.14 -2 10 C-1.34 10 -0.68 10 0 10 C0 6.7 0 3.4 0 0 Z "  fill="#ffffff" stroke="#ffffff" stroke-width="2"  transform="translate(292,289)"/>
<path d="M0 0 C-1.60790685 3.98193402 -4.3803804 6.71258185 -7.375 9.6875 C-7.85710937 10.18572266 -8.33921875 10.68394531 -8.8359375 11.19726562 C-11.39323992 13.75804264 -13.31046316 15.62405193 -17 16 C-17 14 -17 14 -15.625 12.375 C-14 11 -14 11 -12 11 C-11.67 10.01 -11.34 9.02 -11 8 C-10.34 8 -9.68 8 -9 8 C-9 7.34 -9 6.68 -9 6 C-7.68 5.67 -6.36 5.34 -5 5 C-4.87625 4.360625 -4.7525 3.72125 -4.625 3.0625 C-4.41875 2.381875 -4.2125 1.70125 -4 1 C-2 0 -2 0 0 0 Z "  fill="#ffffff" stroke="#ffffff" stroke-width="2"  transform="translate(182,40)"/>
<path d="M0 0 C1.32 0.33 2.64 0.66 4 1 C0.04 4.96 -3.92 8.92 -8 13 C-8.99 12.67 -9.98 12.34 -11 12 C-10.34 12 -9.68 12 -9 12 C-8.9071875 11.13375 -8.9071875 11.13375 -8.8125 10.25 C-7.66615826 7.07551517 -5.74043158 5.87151425 -3 4 C-2.34 4 -1.68 4 -1 4 C-0.67 2.68 -0.34 1.36 0 0 Z "  fill="#ffffff" stroke="#ffffff" stroke-width="2"  transform="translate(134,85)"/>
<path d="M0 0 C1.32 0.33 2.64 0.66 4 1 C2.75965588 2.32162881 1.50731374 3.63200453 0.25 4.9375 C-0.44609375 5.66839844 -1.1421875 6.39929688 -1.859375 7.15234375 C-4.00599725 9.00517646 -5.23532932 9.60771565 -8 10 C-8 9.34 -8 8.68 -8 8 C-3.52941176 4 -3.52941176 4 -1 4 C-0.67 2.68 -0.34 1.36 0 0 Z "  fill="#ffffff" stroke="#ffffff" stroke-width="2"  transform="translate(147,72)"/>
<path d="M0 0 C1.32 0.33 2.64 0.66 4 1 C2.75965588 2.32162881 1.50731374 3.63200453 0.25 4.9375 C-0.44609375 5.66839844 -1.1421875 6.39929688 -1.859375 7.15234375 C-4.00599725 9.00517646 -5.23532932 9.60771565 -8 10 C-8 9.34 -8 8.68 -8 8 C-3.52941176 4 -3.52941176 4 -1 4 C-0.67 2.68 -0.34 1.36 0 0 Z "  fill="#ffffff" stroke="#ffffff" stroke-width="2"  transform="translate(160,59)"/>
</svg>
