<?xml version="1.0" encoding="UTF-8"?>
<svg version="1.1" xmlns="http://www.w3.org/2000/svg" width="546" height="428">
<path d="M0 0 C180.18 0 360.36 0 546 0 C546 141.24 546 282.48 546 428 C365.82 428 185.64 428 0 428 C0 286.76 0 145.52 0 0 Z " fill="#FCFCFC" transform="translate(0,0)"/>
<path d="M0 0 C180.18 0 360.36 0 546 0 C546 141.24 546 282.48 546 428 C365.82 428 185.64 428 0 428 C0 286.76 0 145.52 0 0 Z M56 17 C56 17.66 56 18.32 56 19 C55.0925 19.12375 54.185 19.2475 53.25 19.375 C50.41029677 19.92109677 48.47409409 20.57263803 46 22 C46 22.66 46 23.32 46 24 C45.34 24 44.68 24 44 24 C43.67 25.32 43.34 26.64 43 28 C42.34 28 41.68 28 41 28 C41 29.32 41 30.64 41 32 C40.34 32 39.68 32 39 32 C39 32.99 39 33.98 39 35 C38.34 35 37.68 35 37 35 C37 129.05 37 223.1 37 320 C37.66 320 38.32 320 39 320 C39 321.65 39 323.3 39 325 C39.66 325 40.32 325 41 325 C41 326.32 41 327.64 41 329 C41.66 329 42.32 329 43 329 C43.33 330.32 43.66 331.64 44 333 C45.98 333.33 47.96 333.66 50 334 C50 334.66 50 335.32 50 336 C50.66 336 51.32 336 52 336 C52 336.66 52 337.32 52 338 C115.36 338 178.72 338 244 338 C244 340.97 244 343.94 244 347 C243.34 347 242.68 347 242 347 C242 350.3 242 353.6 242 357 C241.34 357 240.68 357 240 357 C239.3509032 360.18684428 238.70632052 363.37458595 238.0625 366.5625 C237.78889648 367.90538086 237.78889648 367.90538086 237.50976562 369.27539062 C236.52319496 374.17236866 235.64555127 379.04624344 235 384 C234.34 384 233.68 384 233 384 C233 385.32 233 386.64 233 388 C232.34 388 231.68 388 231 388 C231 389.98 231 391.96 231 394 C220.44 394.33 209.88 394.66 199 395 C197.47153339 398.05693322 197.76757555 400.62984547 198 404 C199.05277061 406.28983195 199.05277061 406.28983195 201 408 C203.71660169 408.59268683 203.71660169 408.59268683 206.86552429 408.48101807 C208.08970062 408.48651672 209.31387695 408.49201538 210.57514954 408.49768066 C211.93381128 408.48352412 213.29246907 408.46898488 214.65112305 408.45410156 C216.08011849 408.45297342 217.50911626 408.4536063 218.93811035 408.45587158 C222.82024275 408.45702096 226.70188249 408.43347594 230.58390021 408.40557575 C234.63979592 408.38059914 238.69570246 408.37822306 242.75166321 408.37347412 C250.43339574 408.3610333 258.11490102 408.32819685 265.79653341 408.28807616 C274.54126544 408.24339276 283.28600823 408.22138007 292.03082597 408.20129442 C310.02067957 408.15946508 328.01032152 408.08909166 346 408 C346.33 406.68 346.66 405.36 347 404 C347.66 404 348.32 404 349 404 C349 402.35 349 400.7 349 399 C348.34 399 347.68 399 347 399 C347 397.68 347 396.36 347 395 C337.1 394.67 327.2 394.34 317 394 C316.67 392.02 316.34 390.04 316 388 C315.34 388 314.68 388 314 388 C314 386.68 314 385.36 314 384 C313.34 384 312.68 384 312 384 C312.01740234 383.12988281 312.01740234 383.12988281 312.03515625 382.2421875 C312.08762174 377.7001754 311.91751063 373.47286431 311 369 C310.34 369 309.68 369 309 369 C309 366.69 309 364.38 309 362 C308.34 362 307.68 362 307 362 C307 359.69 307 357.38 307 355 C306.34 355 305.68 355 305 355 C305.02320313 354.35933594 305.04640625 353.71867187 305.0703125 353.05859375 C305.08835937 352.19363281 305.10640625 351.32867187 305.125 350.4375 C305.15980469 349.16712891 305.15980469 349.16712891 305.1953125 347.87109375 C305.04941157 344.25061378 305.04941157 344.25061378 303 338 C365.7 338 428.4 338 493 338 C493 337.34 493 336.68 493 336 C494.32 336 495.64 336 497 336 C497 335.34 497 334.68 497 334 C498.65 333.67 500.3 333.34 502 333 C502 332.34 502 331.68 502 331 C502.66 331 503.32 331 504 331 C504 329.68 504 328.36 504 327 C504.66 327 505.32 327 506 327 C506 326.34 506 325.68 506 325 C506.66 325 507.32 325 508 325 C508 323.35 508 321.7 508 320 C508.66 320 509.32 320 510 320 C510 225.95 510 131.9 510 35 C509.34 35 508.68 35 508 35 C508 34.01 508 33.02 508 32 C507.34 32 506.68 32 506 32 C506 30.68 506 29.36 506 28 C505.34 28 504.68 28 504 28 C504 27.34 504 26.68 504 26 C503.34 26 502.68 26 502 26 C502 25.34 502 24.68 502 24 C500.35 23.67 498.7 23.34 497 23 C497 22.34 497 21.68 497 21 C496.34 21 495.68 21 495 21 C495 20.34 495 19.68 495 19 C493.68 19 492.36 19 491 19 C491 18.34 491 17.68 491 17 C347.45 17 203.9 17 56 17 Z " fill="#FDFDFD" transform="translate(0,0)"/>
<path d="M0 0 C143.55 0 287.1 0 435 0 C435 0.66 435 1.32 435 2 C436.32 2 437.64 2 439 2 C439 2.66 439 3.32 439 4 C439.66 4 440.32 4 441 4 C441 4.66 441 5.32 441 6 C442.65 6.33 444.3 6.66 446 7 C446 7.66 446 8.32 446 9 C446.66 9 447.32 9 448 9 C448 9.66 448 10.32 448 11 C448.66 11 449.32 11 450 11 C450 12.32 450 13.64 450 15 C450.66 15 451.32 15 452 15 C452 15.99 452 16.98 452 18 C452.66 18 453.32 18 454 18 C454 112.05 454 206.1 454 303 C453.34 303 452.68 303 452 303 C452 304.65 452 306.3 452 308 C451.34 308 450.68 308 450 308 C450 308.66 450 309.32 450 310 C449.34 310 448.68 310 448 310 C448 311.32 448 312.64 448 314 C447.34 314 446.68 314 446 314 C445.67 314.99 445.34 315.98 445 317 C443.68 317 442.36 317 441 317 C441 317.66 441 318.32 441 319 C439.68 319 438.36 319 437 319 C437 319.66 437 320.32 437 321 C374.3 321 311.6 321 247 321 C247.66 323.31 248.32 325.62 249 328 C249.1953125 330.87109375 249.1953125 330.87109375 249.125 333.4375 C249.10695313 334.30246094 249.08890625 335.16742188 249.0703125 336.05859375 C249.04710937 336.69925781 249.02390625 337.33992188 249 338 C249.66 338 250.32 338 251 338 C251 340.31 251 342.62 251 345 C251.66 345 252.32 345 253 345 C253 347.31 253 349.62 253 352 C253.66 352 254.32 352 255 352 C256.03590199 357.05002222 256.10251672 361.87416389 256 367 C256.66 367 257.32 367 258 367 C258 368.32 258 369.64 258 371 C258.66 371 259.32 371 260 371 C260.33 372.98 260.66 374.96 261 377 C270.9 377.33 280.8 377.66 291 378 C291 379.32 291 380.64 291 382 C291.66 382 292.32 382 293 382 C293 383.65 293 385.3 293 387 C292.34 387 291.68 387 291 387 C290.67 388.32 290.34 389.64 290 391 C271.14620525 391.09337109 252.2924573 391.16394368 233.43847942 391.20724869 C224.68457506 391.22788889 215.93081421 391.25603719 207.17700195 391.30175781 C199.54868168 391.34158112 191.92046532 391.3674222 184.29204398 391.37635398 C180.2514315 391.38157643 176.21111633 391.3938809 172.17059898 391.42292023 C168.36946574 391.45001843 164.56875301 391.45845652 160.76753235 391.45243073 C159.37068206 391.45353349 157.97381808 391.46152107 156.57705116 391.4768219 C154.6733117 391.49665787 152.76934789 391.48956951 150.86552429 391.48101807 C149.79900981 391.48470524 148.73249533 391.48839241 147.63366222 391.49219131 C145 391 145 391 143.14902973 389.19649887 C141.50793646 386.0593655 141.74210311 383.48160795 142 380 C142.33 379.34 142.66 378.68 143 378 C158.84 377.505 158.84 377.505 175 377 C175 375.02 175 373.04 175 371 C175.66 371 176.32 371 177 371 C177 369.68 177 368.36 177 367 C177.66 367 178.32 367 179 367 C179.12246094 366.06027344 179.24492187 365.12054688 179.37109375 364.15234375 C180.07135084 359.25054409 181.07426234 354.41289614 182.0625 349.5625 C182.24876953 348.64017578 182.43503906 347.71785156 182.62695312 346.76757812 C183.0828737 344.51135577 183.5405964 342.25551526 184 340 C184.66 340 185.32 340 186 340 C186 336.7 186 333.4 186 330 C186.66 330 187.32 330 188 330 C188 327.03 188 324.06 188 321 C124.64 321 61.28 321 -4 321 C-4 320.34 -4 319.68 -4 319 C-4.66 319 -5.32 319 -6 319 C-6 318.34 -6 317.68 -6 317 C-7.98 316.67 -9.96 316.34 -12 316 C-12.33 314.68 -12.66 313.36 -13 312 C-13.66 312 -14.32 312 -15 312 C-15 310.68 -15 309.36 -15 308 C-15.66 308 -16.32 308 -17 308 C-17 306.35 -17 304.7 -17 303 C-17.66 303 -18.32 303 -19 303 C-19 208.95 -19 114.9 -19 18 C-18.34 18 -17.68 18 -17 18 C-17 17.01 -17 16.02 -17 15 C-16.34 15 -15.68 15 -15 15 C-15 13.68 -15 12.36 -15 11 C-14.34 11 -13.68 11 -13 11 C-12.67 9.68 -12.34 8.36 -12 7 C-11.34 7 -10.68 7 -10 7 C-10 6.34 -10 5.68 -10 5 C-6.27034861 2.96564469 -4.33094958 2 0 2 C0 1.34 0 0.68 0 0 Z M3 13 C3 13.66 3 14.32 3 15 C2.01 15 1.02 15 0 15 C0 15.66 0 16.32 0 17 C-0.66 17 -1.32 17 -2 17 C-2 17.66 -2 18.32 -2 19 C-3.32 19.33 -4.64 19.66 -6 20 C-6 97.55 -6 175.1 -6 255 C141.51 255 289.02 255 441 255 C441 177.45 441 99.9 441 20 C440.34 20 439.68 20 439 20 C439 19.34 439 18.68 439 18 C437.02 17.505 437.02 17.505 435 17 C435 16.34 435 15.68 435 15 C433.68 15 432.36 15 431 15 C431 14.34 431 13.68 431 13 C289.76 13 148.52 13 3 13 Z " fill="#030303" transform="translate(56,17)"/>
<path d="M0 0 C0.70898438 -0.00926514 1.41796875 -0.01853027 2.1484375 -0.02807617 C6.86293154 0.00006512 10.77132535 0.77274082 15.25 2.25 C15.25 2.91 15.25 3.57 15.25 4.25 C16.57 4.25 17.89 4.25 19.25 4.25 C19.25 5.9 19.25 7.55 19.25 9.25 C18.59 9.25 17.93 9.25 17.25 9.25 C17.25 9.91 17.25 10.57 17.25 11.25 C16.59 11.25 15.93 11.25 15.25 11.25 C15.25 12.24 15.25 13.23 15.25 14.25 C14.59 14.25 13.93 14.25 13.25 14.25 C13.25 14.91 13.25 15.57 13.25 16.25 C12.59 16.25 11.93 16.25 11.25 16.25 C10.92 18.23 10.59 20.21 10.25 22.25 C9.59 22.25 8.93 22.25 8.25 22.25 C8.25 23.57 8.25 24.89 8.25 26.25 C7.59 26.25 6.93 26.25 6.25 26.25 C6.25 27.24 6.25 28.23 6.25 29.25 C5.59 29.25 4.93 29.25 4.25 29.25 C4.25 29.91 4.25 30.57 4.25 31.25 C3.59 31.25 2.93 31.25 2.25 31.25 C1.92 33.23 1.59 35.21 1.25 37.25 C0.59 37.25 -0.07 37.25 -0.75 37.25 C-1.41 38.9 -2.07 40.55 -2.75 42.25 C-3.41 42.25 -4.07 42.25 -4.75 42.25 C-4.75 43.57 -4.75 44.89 -4.75 46.25 C-5.41 46.25 -6.07 46.25 -6.75 46.25 C-6.75 46.91 -6.75 47.57 -6.75 48.25 C-7.41 48.25 -8.07 48.25 -8.75 48.25 C-8.75 49.24 -8.75 50.23 -8.75 51.25 C-9.41 51.25 -10.07 51.25 -10.75 51.25 C-11.059375 52.19875 -11.36875 53.1475 -11.6875 54.125 C-12.75 57.25 -12.75 57.25 -13.75 59.25 C-14.41 59.25 -15.07 59.25 -15.75 59.25 C-15.75 60.24 -15.75 61.23 -15.75 62.25 C-16.41 62.25 -17.07 62.25 -17.75 62.25 C-17.75 64.89 -17.75 67.53 -17.75 70.25 C-17.09 70.25 -16.43 70.25 -15.75 70.25 C-15.75 70.91 -15.75 71.57 -15.75 72.25 C-10.83854458 72.13159204 -5.9272849 72.00733277 -1.01611328 71.87768555 C0.65409334 71.83441511 2.32434194 71.79273451 3.99462891 71.75268555 C6.39758955 71.69479149 8.80034041 71.6311526 11.203125 71.56640625 C11.94806213 71.54969376 12.69299927 71.53298126 13.46051025 71.51576233 C17.39819342 71.4185764 17.39819342 71.4185764 21.26367188 70.73632812 C24.49341668 69.94556465 27.77256622 70.1287484 31.078125 70.15234375 C31.82713074 70.1537587 32.57613647 70.15517365 33.34783936 70.15663147 C35.73193412 70.16221341 38.11593378 70.17476255 40.5 70.1875 C42.11979031 70.19251734 43.73958209 70.19707984 45.359375 70.20117188 C49.32295312 70.21217692 53.28646045 70.22942909 57.25 70.25 C56.92 73.88 56.59 77.51 56.25 81.25 C55.59 81.25 54.93 81.25 54.25 81.25 C54.25 82.57 54.25 83.89 54.25 85.25 C53.59 85.25 52.93 85.25 52.25 85.25 C52.25 86.9 52.25 88.55 52.25 90.25 C51.59 90.25 50.93 90.25 50.25 90.25 C50.25 90.91 50.25 91.57 50.25 92.25 C49.59 92.25 48.93 92.25 48.25 92.25 C48.12625 92.9925 48.0025 93.735 47.875 94.5 C47.29513299 97.05141485 46.51291261 98.9767573 45.25 101.25 C44.59 101.25 43.93 101.25 43.25 101.25 C43.25 101.91 43.25 102.57 43.25 103.25 C42.59 103.25 41.93 103.25 41.25 103.25 C41.25 103.91 41.25 104.57 41.25 105.25 C40.59 105.25 39.93 105.25 39.25 105.25 C39.25 105.91 39.25 106.57 39.25 107.25 C38.26 107.25 37.27 107.25 36.25 107.25 C36.25 107.91 36.25 108.57 36.25 109.25 C34.27 109.58 32.29 109.91 30.25 110.25 C30.25 110.91 30.25 111.57 30.25 112.25 C29.59 112.25 28.93 112.25 28.25 112.25 C28.25 112.91 28.25 113.57 28.25 114.25 C27.59 114.25 26.93 114.25 26.25 114.25 C26.25 114.91 26.25 115.57 26.25 116.25 C24.6 116.25 22.95 116.25 21.25 116.25 C21.25 116.91 21.25 117.57 21.25 118.25 C19.27 118.25 17.29 118.25 15.25 118.25 C15.25 118.91 15.25 119.57 15.25 120.25 C3.69885761 121.9001632 -8.18948507 121.80622316 -19.75 120.25 C-19.75 119.59 -19.75 118.93 -19.75 118.25 C-21.4 118.25 -23.05 118.25 -24.75 118.25 C-24.75 117.59 -24.75 116.93 -24.75 116.25 C-26.07 116.25 -27.39 116.25 -28.75 116.25 C-28.75 115.59 -28.75 114.93 -28.75 114.25 C-30.07 114.25 -31.39 114.25 -32.75 114.25 C-32.75 113.59 -32.75 112.93 -32.75 112.25 C-33.41 112.25 -34.07 112.25 -34.75 112.25 C-34.75 111.59 -34.75 110.93 -34.75 110.25 C-36.4 109.92 -38.05 109.59 -39.75 109.25 C-39.75 108.59 -39.75 107.93 -39.75 107.25 C-40.41 107.25 -41.07 107.25 -41.75 107.25 C-41.75 106.59 -41.75 105.93 -41.75 105.25 C-43.07 105.25 -44.39 105.25 -45.75 105.25 C-45.75 104.59 -45.75 103.93 -45.75 103.25 C-46.41 103.25 -47.07 103.25 -47.75 103.25 C-50.75 98.86538462 -50.75 98.86538462 -50.75 96.25 C-51.41 96.25 -52.07 96.25 -52.75 96.25 C-52.75 94.93 -52.75 93.61 -52.75 92.25 C-53.41 92.25 -54.07 92.25 -54.75 92.25 C-54.75 91.59 -54.75 90.93 -54.75 90.25 C-55.41 90.25 -56.07 90.25 -56.75 90.25 C-56.75 88.6 -56.75 86.95 -56.75 85.25 C-57.41 85.25 -58.07 85.25 -58.75 85.25 C-62.59346504 77.50254291 -62.08969983 69.68703989 -61.9375 61.25 C-61.92242741 59.79298257 -61.90874355 58.33595007 -61.89648438 56.87890625 C-61.86367903 53.33562075 -61.81203907 49.79290829 -61.75 46.25 C-61.09 46.25 -60.43 46.25 -59.75 46.25 C-59.42 42.62 -59.09 38.99 -58.75 35.25 C-58.09 35.25 -57.43 35.25 -56.75 35.25 C-56.75 33.93 -56.75 32.61 -56.75 31.25 C-56.09 31.25 -55.43 31.25 -54.75 31.25 C-54.75 30.59 -54.75 29.93 -54.75 29.25 C-54.09 29.25 -53.43 29.25 -52.75 29.25 C-52.75 28.26 -52.75 27.27 -52.75 26.25 C-52.09 26.25 -51.43 26.25 -50.75 26.25 C-50.75 24.93 -50.75 23.61 -50.75 22.25 C-50.09 22.25 -49.43 22.25 -48.75 22.25 C-48.42 20.93 -48.09 19.61 -47.75 18.25 C-47.09 18.25 -46.43 18.25 -45.75 18.25 C-45.75 17.59 -45.75 16.93 -45.75 16.25 C-44.43 15.92 -43.11 15.59 -41.75 15.25 C-41.75 14.59 -41.75 13.93 -41.75 13.25 C-40.43 13.25 -39.11 13.25 -37.75 13.25 C-37.42 11.93 -37.09 10.61 -36.75 9.25 C-35.43 9.25 -34.11 9.25 -32.75 9.25 C-32.75 8.59 -32.75 7.93 -32.75 7.25 C-31.43 7.25 -30.11 7.25 -28.75 7.25 C-28.75 6.59 -28.75 5.93 -28.75 5.25 C-19.23026555 1.72417243 -10.13560367 0.08219834 0 0 Z " fill="#030303" transform="translate(390.75,55.75)"/>
<path d="M0 0 C8.91 0 17.82 0 27 0 C27 36.3 27 72.6 27 110 C18.09 110 9.18 110 0 110 C0 73.7 0 37.4 0 0 Z " fill="#000000" transform="translate(235,128)"/>
<path d="M0 0 C9.24 0 18.48 0 28 0 C28 33.66 28 67.32 28 102 C18.76 102 9.52 102 0 102 C0 68.34 0 34.68 0 0 Z " fill="#030303" transform="translate(133,137)"/>
<path d="M0 0 C1.32 0 2.64 0 4 0 C4 0.66 4 1.32 4 2 C4.99 2 5.98 2 7 2 C9 5 9 5 8.625 8.1875 C8.41875 9.115625 8.2125 10.04375 8 11 C7.34 11 6.68 11 6 11 C6 11.66 6 12.32 6 13 C5.34 13 4.68 13 4 13 C4 13.66 4 14.32 4 15 C2.68 15.33 1.36 15.66 0 16 C0 16.66 0 17.32 0 18 C-0.66 18 -1.32 18 -2 18 C-2 18.66 -2 19.32 -2 20 C-2.66 20 -3.32 20 -4 20 C-4 20.66 -4 21.32 -4 22 C-4.99 22 -5.98 22 -7 22 C-7 22.66 -7 23.32 -7 24 C-7.66 24 -8.32 24 -9 24 C-9 24.66 -9 25.32 -9 26 C-10.98 26.495 -10.98 26.495 -13 27 C-13 27.66 -13 28.32 -13 29 C-14.32 29 -15.64 29 -17 29 C-17.33 30.32 -17.66 31.64 -18 33 C-18.66 33 -19.32 33 -20 33 C-20 33.66 -20 34.32 -20 35 C-20.66 35 -21.32 35 -22 35 C-22 35.66 -22 36.32 -22 37 C-22.66 37 -23.32 37 -24 37 C-24 37.66 -24 38.32 -24 39 C-28.38461538 42 -28.38461538 42 -31 42 C-31 42.66 -31 43.32 -31 44 C-31.66 44 -32.32 44 -33 44 C-33 44.66 -33 45.32 -33 46 C-33.66 46 -34.32 46 -35 46 C-35 46.66 -35 47.32 -35 48 C-35.66 48 -36.32 48 -37 48 C-37 48.66 -37 49.32 -37 50 C-41.38461538 53 -41.38461538 53 -44 53 C-44 53.66 -44 54.32 -44 55 C-44.66 55 -45.32 55 -46 55 C-46 55.66 -46 56.32 -46 57 C-46.66 57 -47.32 57 -48 57 C-48 57.66 -48 58.32 -48 59 C-48.66 59 -49.32 59 -50 59 C-50 59.66 -50 60.32 -50 61 C-52.97 61 -55.94 61 -59 61 C-59 60.34 -59 59.68 -59 59 C-59.66 59 -60.32 59 -61 59 C-61 58.34 -61 57.68 -61 57 C-61.66 57 -62.32 57 -63 57 C-63 56.34 -63 55.68 -63 55 C-63.99 55 -64.98 55 -66 55 C-66 54.34 -66 53.68 -66 53 C-67.98 52.505 -67.98 52.505 -70 52 C-70 51.34 -70 50.68 -70 50 C-70.66 50 -71.32 50 -72 50 C-72 49.34 -72 48.68 -72 48 C-72.66 48 -73.32 48 -74 48 C-74 47.34 -74 46.68 -74 46 C-74.66 46 -75.32 46 -76 46 C-76 45.34 -76 44.68 -76 44 C-76.99 44 -77.98 44 -79 44 C-79 43.34 -79 42.68 -79 42 C-80.98 41.505 -80.98 41.505 -83 41 C-83 40.34 -83 39.68 -83 39 C-83.66 39 -84.32 39 -85 39 C-85 38.34 -85 37.68 -85 37 C-85.66 37 -86.32 37 -87 37 C-87 36.34 -87 35.68 -87 35 C-87.99 35 -88.98 35 -90 35 C-90 34.34 -90 33.68 -90 33 C-90.66 33 -91.32 33 -92 33 C-92 32.34 -92 31.68 -92 31 C-92.66 31 -93.32 31 -94 31 C-94 30.34 -94 29.68 -94 29 C-95.32 28.67 -96.64 28.34 -98 28 C-98 27.34 -98 26.68 -98 26 C-98.66 26 -99.32 26 -100 26 C-100 25.34 -100 24.68 -100 24 C-100.66 24 -101.32 24 -102 24 C-102.495 22.02 -102.495 22.02 -103 20 C-103.66 20 -104.32 20 -105 20 C-105 19.34 -105 18.68 -105 18 C-106.32 18 -107.64 18 -109 18 C-109 18.66 -109 19.32 -109 20 C-109.66 20 -110.32 20 -111 20 C-111.33 21.32 -111.66 22.64 -112 24 C-113.32 24 -114.64 24 -116 24 C-116 24.66 -116 25.32 -116 26 C-116.66 26 -117.32 26 -118 26 C-118 26.66 -118 27.32 -118 28 C-119.32 28.33 -120.64 28.66 -122 29 C-122 29.66 -122 30.32 -122 31 C-123.32 31 -124.64 31 -126 31 C-126.33 32.32 -126.66 33.64 -127 35 C-127.66 35 -128.32 35 -129 35 C-129 35.66 -129 36.32 -129 37 C-130.32 37 -131.64 37 -133 37 C-133 37.66 -133 38.32 -133 39 C-133.66 39 -134.32 39 -135 39 C-135.33 39.99 -135.66 40.98 -136 42 C-137.32 42 -138.64 42 -140 42 C-140 42.66 -140 43.32 -140 44 C-140.66 44 -141.32 44 -142 44 C-142 44.66 -142 45.32 -142 46 C-142.66 46 -143.32 46 -144 46 C-144 46.66 -144 47.32 -144 48 C-145.32 48 -146.64 48 -148 48 C-148.33 49.32 -148.66 50.64 -149 52 C-150.98 52.495 -150.98 52.495 -153 53 C-153 53.66 -153 54.32 -153 55 C-154.45742463 55.08096803 -155.91612807 55.13917774 -157.375 55.1875 C-158.18710938 55.22230469 -158.99921875 55.25710937 -159.8359375 55.29296875 C-160.55007812 55.19628906 -161.26421875 55.09960938 -162 55 C-164.29013653 51.5647952 -164.17842973 50.014669 -164 46 C-163.34 46 -162.68 46 -162 46 C-162 45.34 -162 44.68 -162 44 C-161.01 43.505 -161.01 43.505 -160 43 C-159.67 42.01 -159.34 41.02 -159 40 C-156.03 39.505 -156.03 39.505 -153 39 C-153 38.34 -153 37.68 -153 37 C-152.34 37 -151.68 37 -151 37 C-151 36.34 -151 35.68 -151 35 C-150.01 35 -149.02 35 -148 35 C-148 34.34 -148 33.68 -148 33 C-147.34 33 -146.68 33 -146 33 C-146 32.34 -146 31.68 -146 31 C-145.34 31 -144.68 31 -144 31 C-144 30.34 -144 29.68 -144 29 C-142.68 28.67 -141.36 28.34 -140 28 C-140 27.34 -140 26.68 -140 26 C-138.35 25.34 -136.7 24.68 -135 24 C-135 23.34 -135 22.68 -135 22 C-133.68 22 -132.36 22 -131 22 C-131 21.34 -131 20.68 -131 20 C-130.34 20 -129.68 20 -129 20 C-129 19.34 -129 18.68 -129 18 C-128.34 18 -127.68 18 -127 18 C-127 17.34 -127 16.68 -127 16 C-122.61538462 13 -122.61538462 13 -120 13 C-120 12.34 -120 11.68 -120 11 C-119.34 11 -118.68 11 -118 11 C-118 10.34 -118 9.68 -118 9 C-116.68 9 -115.36 9 -114 9 C-113.67 7.68 -113.34 6.36 -113 5 C-105.78777589 3.65534805 -105.78777589 3.65534805 -102 5.3125 C-101.34 5.869375 -100.68 6.42625 -100 7 C-100 7.66 -100 8.32 -100 9 C-99.34 9 -98.68 9 -98 9 C-98 9.66 -98 10.32 -98 11 C-96.68 11 -95.36 11 -94 11 C-94 11.66 -94 12.32 -94 13 C-93.34 13 -92.68 13 -92 13 C-91.505 14.98 -91.505 14.98 -91 17 C-90.34 17 -89.68 17 -89 17 C-89 17.66 -89 18.32 -89 19 C-87.02 19.495 -87.02 19.495 -85 20 C-85 20.66 -85 21.32 -85 22 C-84.34 22 -83.68 22 -83 22 C-83 22.66 -83 23.32 -83 24 C-81.68 24 -80.36 24 -79 24 C-78.505 25.98 -78.505 25.98 -78 28 C-76.02 28.495 -76.02 28.495 -74 29 C-74 29.66 -74 30.32 -74 31 C-73.34 31 -72.68 31 -72 31 C-72 31.66 -72 32.32 -72 33 C-71.34 33 -70.68 33 -70 33 C-70 33.66 -70 34.32 -70 35 C-69.34 35 -68.68 35 -68 35 C-68 35.66 -68 36.32 -68 37 C-67.34 37 -66.68 37 -66 37 C-66 37.66 -66 38.32 -66 39 C-65.01 39 -64.02 39 -63 39 C-63 39.66 -63 40.32 -63 41 C-61.02 41.495 -61.02 41.495 -59 42 C-59 42.66 -59 43.32 -59 44 C-58.34 44 -57.68 44 -57 44 C-57 44.66 -57 45.32 -57 46 C-56.01 46 -55.02 46 -54 46 C-54 45.34 -54 44.68 -54 44 C-53.34 44 -52.68 44 -52 44 C-52 43.34 -52 42.68 -52 42 C-50.68 41.67 -49.36 41.34 -48 41 C-48 40.34 -48 39.68 -48 39 C-46.68 39 -45.36 39 -44 39 C-44 38.34 -44 37.68 -44 37 C-43.34 37 -42.68 37 -42 37 C-41.67 35.68 -41.34 34.36 -41 33 C-39.68 33 -38.36 33 -37 33 C-37 32.34 -37 31.68 -37 31 C-36.34 31 -35.68 31 -35 31 C-35 30.34 -35 29.68 -35 29 C-34.34 29 -33.68 29 -33 29 C-32.67 28.01 -32.34 27.02 -32 26 C-31.01 26 -30.02 26 -29 26 C-28.67 24.68 -28.34 23.36 -28 22 C-26.68 22 -25.36 22 -24 22 C-24 21.34 -24 20.68 -24 20 C-23.34 20 -22.68 20 -22 20 C-22 19.34 -22 18.68 -22 18 C-20.02 17.505 -20.02 17.505 -18 17 C-18 16.34 -18 15.68 -18 15 C-17.34 15 -16.68 15 -16 15 C-15.67 13.68 -15.34 12.36 -15 11 C-13.68 11 -12.36 11 -11 11 C-11 10.34 -11 9.68 -11 9 C-10.34 9 -9.68 9 -9 9 C-9 8.34 -9 7.68 -9 7 C-8.34 7 -7.68 7 -7 7 C-7 6.34 -7 5.68 -7 5 C-2.61538462 2 -2.61538462 2 0 2 C0 1.34 0 0.68 0 0 Z " fill="#0D0D0D" transform="translate(253,78)"/>
<path d="M0 0 C8.58 0 17.16 0 26 0 C26 22.11 26 44.22 26 67 C17.42 67 8.84 67 0 67 C0 44.89 0 22.78 0 0 Z " fill="#020202" transform="translate(83,170)"/>
<path d="M0 0 C41.91 0 83.82 0 127 0 C127 0.66 127 1.32 127 2 C127.99 2 128.98 2 130 2 C130.0270043 3.45823212 130.04639787 4.91660675 130.0625 6.375 C130.07410156 7.18710938 130.08570313 7.99921875 130.09765625 8.8359375 C130 11 130 11 129 13 C85.77 13 42.54 13 -2 13 C-3.88343932 9.23312136 -4.22057835 7.97041037 -4 4 C-3.34 4 -2.68 4 -2 4 C-2 3.34 -2 2.68 -2 2 C-1.34 2 -0.68 2 0 2 C0 1.34 0 0.68 0 0 Z " fill="#090909" transform="translate(346,198)"/>
<path d="M0 0 C1.05859726 -0.00571014 2.11719452 -0.01142029 3.20787048 -0.01730347 C4.37415985 -0.01842133 5.54044922 -0.01953918 6.74208069 -0.02069092 C7.96650375 -0.02565582 9.19092682 -0.03062073 10.45245361 -0.03573608 C13.81608165 -0.04785703 17.17964742 -0.05530585 20.5432899 -0.05974674 C22.64356363 -0.06267612 24.74383188 -0.06678062 26.84410286 -0.07125092 C33.41204838 -0.08492615 39.97998142 -0.09459314 46.54794019 -0.09845281 C54.13614648 -0.10293627 61.72417289 -0.12049724 69.31232446 -0.1494534 C75.17393806 -0.17104686 81.03550095 -0.1811558 86.89715391 -0.18249393 C90.40000128 -0.18354348 93.90267956 -0.18948308 97.40548515 -0.20731354 C101.31071193 -0.22680582 105.21571256 -0.22251459 109.12098694 -0.21600342 C110.86738464 -0.22982559 110.86738464 -0.22982559 112.64906311 -0.243927 C114.24118874 -0.23557327 114.24118874 -0.23557327 115.86547852 -0.22705078 C116.78928283 -0.22851734 117.71308714 -0.2299839 118.66488552 -0.2314949 C121.44114797 0.21142278 122.32687175 0.91794587 123.99623108 3.14044189 C124.51165558 5.93925233 124.22499346 8.25803585 123.99623108 11.14044189 C121.42593449 13.71073849 120.45080698 13.39520494 116.87857056 13.40786743 C115.25281097 13.42066238 115.25281097 13.42066238 113.59420776 13.43371582 C112.39986618 13.43280945 111.2055246 13.43190308 109.97499084 13.43096924 C108.09446518 13.44104507 108.09446518 13.44104507 106.1759491 13.45132446 C102.73168724 13.46710109 99.28766645 13.47368142 95.84338498 13.47495604 C92.97051722 13.47685288 90.09767271 13.48420789 87.22481388 13.49130023 C80.44833098 13.50759626 73.67190124 13.51246805 66.895401 13.51104736 C59.89934365 13.50984542 52.90359456 13.5309547 45.90761524 13.56253469 C39.90586439 13.58866372 33.90421443 13.5994161 27.90240711 13.59813654 C24.31568287 13.59762593 20.72923249 13.60336327 17.14256477 13.62449265 C13.14378318 13.64740593 9.14569469 13.638375 5.14686584 13.62628174 C3.95454849 13.63752075 2.76223114 13.64875977 1.53378296 13.66033936 C0.44712341 13.65195038 -0.63953613 13.6435614 -1.75912476 13.63491821 C-3.17801577 13.63655252 -3.17801577 13.63655252 -4.62557125 13.63821983 C-7.00376892 13.14044189 -7.00376892 13.14044189 -8.84327793 11.23453712 C-10.00376892 9.14044189 -10.00376892 9.14044189 -9.81626892 7.14044189 C-7.4808446 1.3917051 -6.36332528 0.02049836 0 0 Z " fill="#131313" transform="translate(352.00376892089844,223.85955810546875)"/>
<path d="M0 0 C1.32 0 2.64 0 4 0 C4 0.66 4 1.32 4 2 C4.78375 2.309375 5.5675 2.61875 6.375 2.9375 C9 4 9 4 11 5 C11 5.66 11 6.32 11 7 C11.66 7 12.32 7 13 7 C13 8.32 13 9.64 13 11 C13.66 11 14.32 11 15 11 C15 11.66 15 12.32 15 13 C15.66 13 16.32 13 17 13 C20 17.38461538 20 17.38461538 20 20 C20.66 20 21.32 20 22 20 C22 21.32 22 22.64 22 24 C22.66 24 23.32 24 24 24 C24 25.65 24 27.3 24 29 C24.66 29 25.32 29 26 29 C26 30.32 26 31.64 26 33 C26.66 33 27.32 33 28 33 C28 37.29 28 41.58 28 46 C26.03675781 46.06058594 24.07351563 46.12117188 22.05078125 46.18359375 C19.47134704 46.2680116 16.89192033 46.35265898 14.3125 46.4375 C13.01892578 46.47681641 11.72535156 46.51613281 10.39257812 46.55664062 C9.14541016 46.59853516 7.89824219 46.64042969 6.61328125 46.68359375 C4.89298706 46.73858032 4.89298706 46.73858032 3.13793945 46.79467773 C0.08044815 46.92504191 0.08044815 46.92504191 -2.5546875 47.51367188 C-5.33736073 48.06709491 -7.90215835 48.11282268 -10.73828125 48.09765625 C-11.80498047 48.09443359 -12.87167969 48.09121094 -13.97070312 48.08789062 C-15.62489258 48.07532227 -15.62489258 48.07532227 -17.3125 48.0625 C-18.43462891 48.05798828 -19.55675781 48.05347656 -20.71289062 48.04882812 C-23.4753151 48.03707313 -26.23762998 48.02064077 -29 48 C-28.67 46.68 -28.34 45.36 -28 44 C-27.34 44 -26.68 44 -26 44 C-26 42.68 -26 41.36 -26 40 C-24.02 39.505 -24.02 39.505 -22 39 C-22 37.68 -22 36.36 -22 35 C-21.34 35 -20.68 35 -20 35 C-19.505 32.03 -19.505 32.03 -19 29 C-18.34 29 -17.68 29 -17 29 C-17 28.34 -17 27.68 -17 27 C-16.34 27 -15.68 27 -15 27 C-15 26.01 -15 25.02 -15 24 C-14.34 24 -13.68 24 -13 24 C-13 23.34 -13 22.68 -13 22 C-12.34 22 -11.68 22 -11 22 C-11 20.68 -11 19.36 -11 18 C-10.34 18 -9.68 18 -9 18 C-8.9175 17.484375 -8.835 16.96875 -8.75 16.4375 C-7.67859775 12.95544268 -5.86476395 10.12799115 -4 7 C-3.34 7 -2.68 7 -2 7 C-2 5.68 -2 4.36 -2 3 C-1.34 3 -0.68 3 0 3 C0 2.01 0 1.02 0 0 Z " fill="#0B0B0B" transform="translate(421,67)"/>
<path d="M0 0 C8.25 0 16.5 0 25 0 C25 19.47 25 38.94 25 59 C16.75 59 8.5 59 0 59 C0 39.53 0 20.06 0 0 Z " fill="#010101" transform="translate(185,177)"/>
<path d="M0 0 C8.91 0 17.82 0 27 0 C27 36.3 27 72.6 27 110 C18.09 110 9.18 110 0 110 C0 73.7 0 37.4 0 0 Z M2 2 C2 36.98 2 71.96 2 108 C9.59 108 17.18 108 25 108 C25 73.02 25 38.04 25 2 C17.41 2 9.82 2 2 2 Z " fill="#444444" transform="translate(235,128)"/>
<path d="M0 0 C1.66579102 -0.0309375 1.66579102 -0.0309375 3.36523438 -0.0625 C4.42935547 -0.06765625 5.49347656 -0.0728125 6.58984375 -0.078125 C7.56687256 -0.0874707 8.54390137 -0.09681641 9.55053711 -0.10644531 C12.0625 0.25 12.0625 0.25 13.8840332 1.6472168 C16.07703744 4.62982977 15.29005228 7.66605156 15.0625 11.25 C14.7325 11.91 14.4025 12.57 14.0625 13.25 C4.8225 13.25 -4.4175 13.25 -13.9375 13.25 C-13.9375 12.59 -13.9375 11.93 -13.9375 11.25 C-14.5975 11.25 -15.2575 11.25 -15.9375 11.25 C-15.9375 8.61 -15.9375 5.97 -15.9375 3.25 C-15.2775 3.25 -14.6175 3.25 -13.9375 3.25 C-13.9375 2.59 -13.9375 1.93 -13.9375 1.25 C-9.82565087 -0.80592456 -4.51915712 0.02090992 0 0 Z " fill="#141414" transform="translate(316.9375,223.75)"/>
<path d="M0 0 C8.58 0 17.16 0 26 0 C26 0.66 26 1.32 26 2 C26.66 2 27.32 2 28 2 C29.4783226 4.95664519 29.06032783 7.74229737 29 11 C28.34 11 27.68 11 27 11 C27 11.66 27 12.32 27 13 C18.09 13 9.18 13 0 13 C0 12.34 0 11.68 0 11 C-0.66 11 -1.32 11 -2 11 C-2 8.03 -2 5.06 -2 2 C-1.34 2 -0.68 2 0 2 C0 1.34 0 0.68 0 0 Z " fill="#0C0C0C" transform="translate(303,198)"/>
<path d="M0 0 C8.58 0 17.16 0 26 0 C26 0.66 26 1.32 26 2 C26.66 2 27.32 2 28 2 C28 4.97 28 7.94 28 11 C27.34 11 26.68 11 26 11 C26 11.66 26 12.32 26 13 C21.72929442 13.08692074 17.45881542 13.14036515 13.1875 13.1875 C11.36508789 13.22520508 11.36508789 13.22520508 9.50585938 13.26367188 C7.76079102 13.27817383 7.76079102 13.27817383 5.98046875 13.29296875 C4.90692139 13.3086792 3.83337402 13.32438965 2.72729492 13.34057617 C0 13 0 13 -1.86206055 11.6809082 C-3.56465852 9.16591421 -3.19678464 6.95176967 -3 4 C-2.34 4 -1.68 4 -1 4 C-0.67 2.68 -0.34 1.36 0 0 Z " fill="#EEEEEE" transform="translate(260,299)"/>
<path d="M0 0 C0.33 0 0.66 0 1 0 C1.33 32.67 1.66 65.34 2 99 C9.92 99.33 17.84 99.66 26 100 C26 67 26 34 26 0 C26.66 0 27.32 0 28 0 C28 33.66 28 67.32 28 102 C18.76 102 9.52 102 0 102 C0 68.34 0 34.68 0 0 Z " fill="#737373" transform="translate(133,137)"/>
<path d="M0 0 C0.33 0.99 0.66 1.98 1 3 C1.66 3 2.32 3 3 3 C3 97.05 3 191.1 3 288 C2.34 288 1.68 288 1 288 C1 289.65 1 291.3 1 293 C0.34 293 -0.32 293 -1 293 C-0.67 290.03 -0.34 287.06 0 284 C0.66 284 1.32 284 2 284 C1.89544986 248.98362728 1.78568595 213.96727501 1.66888306 178.950941 C1.6551127 174.82137941 1.64138572 170.69181768 1.62768555 166.56225586 C1.62495724 165.74009911 1.62222894 164.91794236 1.61941796 164.07087176 C1.57528608 150.74081087 1.53467209 137.41074144 1.49534739 124.0806656 C1.45494931 110.41314768 1.41079581 96.74564566 1.36312145 83.07815117 C1.33379912 74.63766399 1.30744188 66.19717807 1.28482103 57.75667023 C1.26905053 51.97670273 1.24964792 46.1967547 1.22733159 40.41680879 C1.21454573 37.07701668 1.20395284 33.73725481 1.19658089 30.39744377 C1.18835673 26.78503469 1.17409075 23.17270032 1.15821838 19.56031799 C1.15675122 17.95967108 1.15675122 17.95967108 1.15525442 16.32668787 C1.14977998 15.36676304 1.14430554 14.40683821 1.1386652 13.41782475 C1.13600716 12.58281974 1.13334911 11.74781473 1.13061053 10.88750654 C1.20670563 8.98783673 1.20670563 8.98783673 0 8 C-0.14115161 5.32941149 -0.04247107 2.67567762 0 0 Z " fill="#5F5F5F" transform="translate(507,32)"/>
<path d="M0 0 C9.24 0 18.48 0 28 0 C28 20.46 28 40.92 28 62 C19.09 62 10.18 62 1 62 C0 61 0 61 -0.12025452 58.56394958 C-0.11803391 57.48251175 -0.11581329 56.40107391 -0.11352539 55.28686523 C-0.11344986 54.0656749 -0.11337433 52.84448456 -0.11329651 51.58628845 C-0.10818911 50.24372314 -0.10297311 48.90115825 -0.09765625 47.55859375 C-0.09579199 46.19238842 -0.09436813 44.82618243 -0.09336853 43.4599762 C-0.08954394 39.85798305 -0.07971417 36.25603 -0.06866455 32.65405273 C-0.05844916 28.98096265 -0.05381594 25.30786592 -0.04882812 21.63476562 C-0.03862203 14.42314163 -0.01905038 7.21162785 0 0 Z M2 1 C2 20.47 2 39.94 2 60 C10.25 60 18.5 60 27 60 C27 40.53 27 21.06 27 1 C18.75 1 10.5 1 2 1 Z " fill="#7F7F7F" transform="translate(183,176)"/>
<path d="M0 0 C0.66 0 1.32 0 2 0 C2 22.11 2 44.22 2 67 C10.58 67 19.16 67 28 67 C28 67.66 28 68.32 28 69 C18.76 69 9.52 69 0 69 C0 46.23 0 23.46 0 0 Z " fill="#B0B0B0" transform="translate(81,170)"/>
<path d="M0 0 C0 2.97 0 5.94 0 9 C-0.66 9 -1.32 9 -2 9 C-1.67 6.69 -1.34 4.38 -1 2 C-5.76904424 2.11842644 -10.53788767 2.24268687 -15.30664062 2.37231445 C-16.92834357 2.41557931 -18.55008958 2.45726028 -20.171875 2.49731445 C-22.50534027 2.55522214 -24.83859043 2.61885698 -27.171875 2.68359375 C-27.89493835 2.70030624 -28.61800171 2.71701874 -29.36297607 2.73423767 C-33.2109979 2.8347558 -33.2109979 2.8347558 -36.98632812 3.51367188 C-40.29572184 4.31293379 -43.66160811 4.12111102 -47.046875 4.09765625 C-47.81807678 4.0962413 -48.58927856 4.09482635 -49.3838501 4.09336853 C-51.83927338 4.08778534 -54.29460442 4.07523595 -56.75 4.0625 C-58.41796743 4.05748283 -60.08593629 4.0529203 -61.75390625 4.04882812 C-65.83597287 4.03782141 -69.91797081 4.02056836 -74 4 C-74 3.67 -74 3.34 -74 3 C-73.23333008 2.97494385 -72.46666016 2.9498877 -71.67675781 2.92407227 C-68.20100717 2.80798577 -64.72551908 2.68531634 -61.25 2.5625 C-60.0434375 2.52318359 -58.836875 2.48386719 -57.59375 2.44335938 C-55.85351562 2.38051758 -55.85351562 2.38051758 -54.078125 2.31640625 C-53.00981445 2.27974854 -51.94150391 2.24309082 -50.84082031 2.20532227 C-48.11902276 2.09089616 -48.11902276 2.09089616 -46.00805664 1.5 C-43.26243644 0.81634891 -40.61947917 0.77791441 -37.79296875 0.68359375 C-35.96221802 0.6206311 -35.96221802 0.6206311 -34.09448242 0.55639648 C-32.80517822 0.51716064 -31.51587402 0.4779248 -30.1875 0.4375 C-28.22937378 0.37381226 -28.22937378 0.37381226 -26.23168945 0.30883789 C-17.48440964 0.03802259 -8.75091255 -0.13602455 0 0 Z " fill="#BBBBBB" transform="translate(449,124)"/>
<path d="M0 0 C0.99 0.495 0.99 0.495 2 1 C2 4.3 2 7.6 2 11 C2.66 11 3.32 11 4 11 C4 13.31 4 15.62 4 18 C4.66 18 5.32 18 6 18 C6 20.31 6 22.62 6 25 C6.66 25 7.32 25 8 25 C8.33 27.64 8.66 30.28 9 33 C8.34 33 7.68 33 7 33 C7 31.68 7 30.36 7 29 C6.34 29 5.68 29 5 29 C4.79503906 28.00097656 4.59007812 27.00195312 4.37890625 25.97265625 C4.10949219 24.68230469 3.84007812 23.39195312 3.5625 22.0625 C3.16224609 20.13083984 3.16224609 20.13083984 2.75390625 18.16015625 C2.32818384 15.15361121 2.32818384 15.15361121 1 14 C0.76472227 11.65012738 0.58613583 9.29443961 0.4375 6.9375 C0.35371094 5.64714844 0.26992188 4.35679687 0.18359375 3.02734375 C0.12300781 2.02832031 0.06242187 1.02929688 0 0 Z " fill="#5C5C5C" transform="translate(303,344)"/>
<path d="M0 0 C7.92 0 15.84 0 24 0 C24 0.33 24 0.66 24 1 C22.87722656 1.06058594 21.75445312 1.12117188 20.59765625 1.18359375 C13.03659035 1.60294982 5.5161559 2.04339834 -2 3 C-1.34 2.67 -0.68 2.34 0 2 C0 1.34 0 0.68 0 0 Z " fill="#B1B1B1" transform="translate(375,55)"/>
<path d="M0 0 C0.66 0 1.32 0 2 0 C2 2.31 2 4.62 2 7 C2.66 7 3.32 7 4 7 C4.33 9.64 4.66 12.28 5 15 C4.34 15 3.68 15 3 15 C3 13.68 3 12.36 3 11 C2.34 11 1.68 11 1 11 C0.67 7.37 0.34 3.74 0 0 Z " fill="#A6A6A6" transform="translate(307,362)"/>
<path d="M0 0 C1.32 0 2.64 0 4 0 C4 0.66 4 1.32 4 2 C4.66 2 5.32 2 6 2 C6 2.66 6 3.32 6 4 C3.36 4 0.72 4 -2 4 C-2 3.34 -2 2.68 -2 2 C-1.34 2 -0.68 2 0 2 C0 1.34 0 0.68 0 0 Z " fill="#868686" transform="translate(144,96)"/>
<path d="M0 0 C0.66 0.33 1.32 0.66 2 1 C1.67 1.556875 1.34 2.11375 1 2.6875 C-0.1309601 5.30284522 -0.15662974 7.1806646 0 10 C-0.66 10 -1.32 10 -2 10 C-2 7.36 -2 4.72 -2 2 C-1.34 2 -0.68 2 0 2 C0 1.34 0 0.68 0 0 Z " fill="#AEAEAE" transform="translate(343,225)"/>
</svg>
