<?xml version="1.0" encoding="UTF-8"?>
<svg version="1.1" xmlns="http://www.w3.org/2000/svg" width="418" height="400">
<path d="M0 0 C137.94 0 275.88 0 418 0 C418 132 418 264 418 400 C280.06 400 142.12 400 0 400 C0 268 0 136 0 0 Z " fill="transparent" transform="translate(0,0)"/>
<path d="M0 0 C3.18512456 1.65265897 5.58429409 4.09515048 8.1328125 6.57421875 C12.16640347 10.4038641 16.22057598 14.09953936 20.5703125 17.57421875 C25.33139728 21.39415886 29.78304275 25.46360694 34.234375 29.6328125 C37.58148119 32.74990429 41.00045391 35.71002988 44.5703125 38.57421875 C49.33139728 42.39415886 53.78304275 46.46360694 58.234375 50.6328125 C61.58148119 53.74990429 65.00045391 56.71002988 68.5703125 59.57421875 C73.33139728 63.39415886 77.78304275 67.46360694 82.234375 71.6328125 C85.58148119 74.74990429 89.00045391 77.71002988 92.5703125 80.57421875 C97.33139728 84.39415886 101.78304275 88.46360694 106.234375 92.6328125 C110.42112572 96.53184812 114.78586591 100.14354 119.25 103.72265625 C123.04407866 106.88614012 126.64275281 110.24151419 130.21679688 113.65039062 C130.71759766 114.12283203 131.21839844 114.59527344 131.734375 115.08203125 C132.22030908 115.55131263 132.70624315 116.02059401 133.2069025 116.50409603 C135.04030376 118.15681512 135.04030376 118.15681512 137.3289175 119.29528904 C140.1911832 120.96876019 142.02066143 122.44966211 144.0703125 125.07421875 C145.40975403 130.77483265 145.20990501 136.38189135 145.09204102 142.20874023 C145.08950063 143.96344369 145.09093073 145.71815671 145.09602356 147.47285461 C145.09860193 152.22519731 145.04575903 156.97548825 144.98285794 161.72735476 C144.92652722 166.69736701 144.92130404 171.66742835 144.91062927 176.63771057 C144.88267596 186.04441119 144.80884853 195.45016843 144.71848387 204.85645396 C144.6178243 215.56728257 144.56838741 226.27815667 144.52322495 236.98934066 C144.42919632 259.01827659 144.26417399 281.04591957 144.0703125 303.07421875 C120.9703125 303.07421875 97.8703125 303.07421875 74.0703125 303.07421875 C74.03164063 295.33984375 74.03164063 295.33984375 73.9921875 287.44921875 C73.96697111 284.14969241 73.94060158 280.85025344 73.91015625 277.55078125 C73.86211747 272.33300648 73.81796349 267.11543437 73.79931641 261.89746094 C73.78398391 257.68262242 73.74925285 253.46832029 73.70200348 249.25372314 C73.68735833 247.65932931 73.67928139 246.06485882 73.67842865 244.47039795 C73.66356586 230.59269651 71.97485327 217.05919776 65.2578125 204.63671875 C64.91234375 203.97478516 64.566875 203.31285156 64.2109375 202.63085938 C61.36212759 197.31412439 58.12590924 192.55340004 54.0703125 188.07421875 C53.20019531 187.06681641 53.20019531 187.06681641 52.3125 186.0390625 C43.5515025 176.52659868 32.1460222 171.16821757 20.0703125 167.07421875 C18.50603516 166.5328125 18.50603516 166.5328125 16.91015625 165.98046875 C0.53058918 160.75342671 -18.41502868 164.38283195 -33.6484375 171.34765625 C-38.84860367 174.08393416 -43.39201861 177.35661051 -47.9296875 181.07421875 C-48.80625 181.77546875 -49.6828125 182.47671875 -50.5859375 183.19921875 C-63.35636652 193.96946009 -72.55872466 211.29376877 -74.11319351 228.0526104 C-74.41823639 233.39414996 -74.42133312 238.74116035 -74.44140625 244.08984375 C-74.45828712 245.79906474 -74.47644183 247.50827358 -74.49580383 249.21746826 C-74.54294051 253.67576292 -74.57298332 258.13400829 -74.59924316 262.59246826 C-74.63452401 267.96343716 -74.69143143 273.33421685 -74.74463654 278.70503235 C-74.82272349 286.82806906 -74.87365105 294.95086542 -74.9296875 303.07421875 C-98.0296875 303.07421875 -121.1296875 303.07421875 -144.9296875 303.07421875 C-145.20084773 280.05584357 -145.42177817 257.03876658 -145.55143356 234.01919842 C-145.61324208 223.3301687 -145.69746559 212.64220363 -145.83496094 201.95385742 C-145.95478277 192.63491695 -146.03203584 183.31674763 -146.05874944 173.99705821 C-146.07435972 169.06444187 -146.1108873 164.13403104 -146.19844818 159.20212364 C-146.28031076 154.55322034 -146.30494964 149.90741583 -146.28697968 145.25786018 C-146.29026343 143.55783574 -146.31390409 141.8577007 -146.3601532 140.15830231 C-146.70799693 126.70982906 -146.70799693 126.70982906 -142.3577652 121.70060158 C-139.45296371 118.83196591 -136.24988216 116.44703549 -132.9296875 114.07421875 C-131.1097362 112.60422979 -129.29593565 111.12654521 -127.4921875 109.63671875 C-126.59628906 108.91613281 -125.70039062 108.19554687 -124.77734375 107.453125 C-120.97530117 104.27693305 -117.38064998 100.90151053 -113.76586914 97.51586914 C-109.57639224 93.61425205 -105.20795814 90.00097078 -100.7421875 86.41796875 C-97.53118945 83.74213704 -94.47939613 80.93063599 -91.4296875 78.07421875 C-86.69102286 73.63589201 -81.80849424 69.48279625 -76.7421875 65.41796875 C-73.53118945 62.74213704 -70.47939613 59.93063599 -67.4296875 57.07421875 C-62.69102286 52.63589201 -57.80849424 48.48279625 -52.7421875 44.41796875 C-49.53118945 41.74213704 -46.47939613 38.93063599 -43.4296875 36.07421875 C-38.69102286 31.63589201 -33.80849424 27.48279625 -28.7421875 23.41796875 C-25.53109649 20.74205957 -22.4804708 17.92959416 -19.4296875 15.07421875 C-15.30103659 11.23245851 -11.15153827 7.42994451 -6.8671875 3.76171875 C-6.00996094 3.02308594 -5.15273437 2.28445312 -4.26953125 1.5234375 C-1.9296875 0.07421875 -1.9296875 0.07421875 0 0 Z " fill="transparent" transform="translate(211.9296875,48.92578125)"/>
<path d="M0 0 C3.1967545 1.49143338 5.46787121 3.56934966 8 6 C9.77034053 7.60471051 11.54121274 9.20883456 13.3125 10.8125 C14.24964844 11.67746094 15.18679687 12.54242188 16.15234375 13.43359375 C18.82808836 15.84506729 21.56563425 18.12178235 24.375 20.375 C29.1714071 24.24218863 33.6704146 28.34980716 38.16357422 32.55810547 C41.51081785 35.67539336 44.92995906 38.63566482 48.5 41.5 C53.26108478 45.31994011 57.71273025 49.38938819 62.1640625 53.55859375 C65.51116869 56.67568554 68.93014141 59.63581113 72.5 62.5 C77.26108478 66.31994011 81.71273025 70.38938819 86.1640625 74.55859375 C89.51116869 77.67568554 92.93014141 80.63581113 96.5 83.5 C101.26108478 87.31994011 105.71273025 91.38938819 110.1640625 95.55859375 C113.51116869 98.67568554 116.93014141 101.63581113 120.5 104.5 C125.26349585 108.32187458 129.71760596 112.39325907 134.1706543 116.56518555 C137.4523834 119.62209222 140.80115826 122.517114 144.3125 125.3125 C149.26569314 129.29117437 153.92420419 133.53831478 158.5625 137.875 C159.26608643 138.53024658 159.96967285 139.18549316 160.69458008 139.8605957 C161.35353271 140.481521 162.01248535 141.10244629 162.69140625 141.7421875 C163.28123291 142.2976123 163.87105957 142.85303711 164.47875977 143.42529297 C168.39898093 147.48329754 168.28804166 150.92504647 168.26742554 156.24810791 C168.27195665 157.09919467 168.27648776 157.95028142 168.28115618 158.82715869 C168.2938547 161.68984008 168.2921763 164.55233255 168.29052734 167.41503906 C168.29650928 169.46321356 168.30331405 171.5113858 168.31088257 173.55955505 C168.32858601 179.13199575 168.33323984 184.70437507 168.33451414 190.27684116 C168.33641107 194.92638766 168.34376641 199.57591979 168.35085833 204.22546077 C168.36715716 215.19572471 168.372026 226.16595581 168.37060547 237.13623047 C168.36940432 248.45551138 168.39049741 259.77460152 168.4220928 271.09383416 C168.4482418 280.80773322 168.45897331 290.52156993 168.45769465 300.23550391 C168.45718452 306.03894991 168.4628957 311.84222653 168.48405075 317.64563751 C168.50340929 323.10560646 168.50357375 328.56524408 168.48901749 334.02522469 C168.48692519 336.02831315 168.49165527 338.03142221 168.5037384 340.03447533 C168.51917758 342.77135899 168.50989148 345.50709845 168.49447632 348.24395752 C168.50990701 349.43011544 168.50990701 349.43011544 168.52564943 350.64023614 C168.45672653 356.18636193 167.17153861 359.42681027 164 364 C158.87355657 367.79087981 153.45585877 367.44414972 147.33227539 367.43579102 C146.26975052 367.44586685 145.20722565 367.45594269 144.11250305 367.46632385 C140.60744651 367.49477245 137.10282098 367.50067862 133.59765625 367.50390625 C131.15677209 367.51354831 128.71588967 367.52364086 126.27500916 367.53416443 C121.16157003 367.55211724 116.04828287 367.55768619 110.93481445 367.5559082 C104.3863757 367.55560315 97.83891144 367.59658647 91.29070377 367.64822483 C86.25060051 367.68159628 81.21073276 367.68766556 76.17053032 367.68607903 C73.75640944 367.68961664 71.3422823 367.70287232 68.92827034 367.72607613 C65.55052668 367.75550826 62.17489765 367.74683455 58.79711914 367.72875977 C57.30613708 367.75404755 57.30613708 367.75404755 55.78503418 367.77984619 C49.93784932 367.70043209 46.4874121 366.83413409 42.31082249 362.60824394 C38.4924212 357.92345954 38.71516667 353.08521851 38.74462891 347.26928711 C38.73919823 345.9657428 38.73919823 345.9657428 38.73365784 344.63586426 C38.72677625 342.75235479 38.72425608 340.86882543 38.72560501 338.98530388 C38.72657302 335.99483246 38.71359292 333.00471779 38.69662476 330.01429749 C38.65045257 321.51289676 38.62577511 313.01153159 38.61914062 304.51000977 C38.61409902 299.30397344 38.58971071 294.0983074 38.55381393 288.89239693 C38.54407263 286.91787512 38.54165272 284.94330199 38.54698563 282.96876335 C38.58948819 266.44899049 36.79875863 253.62916191 25.15625 241 C20.10701448 236.19908754 14.44992622 233.50178957 8 231 C6.906875 230.566875 5.81375 230.13375 4.6875 229.6875 C-7.67881848 227.3819152 -19.0504056 229.05589479 -29.75 235.75 C-40.7160571 243.72170878 -47.46917989 253.49726301 -50 267 C-50.26066272 270.05926684 -50.27094415 273.09747018 -50.25537109 276.16650391 C-50.25899155 277.04560928 -50.262612 277.92471466 -50.26634216 278.83045959 C-50.27319747 280.72538852 -50.27574891 282.62033702 -50.27439499 284.51527786 C-50.27342444 287.51694207 -50.28643248 290.51825343 -50.30337524 293.51986694 C-50.34950112 302.04902482 -50.37426611 310.57814339 -50.38085938 319.10742188 C-50.38587471 324.3363419 -50.41011773 329.56488856 -50.44618607 334.7936821 C-50.45597571 336.78153619 -50.45832058 338.76944166 -50.45301437 340.75731277 C-50.4459409 343.53604358 -50.46322913 346.3136597 -50.48583984 349.09228516 C-50.47358116 350.31745094 -50.47358116 350.31745094 -50.46107483 351.56736755 C-50.53698325 356.81760197 -51.4403226 359.89333952 -55 364 C-59.5547284 368.03643769 -64.81982159 367.42310343 -70.5859375 367.38818359 C-72.18432465 367.39606903 -72.18432465 367.39606903 -73.81500244 367.40411377 C-77.33515101 367.41731077 -80.85484688 367.40857641 -84.375 367.3984375 C-86.82210375 367.40045831 -89.26920691 367.40336981 -91.71630859 367.40713501 C-96.84413387 367.41155797 -101.97180233 367.405128 -107.09960938 367.39111328 C-113.67378216 367.37402165 -120.24758752 367.38386295 -126.82174683 367.40183067 C-131.87462128 367.41266912 -136.92740857 367.40922184 -141.98028564 367.4014473 C-144.40439904 367.39944547 -146.82852034 367.40190394 -149.25262451 367.40888596 C-152.63998389 367.41650116 -156.02674751 367.40489448 -159.4140625 367.38818359 C-160.41681213 367.39425629 -161.41956177 367.40032898 -162.45269775 367.40658569 C-167.43849078 367.36099882 -170.98804815 367.30846208 -175 364 C-179.74889938 358.72344514 -180.14877013 354.69585774 -180.14717102 347.8210907 C-180.15084771 346.97746548 -180.1545244 346.13384026 -180.1583125 345.26465064 C-180.1693582 342.42732284 -180.17319466 339.59003165 -180.17700195 336.75268555 C-180.18326586 334.72259403 -180.18991259 332.69250366 -180.19691467 330.66241455 C-180.2143293 325.13964218 -180.22487738 319.61687848 -180.2331202 314.09408545 C-180.23826864 310.64516343 -180.2443444 307.19624411 -180.25063133 303.74732399 C-180.26968342 292.96074955 -180.28391537 282.17418196 -180.2922433 271.38759392 C-180.30202131 258.92798217 -180.32835556 246.4685478 -180.36874419 234.00899857 C-180.39887787 224.38344472 -180.41370951 214.7579418 -180.41702431 205.13234168 C-180.41937763 199.38089464 -180.42837497 193.62963711 -180.45348549 187.87824059 C-180.47672351 182.46835599 -180.48101657 177.05878627 -180.47072411 171.64886475 C-180.47022762 169.66308865 -180.4765811 167.67729728 -180.49028015 165.69156837 C-180.5079363 162.98061983 -180.50092401 160.27080901 -180.48774719 157.55986023 C-180.50420106 156.3810059 -180.50420106 156.3810059 -180.52098733 155.17833632 C-180.44206519 148.45355334 -177.9554778 144.99034516 -173.37109375 140.32421875 C-172.40300781 139.45410156 -171.43492187 138.58398438 -170.4375 137.6875 C-169.9108374 137.2123999 -169.3841748 136.7372998 -168.84155273 136.24780273 C-164.62725831 132.47771601 -160.25340306 128.92252131 -155.84765625 125.37890625 C-152.04561367 122.2027143 -148.45096248 118.82729178 -144.83618164 115.44165039 C-140.64670474 111.5400333 -136.27827064 107.92675203 -131.8125 104.34375 C-128.60150195 101.66791829 -125.54970863 98.85641724 -122.5 96 C-117.76133536 91.56167326 -112.87880674 87.4085775 -107.8125 83.34375 C-104.60150195 80.66791829 -101.54970863 77.85641724 -98.5 75 C-93.76133536 70.56167326 -88.87880674 66.4085775 -83.8125 62.34375 C-80.60150195 59.66791829 -77.54970863 56.85641724 -74.5 54 C-69.76133536 49.56167326 -64.87880674 45.4085775 -59.8125 41.34375 C-56.60150195 38.66791829 -53.54970863 35.85641724 -50.5 33 C-45.76532731 28.5654122 -40.88847658 24.41426809 -35.82421875 20.35546875 C-32.54216695 17.61815584 -29.43110811 14.73258197 -26.3125 11.8125 C-24.68592219 10.31104356 -23.05645891 8.81283172 -21.42480469 7.31689453 C-20.20941652 6.19355598 -19.01280548 5.04995796 -17.8203125 3.90234375 C-12.44804685 -0.81232092 -6.94793758 -1.37638926 0 0 Z M-13.5 40.375 C-14.43549683 41.19158081 -14.43549683 41.19158081 -15.38989258 42.0246582 C-20.11132994 46.16217435 -24.73937505 50.39863782 -29.36328125 54.64453125 C-31.9725941 56.97551739 -34.6481282 59.18327187 -37.375 61.375 C-42.1714071 65.24218863 -46.6704146 69.34980716 -51.16357422 73.55810547 C-55.35311567 77.4598253 -59.72163825 81.07317487 -64.1875 84.65625 C-67.39849805 87.33208171 -70.45029137 90.14358276 -73.5 93 C-78.23866464 97.43832674 -83.12119326 101.5914225 -88.1875 105.65625 C-91.39849805 108.33208171 -94.45029137 111.14358276 -97.5 114 C-102.23866464 118.43832674 -107.12119326 122.5914225 -112.1875 126.65625 C-115.39850062 129.33208385 -118.45026135 132.14361138 -121.5 135 C-125.43790884 138.68766221 -129.42186336 142.23614624 -133.625 145.625 C-134.86201424 146.64685615 -134.86201424 146.64685615 -136.12401867 147.68935585 C-137.99424596 149.19194897 -139.91524001 150.63411012 -141.88724995 152.00038719 C-146.42171854 155.44527412 -149.50464051 158.13102328 -150.99365807 163.74904251 C-151.49207827 168.32232922 -151.36305362 172.88403821 -151.2487793 177.47509766 C-151.24567209 179.23024295 -151.24742674 180.98540252 -151.25364685 182.74053955 C-151.25678957 187.48073509 -151.19235185 192.21783813 -151.11533332 196.95731783 C-151.04633593 201.91924933 -151.04008925 206.88126021 -151.02705383 211.84359741 C-150.99293159 221.22917595 -150.9027587 230.61333673 -150.79220945 239.99829233 C-150.66904524 250.68735813 -150.60872452 261.37649343 -150.55355966 272.06609273 C-150.43873325 294.04502774 -150.2370961 316.02202043 -150 338 C-126.9 338 -103.8 338 -80 338 C-79.97421875 332.61558594 -79.9484375 327.23117187 -79.921875 321.68359375 C-79.89666543 318.24279304 -79.87030105 314.80207668 -79.83984375 311.36132812 C-79.79176228 305.91739752 -79.74762367 300.47366254 -79.72900391 295.02954102 C-79.71369743 290.63316868 -79.6790098 286.23731327 -79.63169098 281.84117317 C-79.61701974 280.17617385 -79.60896732 278.51110066 -79.60811615 276.84603691 C-79.58586242 255.11222567 -73.48553598 235.88451633 -58.01953125 219.9609375 C-42.62483875 205.43552636 -23.29863504 198.23340123 -2.203125 198.77734375 C2.35614255 199.09426845 6.58895102 199.82100995 11 201 C11.99386719 201.24492187 12.98773438 201.48984375 14.01171875 201.7421875 C27.39402447 205.39043972 38.27785966 212.15523807 48 222 C48.62261719 222.60070312 49.24523437 223.20140625 49.88671875 223.8203125 C61.84003576 236.23027308 68.00296091 254.53358492 68.20532227 271.47412109 C68.21522186 272.19676147 68.22512146 272.91940186 68.23532104 273.66394043 C68.26670923 276.03374036 68.29160294 278.40356029 68.31640625 280.7734375 C68.33699541 282.42396543 68.35799238 284.07448832 68.37937927 285.7250061 C68.4343974 290.05515443 68.48389546 294.38534873 68.53222656 298.71557617 C68.59145536 303.91863499 68.65757116 309.12161035 68.72252655 314.32460022 C68.82028094 322.21634888 68.90931129 330.10815273 69 338 C92.1 338 115.2 338 139 338 C139.24844868 314.94708951 139.45101744 291.89526525 139.56993389 268.84135532 C139.62662006 258.13666876 139.70388069 247.4328739 139.82983398 236.72875977 C139.939582 227.39738788 140.01046535 218.06666182 140.03497344 208.73466247 C140.04929737 203.79444313 140.08287803 198.85607107 140.16303062 193.91644478 C140.2379288 189.26275366 140.26068417 184.61166268 140.24418449 179.95742607 C140.24720078 178.25336423 140.2689538 176.54921187 140.31126022 174.84567261 C140.6890352 165.32294468 140.6890352 165.32294468 136.5836277 157.03526115 C133.82331878 154.76059383 131.04426354 152.86826786 128 151 C126.86635118 150.04433293 125.75565064 149.05960471 124.6875 148.03125 C120.10137656 143.71176164 115.4792167 139.50871819 110.5625 135.5625 C105.78378372 131.71889943 101.30842313 127.63039836 96.83618164 123.44165039 C93.48900673 120.32446055 90.06994977 117.36426202 86.5 114.5 C81.73891522 110.68005989 77.28726975 106.61061181 72.8359375 102.44140625 C69.48883131 99.32431446 66.06985859 96.36418887 62.5 93.5 C57.73891522 89.68005989 53.28726975 85.61061181 48.8359375 81.44140625 C45.48883131 78.32431446 42.06985859 75.36418887 38.5 72.5 C33.73891522 68.68005989 29.28726975 64.61061181 24.8359375 60.44140625 C20.65770628 56.55030466 16.30600368 52.94214706 11.84375 49.37890625 C7.84106527 46.03050652 4.06556517 42.44762994 0.32617188 38.80859375 C-5.6623231 33.10950559 -7.98360056 35.46914632 -13.5 40.375 Z " fill="#000000" transform="translate(217,14)"/>
</svg>
