<?xml version="1.0" encoding="UTF-8"?>
<svg version="1.1" xmlns="http://www.w3.org/2000/svg" width="579" height="329">
<path d="M0 0 C191.07 0 382.14 0 579 0 C579 108.57 579 217.14 579 329 C387.93 329 196.86 329 0 329 C0 220.43 0 111.86 0 0 Z " fill="transparent" transform="translate(0,0)"/>
<path d="M0 0 C191.07 0 382.14 0 579 0 C579 108.57 579 217.14 579 329 C387.93 329 196.86 329 0 329 C0 220.43 0 111.86 0 0 Z M41.75 44.4375 C37.97370298 49.96707778 37.71045673 54.55314043 37.73930359 61.05807495 C37.73547804 61.97212384 37.73165249 62.88617274 37.72771102 63.82792008 C37.71738975 66.89168616 37.72137155 69.95526452 37.7253418 73.01904297 C37.72099483 75.21529311 37.71581173 77.41154173 37.70985413 79.60778809 C37.69645088 85.57473092 37.69588697 91.54161047 37.69841743 97.50856543 C37.69948629 102.48875951 37.69460589 107.46894075 37.689812 112.44913208 C37.67807727 124.86998428 37.67894451 137.29080826 37.68536881 149.71166147 C37.69053694 160.49281686 37.67928514 171.27388186 37.66027059 182.05501936 C37.64088705 193.13046929 37.6329285 204.20588247 37.63639385 215.28135026 C37.63820778 221.49720865 37.63555953 227.71298428 37.62167931 233.92882919 C37.60911438 239.774544 37.61103256 245.62007781 37.62409019 251.46578979 C37.62645847 253.6107807 37.62371234 255.75578429 37.61546707 257.90076065 C37.6050193 260.83003683 37.61308474 263.75870351 37.6257782 266.68795776 C37.61840391 267.53572969 37.61102963 268.38350162 37.60343188 269.25696361 C37.65853135 275.30578427 38.57869313 280.29288185 42.75390625 284.9609375 C43.35074219 285.42757812 43.94757812 285.89421875 44.5625 286.375 C45.16191406 286.85710937 45.76132812 287.33921875 46.37890625 287.8359375 C50.02071159 290.451017 53.35308237 290.1415217 57.67882156 290.13142776 C58.48468592 290.1334804 59.29055028 290.13553303 60.12083477 290.13764787 C62.85020448 290.14335058 65.57952426 290.14185661 68.30889893 290.14044189 C70.27387925 290.14302366 72.23885905 290.14603629 74.20383811 290.1494453 C79.62628906 290.15754075 85.04872679 290.15930628 90.47118306 290.16004276 C96.31044831 290.16188891 102.14970663 290.16943402 107.9889679 290.17617798 C121.43450333 290.19048967 134.88003623 290.19629025 148.32557796 290.20086992 C155.6326994 290.20343823 162.93981991 290.20756169 170.24694061 290.21169281 C192.30883323 290.22394316 214.37072506 290.23422217 236.432621 290.2375679 C237.85986439 290.23778954 239.28710778 290.23801132 240.71435116 290.23823325 C242.14507968 290.2384539 243.5758082 290.23867438 245.00653672 290.2388947 C247.87691641 290.23933726 250.7472961 290.23978437 253.61767578 290.24023438 C254.32936542 290.24034377 255.04105506 290.24045316 255.77431105 290.24056586 C278.85438385 290.24419704 301.93442525 290.26011863 325.01448602 290.28342474 C349.40568911 290.30800987 373.79687424 290.32174013 398.18809009 290.32293582 C411.48817335 290.32378781 424.78822224 290.32963735 438.08829498 290.34775543 C449.41254796 290.36312716 460.73674713 290.36829424 472.06100854 290.36001733 C477.84191696 290.3561004 483.62271694 290.35709113 489.40361214 290.37107468 C494.69241865 290.38375123 499.98103455 290.38267129 505.26984057 290.37048396 C507.18643117 290.36851608 509.10303499 290.37165533 511.01960698 290.38032833 C513.61924281 290.39135052 516.21819753 290.38398282 518.81781387 290.3719368 C519.56675287 290.37953199 520.31569187 290.38712718 521.08732599 290.39495254 C528.63595951 290.31913041 533.68422841 287.1949586 539 282 C541.26143911 276.92578217 541.28719231 272.22901849 541.26742554 266.78370667 C541.27422221 265.40522636 541.27422221 265.40522636 541.28115618 263.99889797 C541.29380042 260.92442556 541.2921798 257.85013028 541.29052734 254.77563477 C541.29651249 252.56938449 541.303318 250.3631363 541.31088257 248.15689087 C541.32854906 242.16728656 541.33323817 236.17773939 541.33451414 230.18811154 C541.33641367 225.18798371 541.34377165 220.18786918 541.35085833 215.18774647 C541.36621175 204.06590958 541.37219603 192.94409381 541.37084763 181.82224859 C541.37076772 181.15540606 541.3706878 180.48856354 541.37060547 179.80151367 C541.37048283 178.80002496 541.37048283 178.80002496 541.37035771 177.77830415 C541.3695446 166.95515623 541.38869078 156.1321474 541.4168822 145.30903972 C541.44561962 134.18835791 541.45905591 123.0677335 541.45769465 111.94701236 C541.45718452 105.70654537 541.46289624 99.46623589 541.48405075 93.22580147 C541.50339982 87.35787456 541.50358021 81.49025599 541.48901749 75.62231827 C541.48692432 73.46925977 541.49166042 71.31618214 541.5037384 69.16315651 C541.51916429 66.22283337 541.50989999 63.28357699 541.49447632 60.34327698 C541.50990701 59.06680584 541.50990701 59.06680584 541.52564943 57.76454741 C541.45113207 51.33168185 539.81195467 47.13532946 535.4375 42.2578125 C529.9766967 37.95446207 525.86066639 37.85241028 519.07508278 37.86577892 C518.26691073 37.86342669 517.45873869 37.86107446 516.62607658 37.85865095 C513.90090168 37.85196055 511.17577446 37.85241919 508.45059204 37.85282898 C506.48388546 37.8495304 504.51717956 37.84580485 502.55047452 37.8416875 C497.13254388 37.83165908 491.71462431 37.82794937 486.2966857 37.82529819 C480.45881777 37.82139776 474.62095863 37.8118194 468.78309631 37.80308533 C454.68005473 37.78331591 440.57701243 37.77325515 426.47396046 37.76435754 C419.83707479 37.75997636 413.20018993 37.75460919 406.5633049 37.74936867 C384.50991048 37.73227229 362.45651626 37.71783691 340.40311623 37.71061993 C338.97695389 37.71014517 337.55079156 37.70966928 336.12462922 37.70919226 C335.41737708 37.70895589 334.71012494 37.70871951 333.98144091 37.70847597 C330.39810904 37.70727477 326.81477718 37.70605932 323.23144531 37.70483398 C322.52032145 37.70459383 321.80919758 37.70435368 321.07652451 37.70410626 C298.00980768 37.6962098 274.94314222 37.67276982 251.87644783 37.64027804 C227.49448645 37.60599618 203.11255513 37.58627042 178.73056924 37.58297569 C165.43720958 37.58090101 152.14391314 37.5720118 138.85057449 37.54651451 C127.53367952 37.5248585 116.21687841 37.51673199 104.89996506 37.52648129 C99.12306043 37.53104049 93.34634968 37.52904583 87.56947136 37.50971985 C82.28439795 37.49219128 76.99966135 37.49300165 71.71458487 37.50861714 C69.79939768 37.51100892 67.88418779 37.50658906 65.96903546 37.49478849 C63.37114359 37.47976849 60.7744605 37.48927286 58.1765995 37.50501537 C57.4282322 37.49479317 56.6798649 37.48457096 55.90881979 37.47403899 C49.56632221 37.55826624 45.96835489 39.86761553 41.75 44.4375 Z " fill="#D7D7D7" transform="translate(0,0)"/>
<path d="M0 0 C8.61358603 4.06115843 11.94609225 10.03802662 15.3671875 18.59375 C16.11615705 20.42413326 16.86742943 22.25357607 17.62109375 24.08203125 C17.98380371 24.96366943 18.34651367 25.84530762 18.72021484 26.75366211 C20.00525825 29.74872163 21.44161627 32.64198452 22.92749023 35.54125977 C24.08982696 37.84684669 25.0920578 40.19863562 26.0546875 42.59375 C26.38984375 43.41488281 26.725 44.23601562 27.0703125 45.08203125 C27.8046875 47.28125 27.8046875 47.28125 27.8046875 50.28125 C29.1246875 50.28125 30.4446875 50.28125 31.8046875 50.28125 C32.19140625 49.29125 32.578125 48.30125 32.9765625 47.28125 C33.50241372 45.94784155 34.02846626 44.61451247 34.5546875 43.28125 C34.93367188 42.30865234 34.93367188 42.30865234 35.3203125 41.31640625 C36.6711227 37.9056105 38.11401301 34.6085555 39.796875 31.34765625 C42.33477094 26.37983414 44.15475429 21.16667682 45.984375 15.90429688 C48.41068733 9.33865079 51.79205527 4.40378635 57.5546875 0.34375 C63.02053536 -1.4431618 68.02445871 -2.04042799 73.34375 0.48828125 C77.61241283 3.23440799 81.8308132 6.06851652 83.36987305 11.14575195 C84.84600221 18.39544412 83.55051611 24.21012951 80.5546875 30.84375 C80.10416016 31.89852539 80.10416016 31.89852539 79.64453125 32.97460938 C77.80750903 37.22321182 75.77923341 41.35584933 73.68847656 45.48413086 C72.59624628 47.70509967 71.68032991 49.96705221 70.8046875 52.28125 C69.65961597 55.30751046 68.36765056 58.18352181 66.8984375 61.0625 C64.79513163 65.21458159 63.02831943 69.46036448 61.3046875 73.78125 C58.70064604 80.30918954 55.75845831 86.55978178 52.4921875 92.78125 C49.84244379 102.41668168 56.48191461 112.85007666 60.7734375 121.15625 C62.55341528 124.82408301 64.03351329 128.61911911 65.578125 132.390625 C66.89069385 135.48394013 68.3693721 138.44633651 69.91015625 141.4296875 C70.81829036 143.30940614 71.54129492 145.19061829 72.2421875 147.15625 C73.33959291 150.2171213 74.66946333 153.0269441 76.1796875 155.90625 C85.27327444 173.81702306 85.27327444 173.81702306 83.8046875 183.28125 C81.8214829 189.18654637 78.86381935 192.72909359 73.8046875 196.28125 C68.41163796 198.07893318 62.88897901 197.94979633 57.4921875 196.21875 C51.35739542 191.79599292 49.20644873 186.54492183 47.8046875 179.28125 C47.1446875 179.28125 46.4846875 179.28125 45.8046875 179.28125 C44.798322 176.84620491 43.79942337 174.40854136 42.8046875 171.96875 C42.51851563 171.27845703 42.23234375 170.58816406 41.9375 169.87695312 C40.71558006 166.86579326 39.8046875 164.56238016 39.8046875 161.28125 C38.8146875 160.95125 37.8246875 160.62125 36.8046875 160.28125 C35.76059707 157.95484006 34.90778332 155.75375358 34.1171875 153.34375 C33.89224609 152.69728516 33.66730469 152.05082031 33.43554688 151.38476562 C31.8046875 146.61115597 31.8046875 146.61115597 31.8046875 144.28125 C31.1446875 144.28125 30.4846875 144.28125 29.8046875 144.28125 C29.4746875 145.60125 29.1446875 146.92125 28.8046875 148.28125 C28.1446875 148.28125 27.4846875 148.28125 26.8046875 148.28125 C26.67707031 149.00699219 26.54945312 149.73273438 26.41796875 150.48046875 C24.96860741 157.09952657 21.89888157 163.23896843 18.796875 169.2265625 C17.70138718 171.49517113 16.81816706 173.79920918 15.9296875 176.15625 C12.60085149 184.54285236 8.50055013 193.45626575 -0.1953125 197.28125 C-5.32105968 198.22663276 -10.29815609 198.07907381 -15.0703125 195.84375 C-19.96585118 192.46995708 -22.54583275 187.47944574 -23.7109375 181.7421875 C-24.25330692 173.38476787 -20.75698251 166.64743116 -17.1953125 159.28125 C-16.15044443 157.0327349 -15.10866565 154.78278107 -14.0703125 152.53125 C-13.57660156 151.47550781 -13.08289063 150.41976562 -12.57421875 149.33203125 C-10.95089145 145.74047707 -9.51749336 142.09884475 -8.15234375 138.40234375 C-7.1953125 136.28125 -7.1953125 136.28125 -5.734375 134.43359375 C-3.03626105 130.66034303 -2.00579543 126.16411202 -0.57421875 121.7890625 C0.83454226 118.2053022 2.6506413 115.45719607 4.8046875 112.28125 C9.14495727 102.38856305 9.07886218 96.48795187 5.2421875 86.46875 C4.55962891 84.78845703 4.55962891 84.78845703 3.86328125 83.07421875 C2.8046875 80.28125 2.8046875 80.28125 2.8046875 78.28125 C2.1446875 78.28125 1.4846875 78.28125 0.8046875 78.28125 C0.60423828 77.76965332 0.40378906 77.25805664 0.19726562 76.73095703 C-3.54143419 67.2167714 -7.34759279 57.7451583 -11.5078125 48.40625 C-11.83265625 47.67680176 -12.1575 46.94735352 -12.4921875 46.19580078 C-14.30027936 42.17354665 -16.20985587 38.21979168 -18.1953125 34.28125 C-22.35643936 25.70112362 -25.19923796 18.41090435 -22.1328125 9.03125 C-16.62123926 1.20837185 -9.59998907 -3.14305692 0 0 Z " fill="#D6D6D6" transform="translate(88.1953125,65.71875)"/>
<path d="M0 0 C2.27348055 0.01605668 4.54517754 0.00010477 6.81860352 -0.01904297 C22.69326379 -0.04226772 34.36106849 3.96353949 46.04711914 14.94189453 C55.9024297 25.45087365 58.02891395 37.71499383 57.63305664 51.61767578 C57.06506873 63.24949545 55.03339554 74.69135235 50.34399414 85.39111328 C49.91602539 86.37080078 49.48805664 87.35048828 49.04711914 88.35986328 C47.23272504 92.41556773 45.34938618 96.42632444 43.34399414 100.39111328 C42.68399414 100.39111328 42.02399414 100.39111328 41.34399414 100.39111328 C41.11454102 101.06271484 40.88508789 101.73431641 40.64868164 102.42626953 C38.98700929 106.20234532 36.79241641 109.43153962 34.46899414 112.82861328 C34.03458008 113.47121094 33.60016602 114.11380859 33.15258789 114.77587891 C32.2917639 116.0490195 31.42923914 117.32101194 30.56494141 118.59179688 C28.80823217 121.18066851 27.07697862 123.78632066 25.34399414 126.39111328 C24.44100586 127.73689453 24.44100586 127.73689453 23.51977539 129.10986328 C19.13936532 135.64833702 14.85126456 142.23752784 10.61743164 148.87158203 C7.91618487 153.08220314 5.12858927 157.23534268 2.34399414 161.39111328 C3.55458496 161.41093262 4.76517578 161.43075195 6.01245117 161.45117188 C10.51900454 161.52744664 15.02524423 161.61613008 19.53149414 161.70849609 C21.47902212 161.74669561 23.42661849 161.78156403 25.37426758 161.81298828 C28.1795286 161.85883524 30.98432253 161.91679694 33.78930664 161.97705078 C34.65516388 161.98860199 35.52102112 162.0001532 36.41311646 162.01205444 C42.43742664 162.15796073 47.2499265 162.63794037 52.03149414 166.64111328 C56.18976807 171.58608768 57.94060833 175.6568165 57.69165039 182.08642578 C56.87629519 187.49158949 54.41631155 191.72140827 50.34399414 195.32861328 C45.50894683 198.65270831 41.29669183 198.54348865 35.54956055 198.55224609 C34.76857498 198.557211 33.98758942 198.5621759 33.18293762 198.56729126 C30.60380161 198.58187543 28.02472708 198.58870823 25.44555664 198.59423828 C23.64960733 198.59999232 21.85365803 198.60575002 20.05770874 198.61151123 C16.29343378 198.62201021 12.52918011 198.62786026 8.76489258 198.63134766 C3.94740452 198.6368335 -0.86980108 198.66086809 -5.68720055 198.68931961 C-9.39672666 198.70796461 -13.10618493 198.71315256 -16.81575394 198.71468353 C-18.59152396 198.71770581 -20.3672929 198.72571999 -22.14301682 198.73886871 C-24.62982306 198.75597015 -27.11594162 198.75403927 -29.6027832 198.74755859 C-30.33233719 198.75677338 -31.06189117 198.76598816 -31.81355286 198.77548218 C-36.49733537 198.73734742 -39.6669806 197.83511159 -43.65600586 195.39111328 C-45.51928711 193.41845703 -45.51928711 193.41845703 -46.96850586 191.32861328 C-47.45963867 190.63638672 -47.95077148 189.94416016 -48.45678711 189.23095703 C-50.31738224 186.37642835 -50.83608082 184.58915083 -50.90600586 181.20361328 C-50.93178711 180.46755859 -50.95756836 179.73150391 -50.98413086 178.97314453 C-50.07138515 171.79070511 -45.65262132 166.15304561 -41.59350586 160.39111328 C-40.41829429 158.69891336 -39.24382288 157.00619918 -38.07006836 155.31298828 C-37.4903125 154.47960937 -36.91055664 153.64623047 -36.31323242 152.78759766 C-33.99227781 149.43130854 -31.72377813 146.04176183 -29.46850586 142.64111328 C-29.07034668 142.04137695 -28.6721875 141.44164062 -28.26196289 140.82373047 C-27.46465408 139.62241292 -26.66761458 138.42091659 -25.87084961 137.21923828 C-24.60561919 135.31529025 -23.33468305 133.41525834 -22.06225586 131.51611328 C-18.3055175 125.90564701 -14.56834582 120.29175215 -10.96850586 114.57861328 C-8.82322156 111.17816265 -6.60730334 107.85778777 -4.28100586 104.57861328 C-0.60334588 99.39004107 2.81564718 94.05088917 6.23071289 88.68798828 C7.61677714 86.52562558 9.02376007 84.37649969 10.45336914 82.24267578 C18.09314145 70.71987871 20.51633059 58.42887025 20.84008789 44.72314453 C20.06526177 41.08085165 19.27994006 39.78073972 16.34399414 37.39111328 C12.19070805 36.6308839 8.11747549 36.69445733 3.90649414 36.76611328 C2.77405273 36.74677734 1.64161133 36.72744141 0.47485352 36.70751953 C-6.11096244 36.72551358 -6.11096244 36.72551358 -11.88647461 39.59814453 C-13.75413387 42.54599524 -14.28178989 44.2594486 -14.53100586 47.70361328 C-15.41526276 53.87672747 -17.87528558 57.44752335 -22.65600586 61.39111328 C-28.28473372 64.32784086 -34.75763329 64.2026576 -40.78100586 62.51611328 C-46.26316044 58.46408598 -50.07270972 53.81651007 -51.23803711 46.97314453 C-51.5781773 35.42097588 -47.52392389 25.61374606 -40.65600586 16.39111328 C-39.99600586 16.39111328 -39.33600586 16.39111328 -38.65600586 16.39111328 C-38.32600586 15.40111328 -37.99600586 14.41111328 -37.65600586 13.39111328 C-26.13244671 2.91515042 -15.21701028 -0.12780519 0 0 Z " fill="#D6D6D6" transform="translate(402.656005859375,64.60888671875)"/>
<path d="M0 0 C0.91169952 -0.00637985 1.82339905 -0.0127597 2.76272583 -0.01933289 C3.74707611 -0.02044571 4.73142639 -0.02155853 5.74560547 -0.02270508 C6.76322968 -0.02603348 7.78085388 -0.02936188 8.82931519 -0.03279114 C10.98630318 -0.03785749 13.14329903 -0.04019955 15.30029297 -0.04003906 C18.5790731 -0.04221396 21.8575104 -0.06034078 25.13623047 -0.0793457 C27.23518766 -0.08228211 29.33414644 -0.08426525 31.43310547 -0.08520508 C32.89141281 -0.09598335 32.89141281 -0.09598335 34.37918091 -0.10697937 C48.85637603 -0.05911738 59.7035733 4.70980595 70.26123047 14.73120117 C81.35326963 26.75730679 81.96576603 40.50661343 81.82397461 56.05273438 C81.80025582 58.83712504 81.80344698 61.62056222 81.81005859 64.4050293 C81.80448401 66.19735264 81.79737552 67.98967202 81.78857422 69.78198242 C81.78948563 70.60300949 81.79039703 71.42403656 81.79133606 72.26994324 C81.70288207 79.55209469 80.39958685 85.93582841 76.98779297 92.45776367 C76.56498047 93.27889648 76.14216797 94.1000293 75.70654297 94.94604492 C74.48779297 97.14526367 74.48779297 97.14526367 72.48779297 100.14526367 C73.14779297 100.14526367 73.80779297 100.14526367 74.48779297 100.14526367 C75.29288399 101.61716672 76.08103871 103.09833435 76.86279297 104.58276367 C77.30365234 105.40647461 77.74451172 106.23018555 78.19873047 107.07885742 C81.083447 113.94098614 81.80270188 120.86350899 81.82373047 128.24682617 C81.83371567 129.50612442 81.83371567 129.50612442 81.84390259 130.79086304 C81.85395971 132.5572493 81.85872178 134.32367303 81.85839844 136.09008789 C81.86274869 138.74325906 81.89907831 141.39473188 81.93701172 144.04760742 C82.00518172 154.73980988 80.90516405 163.97447031 77.48779297 174.14526367 C76.82779297 174.14526367 76.16779297 174.14526367 75.48779297 174.14526367 C75.20935547 175.13526367 75.20935547 175.13526367 74.92529297 176.14526367 C72.03702004 182.1729637 66.98169776 187.37801467 61.48779297 191.14526367 C60.82779297 191.14526367 60.16779297 191.14526367 59.48779297 191.14526367 C59.15779297 192.13526367 58.82779297 193.12526367 58.48779297 194.14526367 C56.66748047 195.05932617 56.66748047 195.05932617 54.36279297 195.77026367 C53.61771484 196.0100293 52.87263672 196.24979492 52.10498047 196.49682617 C45.34122168 198.17262312 38.70470761 198.33072597 31.76904297 198.38354492 C30.24398132 198.39565254 30.24398132 198.39565254 28.68811035 198.40800476 C26.54664789 198.42178081 24.40516408 198.43253167 22.26367188 198.44042969 C20.07968689 198.45198602 17.89573094 198.47249487 15.71191406 198.50195312 C12.54326339 198.54464381 9.37544554 198.56079643 6.20654297 198.57104492 C5.23656372 198.58855301 4.26658447 198.6060611 3.26721191 198.62409973 C-3.67091815 198.60198511 -8.02403157 197.34406135 -13.25439453 192.54760742 C-17.67483085 186.83152598 -18.13504244 182.18896588 -17.51220703 175.14526367 C-16.32470703 172.39526367 -16.32470703 172.39526367 -14.51220703 170.14526367 C-13.33658203 168.56745117 -13.33658203 168.56745117 -12.13720703 166.95776367 C-8.37557146 162.92743985 -5.34973703 162.07109501 0.046875 161.84228516 C1.86296324 161.80757969 3.67926043 161.78283988 5.49560547 161.76635742 C6.45804169 161.74936295 7.42047791 161.73236847 8.41207886 161.71485901 C11.47891736 161.66184735 14.54574332 161.62148054 17.61279297 161.58276367 C20.68691581 161.53880645 23.76093524 161.4920982 26.83493042 161.43995667 C28.74576023 161.40805174 30.65668136 161.38114547 32.56765747 161.35972595 C33.43220551 161.34623611 34.29675354 161.33274628 35.1875 161.31884766 C35.94741241 161.30933578 36.70732483 161.29982391 37.49026489 161.2900238 C39.69679549 161.21272379 39.69679549 161.21272379 42.48779297 160.14526367 C44.7412748 156.09736001 44.74543062 152.36152296 44.75341797 147.79760742 C44.75533142 147.10389542 44.75724487 146.41018341 44.75921631 145.69544983 C44.76057174 144.23560216 44.75692032 142.77574218 44.74853516 141.31591797 C44.73780965 139.08623143 44.74846007 136.85734751 44.76123047 134.62768555 C44.75990908 133.20515774 44.7573471 131.78263042 44.75341797 130.36010742 C44.75116211 129.07225342 44.74890625 127.78439941 44.74658203 126.45751953 C44.50558506 123.37298562 44.29187464 121.62832104 42.48779297 119.14526367 C39.41306804 118.12035536 36.79953921 118.02758309 33.58374023 117.95678711 C21.10181901 117.62048388 21.10181901 117.62048388 15.80419922 113.55541992 C13.98235103 111.60382587 13.08017314 109.73692692 12.48779297 107.14526367 C11.82779297 107.14526367 11.16779297 107.14526367 10.48779297 107.14526367 C8.78503676 102.03699506 8.52147378 96.38305548 10.67529297 91.39526367 C11.27341797 90.65276367 11.87154297 89.91026367 12.48779297 89.14526367 C13.27154297 88.09338867 14.05529297 87.04151367 14.86279297 85.95776367 C19.61558904 80.86548216 24.5180558 80.81346693 31.11279297 80.58276367 C36.88262231 80.41528962 36.88262231 80.41528962 42.48779297 79.14526367 C45.58829702 73.52329267 44.82273245 67.03017668 44.8034668 60.7980957 C44.80030229 58.65158506 44.82380931 56.50644845 44.84912109 54.36010742 C44.85139403 52.98641123 44.85209761 51.61271136 44.85107422 50.23901367 C44.85405518 48.99829102 44.85703613 47.75756836 44.86010742 46.47924805 C44.45915921 42.88885544 43.65127124 41.00660626 41.48779297 38.14526367 C39.19236331 36.99754884 37.86974527 37.00939325 35.31689453 36.98754883 C34.45549866 36.97728668 33.59410278 36.96702454 32.706604 36.95645142 C31.77330261 36.94915009 30.84000122 36.94184875 29.87841797 36.93432617 C27.9070556 36.90625016 25.93570155 36.87758565 23.96435547 36.84838867 C20.85270484 36.80717476 17.74120811 36.77029264 14.62939453 36.74389648 C11.62874149 36.71622751 8.62879672 36.67034686 5.62841797 36.62182617 C4.7032135 36.6185733 3.77800903 36.61532043 2.82476807 36.61196899 C-3.09641057 36.49973501 -7.84199708 35.87757152 -12.19189453 31.42651367 C-12.58634766 30.83870117 -12.98080078 30.25088867 -13.38720703 29.64526367 C-13.79712891 29.05745117 -14.20705078 28.46963867 -14.62939453 27.86401367 C-15.51220703 26.14526367 -15.51220703 26.14526367 -15.51220703 23.14526367 C-16.17220703 23.14526367 -16.83220703 23.14526367 -17.51220703 23.14526367 C-18.07563547 12.39838794 -18.07563547 12.39838794 -14.51220703 8.14526367 C-9.93693069 3.11570458 -7.08863121 0.03372738 0 0 Z " fill="#D6D6D6" transform="translate(252.51220703125,64.854736328125)"/>
<path d="M0 0 C0.721875 0.5775 1.44375 1.155 2.1875 1.75 C3.05375 2.348125 3.92 2.94625 4.8125 3.5625 C8.45863142 6.92077894 10.01723072 10.2087041 10.56223011 15.14209747 C10.5619785 17.01363117 10.5619785 17.01363117 10.5617218 18.92297363 C10.56569621 19.62215424 10.56967061 20.32133485 10.57376546 21.04170275 C10.58335012 23.372413 10.57159407 25.7025104 10.55981445 28.03320312 C10.56224369 29.70906297 10.56596429 31.38492136 10.57087708 33.06077576 C10.58027165 37.60414447 10.57087268 42.14729721 10.55754495 46.69064903 C10.54621629 51.44842937 10.55033905 56.2061993 10.55229187 60.96398926 C10.5531744 68.95340497 10.54210308 76.94273575 10.52368164 84.93212891 C10.50251467 94.16504689 10.49900441 103.3978405 10.5052436 112.63077784 C10.51094115 121.51761674 10.50528697 130.40441191 10.49407005 139.29124451 C10.48942926 143.07100739 10.48854797 146.85074347 10.4906559 150.63050842 C10.49254156 155.08254645 10.48441352 159.53445814 10.4685955 163.98646736 C10.46435832 165.61907999 10.4634983 167.25170546 10.46628571 168.88432121 C10.46951654 171.11536089 10.46040327 173.34602526 10.44819641 175.57702637 C10.44614354 176.8247155 10.44409067 178.07240463 10.44197559 179.35790253 C10.09701648 183.95612326 9.41858203 187.50490185 6.12890625 190.83203125 C5.34386719 191.40308594 4.55882812 191.97414063 3.75 192.5625 C2.96753906 193.14644531 2.18507813 193.73039063 1.37890625 194.33203125 C-3.15147221 197.2634526 -7.59354359 197.21629851 -12.8125 196.75 C-18.68053656 194.90904735 -21.67506698 190.81894716 -24.8125 185.75 C-25.96727483 182.28567552 -25.94424403 179.59409798 -25.95294189 175.93778992 C-25.95591302 175.24117258 -25.95888414 174.54455525 -25.9619453 173.8268283 C-25.97063342 171.48699778 -25.97214064 169.14721843 -25.97363281 166.80737305 C-25.97826091 165.13195689 -25.98328555 163.4565418 -25.98867798 161.78112793 C-26.0018048 157.22526329 -26.00824748 152.66941338 -26.01268864 148.11353278 C-26.0156189 145.26764524 -26.01972362 142.42176174 -26.02419281 139.57587624 C-26.03786847 130.67302586 -26.0475348 121.77018469 -26.0513947 112.86732453 C-26.05587581 102.58791455 -26.07342588 92.30863752 -26.1023953 82.02926797 C-26.12400666 74.08522763 -26.13409869 66.14122472 -26.13543582 58.1971553 C-26.13648424 53.45178069 -26.14239984 48.70653104 -26.16025543 43.96118736 C-26.17672668 39.49686268 -26.17889624 35.03275701 -26.17011642 30.56841278 C-26.16934554 28.93095374 -26.17369552 27.29348297 -26.18357468 25.65605354 C-26.19628349 23.41816198 -26.19042376 21.18104739 -26.17999268 18.94316101 C-26.18145924 17.69157542 -26.1829258 16.43998983 -26.1844368 15.15047741 C-25.59382201 9.7507099 -23.51044937 5.85293687 -19.3125 2.4375 C-18.7246875 1.94636719 -18.136875 1.45523438 -17.53125 0.94921875 C-12.64239133 -2.46187127 -5.29594902 -2.35375512 0 0 Z " fill="#D8D8D8" transform="translate(503.8125,66.25)"/>
<path d="M0 0 C191.07 0 382.14 0 579 0 C579 108.57 579 217.14 579 329 C387.93 329 196.86 329 0 329 C0 220.43 0 111.86 0 0 Z M10.1875 25.6875 C6.4035028 31.35032644 4.65166079 37.44663622 3 44 C2.82278296 44.63549924 2.64556592 45.27099847 2.46297866 45.92575526 C1.990205 48.04388373 1.87136039 49.90323458 1.86577892 52.0707283 C1.86132108 52.87697309 1.85686324 53.68321787 1.85227031 54.51389432 C1.85245467 55.39402904 1.85263903 56.27416377 1.85282898 57.18096924 C1.84915229 58.12048203 1.8454756 59.05999483 1.8416875 60.02797771 C1.83065194 63.18434741 1.82680694 66.3406842 1.82299805 69.49707031 C1.81673303 71.75738632 1.81008619 74.01770129 1.80308533 76.27801514 C1.7820375 83.71137779 1.77167851 91.14474065 1.76171875 98.578125 C1.7576707 101.13965618 1.75355376 103.70118724 1.74936867 106.2627182 C1.73249525 116.92403038 1.71786348 127.58533915 1.71061993 138.24666214 C1.70871022 141.01242321 1.70678987 143.77818427 1.70483398 146.54394531 C1.70435024 147.23130897 1.7038665 147.91867262 1.7033681 148.62686548 C1.69508459 159.73827944 1.66977763 170.84958516 1.63725331 181.96095195 C1.60408042 193.3878504 1.58649372 204.81466831 1.58297569 216.24161983 C1.58063124 222.64952746 1.57175029 229.05726421 1.54651451 235.46512604 C1.52312168 241.50293871 1.51904557 247.54046938 1.52927589 253.57831573 C1.52976873 255.78403668 1.52352342 257.98977202 1.50971985 260.19544983 C1.0424853 280.43102872 1.0424853 280.43102872 8 299 C8.66 299 9.32 299 10 299 C10.185625 299.66 10.37125 300.32 10.5625 301 C15.79594316 311.92196832 27.26702423 319.21055382 38 324 C43.66239143 325.65396537 48.66395272 326.28754974 54.5420475 326.24888897 C55.36834191 326.25149625 56.19463633 326.25410354 57.04596996 326.25678983 C59.80877078 326.26307527 62.57134301 326.25513568 65.33413696 326.24723816 C67.33729428 326.24882684 69.34045106 326.25129101 71.34360635 326.25455457 C76.8437373 326.26096595 82.3437946 326.25490151 87.84392071 326.24679029 C93.77714968 326.24021145 99.71037044 326.24516216 105.64360046 326.24867249 C116.59290596 326.253423 127.54218532 326.24916882 138.49148776 326.24042014 C148.60554692 326.23239864 158.71959776 326.22851692 168.83366013 326.22869301 C169.84009641 326.22870448 169.84009641 326.22870448 170.86686474 326.22871618 C173.59049622 326.22875709 176.3141277 326.2288227 179.03775918 326.22892199 C204.58385002 326.22982792 230.12992604 326.21988519 255.67601174 326.20449232 C278.3748303 326.19086551 301.07363832 326.18463118 323.77246094 326.18530273 C325.23023735 326.18534315 326.68801376 326.18538351 328.14579017 326.18542381 C328.86648595 326.18544416 329.58718173 326.18546452 330.32971677 326.18548548 C333.95756664 326.18558628 337.58541651 326.18567686 341.21326637 326.18575573 C341.92897874 326.18577244 342.64469111 326.18578916 343.38209174 326.18580638 C362.34801145 326.18617149 381.31392984 326.18163361 400.27984846 326.17542917 C400.95442936 326.17520889 401.62901026 326.17498862 402.32403301 326.17476168 C405.0366907 326.17387344 407.74934839 326.17298505 410.46200608 326.17207072 C419.9013704 326.16891052 429.34073367 326.16740143 438.78009848 326.16695923 C450.94255192 326.16636232 463.10499629 326.16225841 475.26744606 326.15252777 C481.13341974 326.14790533 486.99938272 326.14486593 492.86535835 326.14612198 C498.23158907 326.14721532 503.59779608 326.14370897 508.96402185 326.13647345 C510.90869407 326.13465716 512.85336874 326.13453271 514.79804106 326.13624074 C517.43526725 326.13830114 520.07241539 326.13424924 522.70963478 326.12863445 C523.46969346 326.13068977 524.22975214 326.13274509 525.01284289 326.13486269 C529.11286343 326.11885032 532.97732989 325.797386 537 325 C537 324.34 537 323.68 537 323 C537.78375 322.938125 538.5675 322.87625 539.375 322.8125 C551.71666951 320.04626373 561.1724077 311.25835435 568.59375 301.3515625 C570.90830568 297.48111105 572.03976469 293.38050205 573 289 C573.66 289 574.32 289 575 289 C576.67578184 282.64680118 577.28923444 276.74744889 577.26069641 270.19084167 C577.26452196 269.24423449 577.26834751 268.29762731 577.27228898 267.32233506 C577.28255119 264.17210782 577.27863974 261.02206515 577.2746582 257.87182617 C577.27900845 255.60428195 577.28419264 253.33673919 577.29014587 251.06919861 C577.30351407 244.92447708 577.30411691 238.77981715 577.30158257 232.63508391 C577.30051129 227.49858492 577.30540032 222.36209831 577.310188 217.22560197 C577.32190929 204.41091993 577.32106244 191.59628202 577.31463119 178.78159938 C577.30946463 167.67428432 577.32071307 156.56705702 577.33972941 145.45975932 C577.35914193 134.03271838 577.36706687 122.60573508 577.36360615 111.17867452 C577.36179623 104.77212764 577.36440047 98.36566114 577.37832069 91.95912743 C577.39092702 85.93195457 577.38892827 79.9049569 577.37590981 73.87778664 C577.37355052 71.67200282 577.37625535 69.46620656 577.38453293 67.26043701 C577.45098751 48.1678441 575.90337922 32.95949032 562 18.5625 C560.68861232 17.35080846 559.35563646 16.16197411 558 15 C557.35160156 14.43539063 556.70320312 13.87078125 556.03515625 13.2890625 C551.37854126 9.50844439 546.78081385 7.52549254 541 6 C541 5.34 541 4.68 541 4 C531.20765823 1.45681561 521.54247547 1.70567495 511.49937439 1.71238708 C509.50232883 1.70649804 507.50528563 1.69975772 505.50824553 1.69224221 C500.03388882 1.67421913 494.55958029 1.66865385 489.08519757 1.66525543 C483.17563766 1.65948537 477.26610842 1.64235844 471.35656738 1.62690735 C457.76808247 1.59384002 444.1795967 1.57778623 430.59108095 1.56475472 C423.87009552 1.55820205 417.14911361 1.54937803 410.42813109 1.54037482 C387.40244354 1.50965876 364.37675653 1.48394408 341.35105038 1.47305202 C339.90694564 1.47235565 338.4628409 1.47165797 337.01873616 1.47095901 C336.30262578 1.47061348 335.58651541 1.47026795 334.84870472 1.46991195 C331.22083244 1.4681586 327.59296016 1.46638723 323.96508789 1.46459961 C323.24514095 1.46425007 322.52519401 1.46390053 321.7834305 1.46354039 C298.44563362 1.45201936 275.10799817 1.41266947 251.77026801 1.3568533 C227.07143293 1.29789015 202.37269132 1.26452328 177.67378432 1.26003987 C174.95978992 1.25945091 172.24579557 1.25875593 169.53180122 1.25798225 C168.86358444 1.25780329 168.19536765 1.25762433 167.50690187 1.25743995 C157.44178707 1.25417991 147.37684003 1.23149145 137.31178093 1.19875908 C125.85512303 1.16160498 114.39875221 1.14850511 102.9420427 1.16646396 C97.10080254 1.1749 91.26014824 1.17217152 85.41898537 1.13864517 C80.06241747 1.10817325 74.70686574 1.11055267 69.35029144 1.13813318 C67.42162178 1.14245001 65.49287997 1.13514384 63.56431638 1.11446016 C42.23554002 0.90017299 23.46657923 8.16253492 10.1875 25.6875 Z " fill="#000000" fill-opacity="1"  transform="translate(0,0)"/>
<path d="M0 0 C1.20560326 -0.00287018 1.20560326 -0.00287018 2.43556213 -0.00579834 C4.13258172 -0.00715708 5.82961181 -0.00348234 7.52661133 0.00488281 C10.11628738 0.01557291 12.70526754 0.00498442 15.29492188 -0.0078125 C16.94661611 -0.00649058 18.59830991 -0.0039275 20.25 0 C21.02097519 -0.00404846 21.79195038 -0.00809692 22.58628845 -0.01226807 C28.32215427 0.03743883 31.90608885 0.7778605 36.31640625 4.453125 C40.38186651 9.26748584 42.27112099 14.02393568 41.96875 20.2890625 C41.08088008 26.61669884 38.15609974 30.20905622 33.41015625 34.1015625 C27.8700823 37.85370349 19.56264259 36.57025954 13.09643555 36.61572266 C11.37689642 36.63223956 9.65742474 36.65947329 7.93823242 36.69775391 C-9.28463595 37.07882747 -9.28463595 37.07882747 -14.97583008 32.71240234 C-18.78220039 28.58040922 -20.5077058 24.30047404 -20.74609375 18.703125 C-20.45020664 12.97277801 -18.6369392 8.79833129 -14.87109375 4.453125 C-10.02109241 0.31287995 -6.28377538 -0.03291028 0 0 Z " fill="transparent" transform="translate(193.30859375,145.734375)"/>
<path d="M0 0 C0.66 0.33 1.32 0.66 2 1 C0.88121617 2.17262904 -0.24523051 3.33795138 -1.375 4.5 C-2.00148438 5.1496875 -2.62796875 5.799375 -3.2734375 6.46875 C-5 8 -5 8 -7 8 C-7 8.99 -7 9.98 -7 11 C-7.66 11 -8.32 11 -9 11 C-7.59928507 5.70841026 -4.14512755 3.22521956 0 0 Z " fill="transparent" transform="translate(488,66)"/>
<path d="M0 0 C-1.5830577 4.2742558 -4.50568404 6.26531794 -8 9 C-8 8.01 -8 7.02 -8 6 C-7.34 6 -6.68 6 -6 6 C-5.67 5.01 -5.34 4.02 -5 3 C-2.44444444 0 -2.44444444 0 0 0 Z " fill="#B3B3B2" transform="translate(370,75)"/>
<path d="M0 0 C0.66 0 1.32 0 2 0 C0.55746343 3.36591866 -1.33264727 5.51047079 -4 8 C-4.66 7.67 -5.32 7.34 -6 7 C-5.04882866 5.8274869 -4.08882991 4.66212985 -3.125 3.5 C-2.59132812 2.8503125 -2.05765625 2.200625 -1.5078125 1.53125 C-0.76144531 0.77328125 -0.76144531 0.77328125 0 0 Z " fill="transparent" transform="translate(46,40)"/>
<path d="M0 0 C-1.52708963 3.43595166 -3.59927045 6.11912454 -6 9 C-5.38983051 3.50847458 -5.38983051 3.50847458 -3.5625 1.125 C-2 0 -2 0 0 0 Z " fill="transparent" transform="translate(394,102)"/>
</svg>
