<?xml version="1.0" encoding="UTF-8"?>
<svg version="1.1" xmlns="http://www.w3.org/2000/svg" width="432" height="420">
<path d="M0 0 C142.56 0 285.12 0 432 0 C432 138.6 432 277.2 432 420 C289.44 420 146.88 420 0 420 C0 281.4 0 142.8 0 0 Z " fill="#ffffff" transform="translate(0,0)"/>
<path d="M0 0 C142.56 0 285.12 0 432 0 C432 138.6 432 277.2 432 420 C289.44 420 146.88 420 0 420 C0 281.4 0 142.8 0 0 Z M111 36 C110.4013916 36.31936523 109.8027832 36.63873047 109.18603516 36.96777344 C77.90255612 53.76484449 51.59365952 78.83329576 33 109 C32.6189209 109.6177832 32.2378418 110.23556641 31.84521484 110.87207031 C5.66115723 153.95806541 -1.359006 204.51908504 10.25 253.4453125 C18.1250535 284.22621213 33.34269553 312.5996185 54.9921875 335.83984375 C56.87487994 337.86538639 58.65737061 339.94704391 60.4375 342.0625 C78.85429021 363.02673738 104.61059742 378.113462 130 389 C130.72380859 389.31275879 131.44761719 389.62551758 132.19335938 389.94775391 C142.60671779 394.34925233 153.32334547 397.23915602 164.3125 399.8125 C165.55169189 400.1027002 166.79088379 400.39290039 168.06762695 400.69189453 C182.84887294 404.02467963 197.0227489 405.40885994 212.125 405.375 C212.99795715 405.37478851 213.87091431 405.37457703 214.77032471 405.37435913 C236.66861909 405.3216938 258.15747504 403.03072981 279 396 C279.86286621 395.71108887 280.72573242 395.42217773 281.61474609 395.12451172 C310.71890222 385.24540147 337.2119467 371.08223641 359.83203125 350.015625 C361.90222547 348.09090389 364.02953109 346.26252513 366.1875 344.4375 C370.19620224 340.92291215 373.61381645 337.11133184 377 333 C377.4439209 332.46842285 377.8878418 331.9368457 378.34521484 331.38916016 C385.32186138 323.01211708 391.70727083 314.56429439 397 305 C397.46438477 304.16404297 397.92876953 303.32808594 398.40722656 302.46679688 C405.11304302 290.28137039 410.8801904 278.2856947 415 265 C415.36351562 263.95714844 415.72703125 262.91429687 416.1015625 261.83984375 C418.42645176 254.96278582 419.8740997 248.00088257 421.1875 240.875 C421.35459473 239.96854736 421.52168945 239.06209473 421.69384766 238.12817383 C425.37845497 217.15702826 425.14823372 195.86140727 421 175 C420.80664062 173.99710938 420.61328125 172.99421875 420.4140625 171.9609375 C410.25054743 120.39050919 379.56331194 76.35152216 336.28125 46.8125 C329.74032957 42.45582195 322.97805221 38.60798869 316 35 C315.28682617 34.6277832 314.57365234 34.25556641 313.83886719 33.87207031 C251.18145048 1.56563084 172.88356114 2.54497228 111 36 Z " fill="#ffffff" transform="translate(0,0)"/>
<path d="M0 0 C2.30552806 -0.00218143 4.61057182 -0.02040554 6.91601562 -0.03930664 C20.31501053 -0.09041788 33.58025721 1.00977093 46.69726562 3.87280273 C47.46675537 4.03941406 48.23624512 4.20602539 49.02905273 4.37768555 C65.89903158 8.18514022 82.0570255 13.54876226 97.57226562 21.18530273 C98.73169678 21.74773682 98.73169678 21.74773682 99.91455078 22.3215332 C146.59422367 45.16194376 184.05687211 85.89975256 201.36572266 135.07446289 C211.00440115 164.13310154 214.6369709 194.88652918 209.57226562 225.18530273 C209.44335938 225.96824707 209.31445312 226.75119141 209.18164062 227.55786133 C204.28646398 256.36801552 192.86632823 286.16399286 174.57226562 309.18530273 C173.99992187 309.94713867 173.42757813 310.70897461 172.83789062 311.49389648 C169.04360247 316.51523654 164.94467121 321.19563396 160.69726562 325.83764648 C158.91080586 327.81129045 157.20110211 329.81838043 155.50976562 331.87280273 C152.20147569 335.73545477 148.48844976 338.95125331 144.57226562 342.18530273 C143.78070068 342.8453833 143.78070068 342.8453833 142.97314453 343.51879883 C134.76217979 350.34186628 126.40640089 356.63383068 117.26660156 362.16040039 C115.63344181 363.14829731 114.01271941 364.15666628 112.39257812 365.16577148 C66.83758398 392.53154135 8.45135746 402.24746215 -43.42773438 390.18530273 C-44.29156738 389.99806641 -45.15540039 389.81083008 -46.04541016 389.61791992 C-78.28947031 382.61911549 -110.6599667 368.26789172 -135.42773438 346.18530273 C-136.71550781 345.04254883 -136.71550781 345.04254883 -138.02929688 343.87670898 C-139.72398686 342.35865587 -141.41177907 340.83285892 -143.09179688 339.29858398 C-145.18944428 337.40087956 -147.32877219 335.57180343 -149.49023438 333.74780273 C-163.46664775 321.47310836 -174.50623704 305.41003808 -183.42773438 289.18530273 C-183.76756348 288.56751953 -184.10739258 287.94973633 -184.45751953 287.31323242 C-208.85101803 242.25933898 -213.95042045 191.09852914 -199.80273438 141.81030273 C-192.43607125 118.17262374 -180.0532097 96.29121882 -164.42773438 77.18530273 C-163.59158037 76.13208917 -162.75564529 75.07870176 -161.91992188 74.02514648 C-133.84540799 39.19598203 -91.83236461 14.94306786 -48.42773438 5.18530273 C-47.58114258 4.99452148 -46.73455078 4.80374023 -45.86230469 4.60717773 C-43.26251361 4.03225195 -40.65937722 3.47827061 -38.05273438 2.93530273 C-37.28123047 2.77191406 -36.50972656 2.60852539 -35.71484375 2.44018555 C-23.92794194 0.10372868 -11.97165151 -0.0012607 0 0 Z M-129.42773438 78.18530273 C-130.29527344 78.95745117 -131.1628125 79.72959961 -132.05664062 80.52514648 C-145.05049276 92.70554494 -155.55221404 108.27566858 -163.42773438 124.18530273 C-163.77384766 124.87769043 -164.11996094 125.57007813 -164.4765625 126.28344727 C-182.84127547 163.61319301 -186.31174507 207.53876188 -172.96289062 247.09545898 C-159.44118364 283.82074429 -136.78774117 314.03114424 -104.42773438 336.18530273 C-103.42742187 336.87108398 -102.42710938 337.55686523 -101.39648438 338.26342773 C-77.88682512 353.48283873 -52.74683376 361.33876559 -25.42773438 366.18530273 C-24.03204224 366.45685181 -24.03204224 366.45685181 -22.6081543 366.73388672 C-18.77146859 367.27845046 -14.98600098 367.3656578 -11.11914062 367.38842773 C-10.32432785 367.395578 -9.52951508 367.40272827 -8.71061707 367.41009521 C42.12426812 367.76261061 91.08546324 355.63974826 128.85351562 319.72827148 C130.77680417 317.92933349 132.68542767 316.24023872 134.71679688 314.57592773 C138.47474313 311.42974017 141.46012265 307.95795789 144.57226562 304.18530273 C144.98138184 303.69384766 145.39049805 303.20239258 145.81201172 302.69604492 C170.373007 273.02154569 185.06675911 235.78851577 184.88476562 197.06030273 C184.87912598 195.79057617 184.87348633 194.52084961 184.86767578 193.21264648 C184.30204351 149.08212834 164.22398105 109.74354315 134.00976562 78.37280273 C129.46067477 73.99825734 124.53631676 70.07453429 119.57226562 66.18530273 C118.76039795 65.54286621 118.76039795 65.54286621 117.93212891 64.88745117 C44.10895946 6.9062546 -61.69461388 16.25964347 -129.42773438 78.18530273 Z " fill="#000000" transform="translate(212.427734375,10.814697265625)"/>
<path d="M0 0 C4.52492079 2.22132475 6.87960657 4.46197799 9 9 C9.39633593 11.93237606 9.3355412 14.82415832 9.27368164 17.77832031 C9.26487473 19.08909294 9.26487473 19.08909294 9.25588989 20.42634583 C9.24226262 22.31974816 9.22230622 24.21311323 9.19673347 26.10639191 C9.15977969 29.10871865 9.14736971 32.11019092 9.14268494 35.11273193 C9.12794861 43.64774105 9.09291901 52.18194059 8.9831543 60.71630859 C8.91771296 65.94207945 8.90123845 71.16610136 8.91586113 76.3922348 C8.91208339 78.37775289 8.89010997 80.36332665 8.8491993 82.34842682 C8.30555681 93.28069521 8.30555681 93.28069521 12.1545105 103.12927246 C14.65870583 105.39322043 17.16970347 107.173369 20 109 C21.40860872 110.34054894 22.78985051 111.71127236 24.125 113.125 C27.28258798 116.33331229 30.5875287 119.28615748 34 122.21875 C36.78688149 124.70081633 39.37355299 127.36247632 41.98828125 130.0234375 C43.98617608 131.98641766 46.05574268 133.80920671 48.1875 135.625 C57.68586656 143.79583895 57.68586656 143.79583895 58.3125 150.1875 C57.94204119 154.70709751 56.8911926 157.52518156 54 161 C50.10443006 163.7446061 46.62217357 164.55691587 41.94140625 164.34375 C36.35855247 163.35523665 32.61601102 158.74414874 28.84765625 154.8515625 C26.98940139 152.98937898 25.05951668 151.27422858 23.0625 149.5625 C20.25423653 147.14382221 17.60029407 144.64100317 15 142 C12.44009866 139.40017817 9.8322046 136.93731602 7.0625 134.5625 C3.25579556 131.29216096 -0.24503991 127.77663471 -3.76171875 124.19921875 C-6.43928921 121.56837727 -9.26192899 119.16485007 -12.17578125 116.80078125 C-16.86755761 112.16928467 -18.45564541 108.42117812 -18.54211426 101.97399902 C-18.52996887 100.61788513 -18.52996887 100.61788513 -18.51757812 99.234375 C-18.5245874 98.26777954 -18.53159668 97.30118408 -18.53881836 96.30529785 C-18.55637953 93.1199037 -18.54478188 89.93540271 -18.53125 86.75 C-18.53394544 84.53092275 -18.5378283 82.31184665 -18.54284668 80.09277344 C-18.5487392 75.44584896 -18.5401864 70.79923239 -18.52148438 66.15234375 C-18.49869533 60.20033255 -18.51181967 54.24904285 -18.53577423 48.29705811 C-18.55023863 43.71592792 -18.54562319 39.13496837 -18.53526306 34.55383301 C-18.53259757 32.35941482 -18.53585926 30.16498106 -18.54518127 27.97058105 C-18.5553571 24.90184582 -18.53983046 21.83427376 -18.51757812 18.765625 C-18.52567505 17.86154907 -18.53377197 16.95747314 -18.54211426 16.02600098 C-18.46826251 10.51956185 -17.65269771 7.37982252 -14 3 C-9.80171684 -0.98752597 -5.51692872 -0.78439745 0 0 Z " fill="#000000" transform="translate(219,103)"/>
</svg>
