<?xml version="1.0" encoding="UTF-8"?>
<svg version="1.1" xmlns="http://www.w3.org/2000/svg" width="384" height="375">
<path d="M0 0 C126.72 0 253.44 0 384 0 C384 123.75 384 247.5 384 375 C257.28 375 130.56 375 0 375 C0 251.25 0 127.5 0 0 Z " fill="transparent" transform="translate(0,0)"/>
<path d="M0 0 C1.54274144 -0.00543778 3.08547768 -0.01256962 4.62820435 -0.02124023 C8.77095292 -0.03928166 12.91329746 -0.03248622 17.05605197 -0.01972389 C21.42206721 -0.0094937 25.78805118 -0.01901722 30.15406799 -0.02526855 C37.48281979 -0.03251689 44.8114096 -0.02303245 52.14013672 -0.00390625 C60.57277625 0.01784893 69.00502859 0.01080962 77.43765873 -0.01121187 C84.71971298 -0.02945637 92.00165174 -0.03188006 99.28372151 -0.0214572 C103.61453491 -0.01527061 107.9451673 -0.01425124 112.27596855 -0.02760315 C116.35155038 -0.03929365 120.42664093 -0.03089976 124.50217056 -0.00802612 C125.98384479 -0.00280818 127.46556153 -0.00413145 128.94721794 -0.01307678 C142.21080817 -0.08567315 155.45633776 1.87144979 167.26782227 8.26757812 C168.25516357 8.785177 168.25516357 8.785177 169.26245117 9.31323242 C187.7335027 19.23821193 201.48869501 34.91383049 208.20141602 54.85742188 C208.45020508 55.73527344 208.69899414 56.613125 208.95532227 57.51757812 C209.29321777 58.64156006 209.63111328 59.76554199 209.97924805 60.92358398 C211.35045047 66.46874181 211.29867932 71.99642535 211.32641602 77.68164062 C211.33544449 78.83248138 211.34447296 79.98332214 211.35377502 81.16903687 C211.36822568 83.59118059 211.37715129 86.01336288 211.38085938 88.43554688 C211.3928076 92.13803256 211.44209083 95.8388784 211.49243164 99.54101562 C211.50189105 101.90038253 211.50912839 104.25975961 211.51391602 106.61914062 C211.53344833 107.72238678 211.55298065 108.82563293 211.57310486 109.96231079 C211.52288936 118.51225907 211.52288936 118.51225907 208.67041016 122.13623047 C204.84307301 125.49310903 202.27957429 126.76620603 197.18511391 126.77484703 C196.22291612 126.78129592 195.26071834 126.78774482 194.26936305 126.79438913 C192.687963 126.78974332 192.687963 126.78974332 191.07461548 126.78500366 C189.95245427 126.78953478 188.83029307 126.79406589 187.67412698 126.79873431 C183.90014154 126.81143172 180.12629941 126.80975448 176.35229492 126.80810547 C173.65210931 126.81299895 170.95193385 126.82083517 168.25175476 126.82846069 C161.67026245 126.8450778 155.08880596 126.85057055 148.50729443 126.85168545 C143.15798861 126.85263556 137.80869462 126.85674399 132.45939255 126.8630867 C117.29559281 126.88070082 102.13182138 126.88992527 86.96801133 126.88842575 C86.1504255 126.88834584 85.33283967 126.88826593 84.49047852 126.88818359 C83.26260373 126.88806095 83.26260373 126.88806095 82.00992338 126.88793583 C68.74163675 126.88712282 55.47346361 126.90626395 42.20520981 126.93446033 C28.58387662 126.96317881 14.9625988 126.9770012 1.34123456 126.97527277 C-6.30711892 126.97460853 -13.95535342 126.98011597 -21.60367966 127.00162888 C-28.11531089 127.01982706 -34.62676921 127.02419931 -41.13841484 127.01061003 C-44.46081981 127.00407329 -47.78262171 127.00615493 -51.1050396 127.02131653 C-54.70699297 127.0366913 -58.30806994 127.02751114 -61.91000366 127.01205444 C-62.95980892 127.02234157 -64.00961417 127.0326287 -65.0912317 127.04322755 C-71.07400454 126.9863469 -74.46870832 126.47003668 -79.04467773 122.51757812 C-81.89160319 119.54075832 -82.42177774 117.56091455 -82.43286133 113.48046875 C-82.44231781 112.47842407 -82.45177429 111.47637939 -82.46151733 110.44396973 C-82.45544464 109.364823 -82.44937195 108.28567627 -82.44311523 107.17382812 C-82.44598541 106.05375366 -82.44885559 104.9336792 -82.45181274 103.77966309 C-82.45385481 101.40583797 -82.44831509 99.03199608 -82.43579102 96.65820312 C-82.41986041 93.05885129 -82.43557311 89.46064313 -82.45483398 85.86132812 C-82.45284923 83.54882568 -82.44900076 81.23632393 -82.44311523 78.92382812 C-82.44918793 77.86087524 -82.45526062 76.79792236 -82.46151733 75.70275879 C-82.27545132 55.49032274 -73.29581676 37.34840981 -59.73217773 22.70507812 C-42.92254164 7.07921922 -22.69832312 -0.13683199 0 0 Z " fill="#000000" transform="translate(139.044677734375,217.482421875)"/>
<path d="M0 0 C1.36898437 0.62841797 1.36898437 0.62841797 2.765625 1.26953125 C10.75572915 5.23034002 16.75047099 10.7594502 23 17 C24.00546875 17.98806641 24.00546875 17.98806641 25.03125 18.99609375 C40.78831325 35.64844468 44.70691398 57.13700921 44.13623047 79.21289062 C43.17650319 98.84774125 33.02045987 117.60401464 19 131 C10.80728229 138.19164125 2.02829867 142.97686358 -8 147 C-9.02867187 147.43570313 -10.05734375 147.87140625 -11.1171875 148.3203125 C-30.23705831 155.13862055 -53.09315823 152.21103177 -71.125 143.875 C-91.55902993 133.0461186 -105.65539686 115.94840704 -113 94 C-118.93036029 73.33740326 -115.26554216 49.63114898 -105 31 C-93.79819351 13.31403095 -76.74918904 -1.17784213 -56.03515625 -5.96484375 C-36.73641869 -9.98977367 -17.94286494 -8.64925396 0 0 Z " fill="#000000" transform="translate(239,24)"/>
<path d="M0 0 C1.90251274 -0.0129007 1.90251274 -0.0129007 3.84346008 -0.02606201 C5.23149068 -0.03049613 6.61952171 -0.03479459 8.0075531 -0.03897095 C9.48339017 -0.04688309 10.95922536 -0.0551527 12.43505859 -0.06375122 C17.26446213 -0.08984413 22.09387378 -0.10526671 26.92332458 -0.11953735 C28.59307802 -0.12490239 30.26283141 -0.1302799 31.93258476 -0.13566971 C38.88387714 -0.15728029 45.83516731 -0.17601288 52.78648472 -0.1872921 C62.71092944 -0.2035079 72.63498135 -0.23664888 82.55927807 -0.29369295 C89.55830609 -0.332536 96.55722967 -0.35194173 103.55636257 -0.35721266 C107.72637907 -0.36084668 111.89597538 -0.37265805 116.0658741 -0.4053154 C119.99525655 -0.43565035 123.92397011 -0.44161884 127.85344505 -0.42993164 C129.28438451 -0.42971301 130.71535738 -0.43784095 132.14618683 -0.45558548 C148.15064345 -0.6430381 162.39672489 4.43469647 174.23191833 15.40390015 C191.0740791 33.45772715 189.48191833 50.35253799 189.48191833 75.15390015 C109.29191833 75.15390015 29.10191833 75.15390015 -53.51808167 75.15390015 C-53.51808167 31.86174656 -53.51808167 31.86174656 -37.92823792 15.4390564 C-27.19849529 5.26579961 -14.77629571 0.07510776 0 0 Z " fill="#ffffff" transform="translate(135.51808166503906,242.84609985351563)"/>
<path d="M0 0 C8.89689394 6.4890742 15.48392054 14.01159375 19.88671875 24.10546875 C20.50353516 25.43771484 20.50353516 25.43771484 21.1328125 26.796875 C26.28253064 39.60880351 25.29955125 54.0206559 20.4375 66.73046875 C13.65530671 81.49070806 3.35543774 91.75242271 -11.98828125 97.48046875 C-25.4785353 102.11145149 -40.79004635 101.59318779 -53.8359375 95.921875 C-66.66678645 89.55156603 -76.67755305 79.24749932 -81.92578125 65.85546875 C-82.31765625 64.61796875 -82.70953125 63.38046875 -83.11328125 62.10546875 C-83.46132812 61.05359375 -83.809375 60.00171875 -84.16796875 58.91796875 C-87.81884982 44.19375417 -84.701676 29.36130913 -77.30078125 16.37890625 C-68.73053457 3.55414425 -56.19182336 -5.0902286 -41.09570312 -8.54150391 C-26.64914355 -11.11413016 -12.33821314 -7.72579701 0 0 Z " fill="#ffffff" transform="translate(234.11328125,49.89453125)"/>
</svg>
