<svg width="20" height="20" viewBox="0 0 20 20" fill="none" xmlns="http://www.w3.org/2000/svg">
<path d="M18.9994 17.1864V14.4767C19.0104 14.0337 18.8579 13.6021 18.5708 13.264C17.7614 12.3106 14.9854 11.7008 13.885 11.935C13.0273 12.1176 12.4271 12.9788 11.8404 13.5644C9.57464 12.2785 7.69857 10.4062 6.41019 8.1448C6.99689 7.55929 7.85987 6.96036 8.04283 6.10428C8.27713 5.00777 7.66812 2.24949 6.72131 1.43684C6.38828 1.151 5.96246 0.995768 5.52324 1.00009H2.8081C1.77357 1.00106 0.912875 1.92895 1.00706 2.96919C0.999995 11.935 8.00004 19 17.0264 18.9929C18.0722 19.0873 19.0036 18.2223 18.9994 17.1864Z" stroke="#ffffff" stroke-width="1.5" stroke-linecap="round" stroke-linejoin="round"/>
</svg>
